<?xml version="1.0" standalone="no"?>
<!DOCTYPE svg PUBLIC "-//W3C//DTD SVG 20010904//EN"
 "http://www.w3.org/TR/2001/REC-SVG-20010904/DTD/svg10.dtd">
<svg version="1.0" xmlns="http://www.w3.org/2000/svg"
 width="1280.000000pt" height="1280.000000pt" viewBox="0 0 1280.000000 1280.000000"
 preserveAspectRatio="xMidYMid meet">
<metadata>
Created by potrace 1.11, written by Peter Selinger 2001-2013
</metadata>
<g transform="translate(0.000000,1280.000000) scale(0.100000,-0.100000)"
fill="#000000" stroke="none">
<path d="M0 6400 l0 -3600 6400 0 6400 0 0 1590 0 1590 -36 0 c-19 0 -64 -10
-99 -22 -62 -22 -64 -22 -117 -5 -71 22 -110 21 -150 -3 -43 -26 -66 -25 -156
6 -53 18 -88 24 -116 21 -143 -18 -235 -26 -336 -29 -110 -2 -117 -1 -172 27
-32 16 -69 38 -82 50 -23 18 -24 24 -16 70 5 28 9 73 9 100 1 47 5 55 46 95
47 46 54 70 36 126 -6 16 -38 123 -71 238 -58 196 -61 212 -50 247 7 22 18 36
23 32 6 -4 8 0 5 8 -3 8 0 23 8 34 8 11 14 44 14 79 0 58 2 63 43 107 44 45
65 101 48 123 -14 18 -25 59 -13 52 12 -7 10 11 -4 39 -6 11 -30 82 -54 158
l-44 137 -533 0 -532 0 -14 -26 -14 -27 -7 27 -6 26 -535 0 -534 0 -15 -27
-15 -28 -1 28 0 27 -545 0 -546 0 -8 -22 -8 -22 -5 22 -6 22 -1095 0 c-867 0
-1096 -3 -1100 -12 -4 -10 -6 -10 -6 0 -1 9 -117 12 -545 12 l-545 0 -4 -22
-4 -23 -8 23 -7 22 -263 0 -263 0 -6 -32 c-3 -18 -11 -72 -17 -120 -10 -70
-15 -85 -27 -80 -11 4 -13 1 -8 -9 4 -8 1 -6 -7 4 -8 10 -35 68 -58 129 l-44
111 -194 -7 c-107 -3 -223 -6 -258 -6 -55 0 -65 -3 -71 -21 -8 -20 -8 -19 -22
6 -8 15 -19 24 -28 20 -7 -3 -121 -5 -252 -5 -231 0 -239 -1 -245 -20 -6 -20
-7 -20 -25 2 -16 20 -28 23 -124 25 -70 2 -115 8 -129 17 -12 8 -42 17 -66 21
-40 7 -84 24 -151 60 -33 18 -137 20 -178 4 -36 -15 -41 -38 -17 -79 8 -14 26
-50 41 -80 15 -30 31 -63 36 -74 7 -13 5 -29 -9 -55 -23 -47 -30 -51 -79 -51
-28 0 -44 -5 -48 -15 -4 -12 -10 -13 -24 -6 -12 6 -22 7 -28 1 -6 -6 -46 39
-104 118 l-95 127 -190 2 c-104 1 -210 4 -235 7 -25 3 -52 1 -60 -4 -8 -5 -24
-37 -35 -70 -11 -34 -25 -60 -30 -58 -6 2 -9 9 -9 16 1 6 -2 12 -7 12 -5 0
-11 0 -14 0 -3 0 -21 7 -41 15 -20 8 -45 15 -55 15 -11 0 -24 11 -30 24 -6 13
-20 27 -30 29 -22 6 -26 47 -5 47 7 0 19 6 25 14 9 11 4 23 -22 58 -43 56 -50
99 -26 153 32 69 27 87 -56 187 -11 14 -34 71 -50 123 -13 44 -20 55 -43 64
-20 8 -32 25 -43 61 -9 27 -14 52 -11 55 4 3 5 21 3 40 -2 30 1 34 26 38 20 3
17 4 -14 6 -24 0 -43 6 -43 12 0 12 -51 57 -89 79 -57 32 -91 55 -91 63 0 4
-8 7 -17 7 -9 0 -24 6 -32 14 -21 18 -301 175 -455 254 -65 34 -134 73 -152
87 -43 33 -56 80 -45 161 10 68 19 90 49 117 30 27 194 40 527 41 l280 1 70
-36 c39 -19 93 -48 120 -63 28 -16 106 -58 175 -94 349 -181 415 -216 447
-238 20 -13 43 -24 52 -24 10 0 22 -5 28 -11 5 -5 25 -18 44 -27 19 -10 33
-23 32 -29 -2 -7 20 -29 47 -50 27 -21 49 -44 50 -50 0 -20 80 -17 80 2 0 13
247 15 2160 15 1893 0 2160 2 2160 15 0 8 6 12 13 9 19 -7 33 13 45 66 6 25
18 75 27 112 15 63 15 68 -1 94 l-18 27 -111 -9 c-182 -15 -514 -12 -555 4
-74 29 -71 21 -115 397 -40 340 -51 396 -81 423 l-25 22 -475 0 c-534 0 -514
-3 -555 74 l-24 46 -1000 -2 -1000 -3 -3 -30 c-2 -16 -8 -42 -13 -57 -23 -57
7 -55 -1009 -68 -609 -7 -958 -8 -1002 -1 -70 10 -111 30 -232 113 l-70 48
-178 0 -178 0 0 -3600z m1004 1503 c19 -39 22 -159 5 -196 -13 -28 -48 -47
-85 -47 -26 0 -73 39 -75 62 -1 7 -3 24 -5 38 -4 40 15 150 32 175 31 47 98
30 128 -32z m9355 -350 c35 -134 42 -167 37 -180 -5 -11 -51 -13 -279 -11
l-274 3 13 -60 c7 -33 17 -86 24 -117 l11 -58 287 -2 286 -3 28 -114 c21 -83
26 -117 18 -125 -15 -15 -491 -21 -531 -7 -25 9 -29 8 -29 -9 0 -10 22 -125
50 -255 27 -131 47 -241 44 -246 -3 -5 -97 -9 -210 -9 -202 0 -205 0 -214 23
-10 22 -220 1162 -220 1192 0 13 57 15 475 15 l474 0 10 -37z m1134 -70 c19
-60 32 -111 30 -115 -2 -5 -63 -8 -135 -8 l-130 0 7 -37 c10 -55 83 -308 181
-625 47 -153 86 -290 87 -305 l2 -28 -207 -3 c-190 -2 -208 -1 -216 15 -8 14
-272 973 -272 985 0 2 -62 2 -139 0 l-139 -3 -22 82 c-12 45 -24 97 -27 115
l-6 34 476 0 476 0 34 -107z m-9433 85 c0 -7 -13 -56 -29 -108 l-29 -95 58 -5
c32 -3 62 -8 66 -12 5 -6 -33 -162 -53 -215 -4 -10 29 -13 145 -13 l151 0 14
53 c9 28 23 80 32 115 l18 62 68 0 c56 0 69 3 73 18 3 9 10 37 16 62 6 25 18
69 26 98 l15 52 200 0 c186 0 200 -1 195 -17 -3 -10 -67 -281 -142 -603 -75
-322 -141 -588 -147 -592 -21 -13 -417 -10 -417 4 0 6 27 118 60 249 33 131
60 240 60 242 0 3 -34 7 -75 9 l-76 3 -10 -40 c-41 -157 -54 -201 -63 -207
-13 -9 -237 -11 -259 -3 -11 5 -9 22 13 98 15 51 30 104 33 120 l7 27 -77 0
-78 0 -40 -138 c-21 -75 -55 -189 -75 -252 l-36 -115 -199 -3 c-110 -1 -204
-1 -210 2 -7 2 4 51 31 132 22 71 110 344 195 607 l153 477 193 0 c148 0 193
-3 193 -12z m1512 7 c3 -3 -21 -135 -52 -293 -32 -158 -83 -420 -114 -582 -32
-162 -61 -305 -66 -317 -9 -23 -11 -23 -214 -23 -113 0 -207 4 -210 8 -3 6
221 1038 259 1190 5 22 7 22 199 22 106 0 195 -2 198 -5z m551 -32 c-3 -21
-11 -70 -18 -110 l-12 -71 69 -7 c37 -4 68 -10 68 -14 0 -3 -7 -49 -15 -101
-8 -52 -15 -101 -15 -107 0 -9 22 -13 75 -13 41 0 75 3 76 8 0 4 15 106 32
227 l32 220 198 3 197 2 0 -32 c-1 -18 -31 -292 -68 -608 l-68 -575 -207 -3
c-184 -2 -208 -1 -214 14 -5 14 28 291 44 364 5 20 3 23 -8 13 -7 -8 -38 -13
-71 -13 -57 0 -58 1 -58 28 0 15 7 70 15 122 8 52 15 101 15 108 0 10 -19 12
-77 10 l-78 -3 -48 -310 c-27 -170 -54 -316 -59 -322 -8 -10 -63 -13 -214 -13
-111 0 -205 3 -207 8 -2 4 47 277 109 607 63 330 113 601 114 603 0 1 90 2
199 2 l200 0 -6 -37z m1793 0 c-3 -21 -6 -71 -6 -111 l0 -73 -279 3 -280 3 -6
-65 c-3 -36 -8 -91 -11 -122 l-5 -58 284 0 285 0 -6 -112 c-3 -66 -9 -116 -16
-120 -6 -4 -135 -8 -288 -8 l-276 0 -7 -77 c-3 -43 -7 -100 -8 -128 l-2 -50
288 -3 288 -2 -2 -124 c-1 -100 -4 -126 -16 -130 -23 -9 -986 -7 -1000 2 -10
6 0 133 47 588 34 318 63 589 66 602 l4 22 476 0 477 0 -7 -37z m1107 -64 c4
-56 4 -106 1 -110 -3 -5 -128 -9 -278 -9 l-273 0 -5 -362 c-3 -200 -4 -366 -1
-370 2 -5 134 -8 293 -8 l289 0 3 -125 c2 -97 0 -126 -10 -130 -8 -3 -236 -5
-508 -5 -419 0 -495 2 -500 14 -5 13 16 729 32 1069 l6 137 473 0 472 0 6
-101z m1125 -115 c12 -118 23 -221 25 -227 1 -8 -20 -12 -72 -12 l-73 0 6 -44
c3 -24 6 -52 6 -62 0 -16 10 -19 73 -21 l72 -3 31 -310 c17 -170 29 -313 27
-317 -2 -5 -98 -8 -213 -8 l-209 0 -5 33 c-5 31 -36 437 -36 467 0 13 -13 15
-77 12 -43 -2 -79 -6 -81 -7 -4 -3 26 -462 31 -488 3 -19 -406 -23 -422 -3 -8
10 -18 170 -31 528 -11 282 -21 550 -23 596 l-3 82 476 0 476 0 22 -216z
m1199 -384 c57 -327 101 -601 98 -607 -6 -17 -410 -19 -421 -2 -3 6 -18 94
-33 196 l-26 185 -82 1 c-77 2 -82 1 -78 -18 2 -11 14 -96 26 -188 19 -145 20
-170 8 -178 -8 -5 -107 -9 -221 -9 -179 0 -208 2 -208 15 0 18 -118 1101 -126
1163 l-6 42 483 -2 483 -3 103 -595z m1193 -605 c14 -7 35 -31 46 -52 10 -21
22 -40 25 -43 3 -3 15 -47 28 -98 22 -91 22 -94 4 -115 -10 -12 -25 -26 -33
-31 -8 -5 -39 -33 -68 -63 -50 -50 -56 -53 -103 -53 -64 0 -136 28 -195 76
-26 22 -68 50 -93 64 -75 41 -64 84 39 160 26 19 79 60 117 92 106 87 158 102
233 63z m-1159 -355 c26 -107 65 -271 85 -364 l38 -168 -23 -19 c-23 -19 -100
-19 -3081 -19 -3051 0 -3057 0 -3075 20 -18 20 -18 23 0 103 10 45 24 107 30
137 17 77 115 482 120 498 4 10 595 12 2931 10 l2927 -3 48 -195z m1175 -336
c13 -3 29 -23 40 -45 17 -39 17 -40 -3 -67 -41 -56 -160 -47 -183 13 -17 45
-13 65 14 65 14 0 28 5 31 11 14 22 62 33 101 23z m-9017 -62 l30 -18 -28 -17
c-31 -18 -71 -19 -71 -1 0 7 -6 14 -12 17 -10 3 32 33 49 37 2 0 16 -8 32 -18z
m-223 -24 c50 -24 57 -49 19 -66 -52 -24 -133 -5 -136 31 -1 9 -2 23 -3 29 -1
11 26 21 68 27 5 0 28 -9 52 -21z m8456 -126 c-6 -2 -12 -10 -12 -18 0 -18 -5
-18 -30 3 -26 22 -25 32 2 42 16 6 27 3 38 -7 11 -12 12 -16 2 -20z m466 19
c72 -11 85 -18 78 -37 -3 -8 1 -14 10 -14 9 0 14 -7 12 -17 -3 -15 -14 -18
-70 -17 -72 2 -126 22 -147 56 -12 19 -11 23 5 35 10 7 25 11 33 8 9 -2 44 -9
79 -14z m-7613 -51 c24 0 47 -4 50 -10 3 -5 20 -13 38 -18 27 -7 32 -13 34
-41 1 -18 6 -38 12 -44 15 -15 190 -15 200 1 5 8 33 13 79 14 63 1 74 -1 92
-22 29 -33 26 -77 -5 -92 -14 -6 -25 -14 -25 -18 0 -4 -8 -10 -17 -13 -10 -4
-40 -20 -68 -37 -27 -17 -57 -33 -65 -37 -8 -3 -22 -11 -30 -18 -8 -6 -35 -19
-60 -29 -95 -38 -140 -60 -140 -68 0 -4 -4 -8 -9 -8 -13 0 -126 -66 -144 -84
-7 -8 -50 -32 -94 -54 -44 -23 -93 -52 -110 -66 -17 -14 -58 -39 -92 -55 -34
-16 -84 -48 -112 -72 -29 -24 -72 -52 -98 -62 -84 -34 -106 -47 -165 -102 -32
-30 -65 -55 -72 -55 -24 0 -64 -23 -64 -37 0 -7 -9 -13 -20 -13 -14 0 -20 -7
-20 -21 0 -12 -8 -23 -20 -26 -11 -3 -20 -10 -20 -17 0 -6 -24 -22 -53 -36
-59 -28 -137 -102 -156 -149 -15 -36 -24 -39 -141 -44 -61 -3 -99 -10 -133
-26 -27 -12 -56 -21 -66 -19 -21 4 -91 -55 -91 -77 0 -11 11 -15 46 -15 40 0
52 -5 79 -33 27 -28 32 -40 34 -90 2 -46 -1 -57 -14 -57 -9 0 -18 -6 -21 -14
-3 -8 -13 -17 -22 -20 -19 -7 -46 -23 -80 -47 -20 -14 -23 -24 -20 -65 3 -46
1 -51 -31 -72 -37 -25 -93 -48 -161 -65 -25 -6 -47 -14 -50 -18 -3 -3 -21 -8
-39 -11 -38 -5 -64 11 -85 54 -8 16 -21 23 -41 24 -67 1 -75 4 -75 24 0 13 -7
20 -20 20 -17 0 -20 7 -20 40 0 29 -4 40 -15 40 -11 0 -15 11 -15 39 0 32 6
44 35 70 19 17 35 35 35 41 0 5 23 10 53 10 51 0 107 17 107 33 0 4 7 7 15 7
9 0 19 10 24 23 5 13 16 29 25 36 9 7 16 22 16 32 0 10 4 20 9 23 13 9 -11 55
-31 62 -10 3 -18 10 -18 15 0 5 -9 9 -20 9 -17 0 -20 7 -20 40 0 38 -12 52
-25 30 -9 -14 -128 -13 -142 1 -16 16 4 53 52 99 20 19 46 46 58 59 34 37 228
160 270 172 24 6 56 29 91 64 52 53 133 95 183 95 12 0 25 5 28 10 3 6 15 10
26 10 10 0 50 31 88 69 42 41 81 71 98 74 135 26 213 54 481 179 46 21 85 38
87 38 3 0 34 13 70 30 76 35 198 80 276 104 31 9 64 25 74 36 19 20 110 50
215 69 60 11 107 40 80 49 -5 2 -10 8 -10 14 0 15 -40 48 -67 54 -12 4 -42 3
-65 0 -24 -3 -76 -9 -115 -12 -52 -5 -73 -11 -73 -20 0 -8 -4 -14 -9 -14 -4 0
-23 -10 -42 -22 -55 -37 -108 -51 -204 -54 -49 -2 -95 -3 -101 -4 -7 0 -22
-11 -35 -25 -13 -13 -32 -25 -41 -25 -9 0 -20 -4 -23 -10 -3 -5 -25 -14 -48
-20 -40 -10 -86 -29 -97 -40 -8 -8 -51 -26 -105 -45 -49 -17 -81 -30 -149 -60
-19 -8 -38 -15 -43 -15 -19 0 -182 -54 -228 -76 -28 -13 -109 -38 -180 -55
-72 -18 -132 -35 -135 -39 -3 -4 -14 -9 -25 -13 -11 -3 -46 -15 -78 -26 -71
-25 -137 -19 -176 15 -24 21 -25 24 -9 40 17 17 31 24 148 65 74 26 75 26 190
75 86 36 183 65 297 89 34 7 122 31 195 54 73 23 147 46 164 51 17 6 49 10 72
10 23 0 50 4 60 9 29 16 114 39 172 46 30 4 67 16 83 27 19 14 27 16 28 6 0
-7 4 -3 9 10 12 30 58 48 142 57 38 3 72 13 79 21 6 8 18 14 25 14 7 0 21 15
30 33 22 43 18 40 72 47 33 4 61 1 95 -12 26 -10 68 -18 92 -18z m7052 -52
c33 -15 73 -53 74 -74 1 -7 3 -18 4 -24 1 -5 3 -14 4 -20 0 -5 10 -10 22 -10
37 0 14 -23 -42 -42 -45 -16 -60 -17 -89 -7 -42 14 -90 56 -90 80 0 10 -4 19
-9 21 -5 2 -7 15 -4 30 3 18 16 30 41 41 47 19 55 20 89 5z m926 -17 c12 -5
42 -15 67 -22 46 -13 70 -32 70 -57 0 -8 -7 -11 -18 -8 -11 4 -27 -2 -41 -15
-19 -17 -33 -20 -84 -18 -78 4 -117 -7 -117 -32 0 -10 -7 -19 -15 -19 -20 0
-20 -69 0 -96 8 -10 15 -29 15 -41 0 -22 4 -23 84 -23 63 0 85 -4 89 -14 3 -8
23 -19 44 -26 43 -13 110 -38 134 -50 44 -23 118 -32 288 -36 102 -2 202 -7
221 -12 33 -7 35 -10 38 -55 2 -31 -1 -47 -9 -47 -6 0 -9 -6 -6 -14 4 -9 -5
-21 -19 -31 -14 -9 -22 -20 -19 -25 7 -11 -10 -12 -130 -10 -51 1 -85 6 -95
15 -20 17 -138 65 -162 65 -20 0 -24 16 -5 23 6 3 -3 6 -20 6 -23 1 -33 -4
-33 -14 0 -22 -31 -18 -37 5 -6 21 -23 28 -23 9 0 -5 -4 -7 -10 -4 -5 3 -10
-1 -10 -9 0 -9 -9 -16 -20 -16 -11 0 -20 -6 -20 -13 0 -7 -9 -23 -20 -35 -18
-19 -19 -25 -9 -44 7 -13 11 -25 10 -28 -24 -44 -21 -43 -41 -25 -12 11 -31
15 -57 13 -32 -3 -38 -7 -39 -27 -1 -13 4 -36 10 -52 8 -24 16 -29 42 -29 18
0 39 -3 48 -6 11 -4 16 -1 16 11 0 15 2 15 15 1 8 -8 15 -29 15 -46 0 -17 6
-33 14 -36 10 -4 11 -15 6 -45 -6 -31 -4 -39 7 -39 8 0 35 -16 59 -36 24 -20
44 -33 44 -28 0 4 5 3 12 -4 7 -7 20 -12 30 -12 11 0 45 -26 76 -57 100 -100
102 -100 276 -124 82 -12 102 -22 108 -55 3 -21 5 -21 -124 -8 -78 7 -124 -5
-169 -47 -17 -16 -35 -29 -39 -29 -4 0 -13 -6 -19 -14 -9 -11 -9 -20 1 -37 25
-42 147 -160 178 -170 l30 -11 -26 -20 c-25 -20 -28 -20 -85 -4 -32 9 -66 16
-74 16 -9 0 -27 8 -42 17 -37 25 -134 63 -158 63 -44 -1 -59 -26 -57 -95 1
-56 -1 -65 -16 -65 -10 0 -23 -5 -29 -11 -8 -8 -24 -8 -60 1 -67 17 -128 -3
-164 -55 -14 -20 -33 -41 -41 -46 -17 -10 -75 7 -95 27 -7 7 -26 18 -43 26
-21 9 -30 20 -30 35 0 13 5 23 11 23 16 0 5 127 -14 165 -8 17 -18 41 -22 54
-6 21 -5 23 14 18 12 -3 30 3 45 14 13 10 29 19 35 19 12 0 14 11 11 48 -3 46
19 79 68 100 76 33 92 52 92 109 0 40 -5 53 -25 71 -14 12 -25 26 -25 32 0 5
-10 10 -23 10 -13 0 -27 4 -33 9 -8 8 -105 40 -142 47 -8 1 -22 10 -32 19 -14
13 -17 29 -15 90 2 42 -1 78 -6 81 -5 3 -7 11 -3 17 3 7 -1 4 -9 -5 -11 -14
-16 -15 -28 -4 -8 7 -43 18 -79 25 -36 7 -74 18 -85 26 -20 12 -93 25 -145 25
-71 0 -222 23 -289 45 -42 14 -92 31 -111 37 -19 6 -64 12 -100 12 -67 1 -76
-3 -150 -72 -37 -35 -57 -40 -149 -35 -68 3 -87 0 -102 -13 -29 -26 -23 -62
15 -97 150 -142 198 -177 241 -177 7 0 15 -4 17 -8 2 -4 26 -19 53 -34 32 -16
57 -38 70 -61 31 -54 86 -86 199 -113 56 -14 108 -32 117 -40 8 -8 28 -14 43
-14 15 0 34 -6 42 -12 8 -7 20 -18 27 -24 7 -5 19 -13 27 -17 8 -4 26 -14 39
-21 16 -10 42 -12 82 -9 l59 6 0 -75 c0 -65 -3 -77 -23 -96 -22 -21 -27 -21
-98 -11 -78 11 -132 12 -162 3 -10 -3 -23 -1 -30 4 -7 5 -21 11 -31 13 -11 2
-33 24 -50 48 -18 24 -40 45 -51 46 -11 1 -32 6 -47 10 -22 6 -28 4 -28 -9 0
-9 -8 -16 -20 -16 -13 0 -20 -7 -20 -20 0 -11 5 -20 10 -20 6 0 10 -9 10 -20
0 -15 11 -23 47 -33 30 -7 61 -26 85 -49 23 -22 57 -43 87 -52 27 -8 62 -21
79 -30 17 -9 40 -16 50 -16 11 0 22 -7 25 -14 3 -8 25 -20 49 -26 44 -12 61
-19 160 -64 31 -14 62 -26 67 -26 12 0 14 -15 11 -70 -1 -19 -7 -38 -12 -41
-15 -10 3 -164 20 -165 35 -4 35 -4 23 -18 -7 -8 -44 -16 -97 -20 -82 -7 -87
-6 -119 18 -19 14 -38 26 -44 26 -6 0 -11 6 -11 14 0 8 -9 17 -19 21 -11 3
-23 14 -26 25 -3 10 -12 21 -20 24 -8 3 -15 15 -15 27 0 52 -85 129 -143 129
-9 0 -17 4 -17 8 0 5 -21 19 -48 31 -27 13 -56 36 -70 57 -12 18 -27 34 -32
34 -6 0 -10 7 -10 15 0 8 -4 15 -9 15 -13 0 -31 50 -39 106 -5 32 -12 49 -22
50 -8 1 -20 2 -25 3 -6 0 -17 17 -24 37 -10 28 -10 45 -1 84 11 47 10 52 -16
93 -22 36 -37 47 -78 60 -81 25 -106 27 -106 7 0 -10 7 -23 16 -31 9 -7 23
-30 31 -51 8 -21 19 -38 24 -38 5 0 9 -19 9 -42 0 -38 -1 -40 -13 -23 -8 10
-27 19 -43 20 -92 6 -174 62 -189 130 -4 16 -9 39 -12 50 -3 11 -6 40 -8 65
-2 38 -7 47 -33 62 -17 9 -62 19 -100 22 -37 3 -90 13 -118 21 -27 8 -74 15
-105 15 -31 0 -70 5 -87 11 -24 8 -39 8 -62 -3 -16 -7 -30 -16 -30 -20 0 -19
-64 -68 -90 -68 -24 0 -30 -6 -41 -37 -7 -21 -14 -44 -15 -51 -3 -18 -63 -72
-80 -72 -8 0 -14 -4 -14 -8 0 -5 -16 -16 -35 -25 -29 -14 -52 -16 -118 -11
-45 4 -98 2 -117 -3 -25 -7 -54 -7 -95 2 -49 10 -65 10 -87 -2 -16 -7 -28 -18
-28 -23 0 -6 -6 -10 -13 -10 -8 0 -20 -19 -26 -42 -23 -77 -45 -118 -63 -118
-10 0 -18 -4 -18 -9 0 -5 -22 -18 -50 -30 -42 -18 -56 -20 -94 -11 -46 10 -87
2 -101 -19 -3 -6 -34 -11 -68 -11 -57 0 -65 3 -100 35 -47 43 -86 46 -142 8
-22 -14 -43 -31 -46 -36 -8 -11 -79 54 -79 71 0 6 -10 26 -22 46 l-23 35 -107
1 c-60 0 -108 -4 -108 -8 0 -5 -9 -19 -20 -32 -14 -16 -20 -37 -20 -71 0 -26
-3 -49 -7 -51 -19 -8 -45 -73 -50 -123 -8 -76 -19 -83 -98 -62 -35 9 -76 17
-93 17 -41 0 -92 -19 -92 -35 0 -7 -11 -16 -25 -19 -14 -4 -23 -11 -20 -16 3
-5 -14 -3 -37 4 -135 41 -158 50 -158 63 0 7 -7 13 -15 13 -8 0 -15 4 -15 9 0
24 -52 69 -85 74 -50 8 -72 -2 -135 -67 -30 -30 -63 -56 -72 -56 -19 0 -78 47
-78 62 0 5 -19 27 -42 48 -50 48 -104 59 -160 36 -21 -9 -38 -23 -38 -30 0 -8
-8 -28 -17 -45 -17 -29 -17 -32 2 -67 12 -23 33 -42 57 -52 48 -21 50 -49 5
-79 -35 -24 -79 -29 -295 -36 -92 -3 -93 -3 -123 -37 -17 -19 -39 -47 -48 -63
l-18 -27 -12 41 c-12 39 -18 49 -48 83 -21 23 -63 119 -63 143 0 28 28 103 47
123 8 9 44 18 91 22 42 5 85 10 96 11 20 4 42 37 50 78 3 14 15 36 26 49 33
38 23 102 -17 105 -10 0 -24 5 -32 9 -7 5 -18 3 -24 -3 -6 -6 -21 -11 -33 -11
-13 0 -30 -7 -39 -16 -11 -12 -25 -14 -50 -10 -19 4 -35 11 -35 16 0 6 -24 10
-54 10 -45 0 -56 -3 -61 -19 -3 -10 -14 -26 -25 -36 -11 -10 -20 -27 -20 -38
0 -25 -37 -67 -59 -67 -9 0 -36 -14 -60 -30 -35 -24 -55 -30 -97 -30 -29 0
-56 -4 -59 -10 -3 -5 -14 -10 -23 -10 -10 0 -36 -9 -57 -21 -33 -17 -52 -20
-105 -15 -66 5 -141 -12 -148 -34 -2 -5 -11 -10 -19 -10 -14 0 -55 -29 -94
-65 -9 -8 -18 -15 -21 -15 -10 0 -103 -94 -121 -122 -9 -15 -17 -35 -17 -44 0
-12 -5 -14 -17 -9 -37 16 -86 17 -121 2 -56 -24 -234 -42 -262 -27 -16 8 -20
18 -16 33 3 12 6 34 6 48 0 19 11 34 39 53 33 23 54 29 135 34 93 7 96 8 123
41 15 18 29 45 29 60 2 53 4 61 15 61 6 0 25 7 42 15 18 8 50 15 72 17 l40 3
-3 45 c-4 62 -38 90 -108 90 -39 0 -61 -7 -97 -30 -38 -24 -59 -30 -102 -30
-31 0 -55 4 -55 10 0 6 -8 14 -17 17 -18 7 -29 15 -58 40 -16 15 -45 17 -45 3
0 -5 -18 -19 -40 -30 -22 -11 -40 -25 -40 -30 0 -6 -10 -10 -22 -10 -27 -1
-58 -22 -58 -40 0 -39 -91 -55 -110 -20 -6 12 -10 28 -9 38 4 45 -4 70 -34
102 -17 20 -31 44 -29 53 2 10 -3 37 -10 60 -17 52 -13 84 13 92 10 4 19 10
19 14 0 5 18 21 40 36 23 16 40 36 40 47 0 43 33 120 56 130 13 6 24 15 24 20
0 4 6 8 14 8 7 0 20 7 27 17 8 9 28 23 44 30 17 8 40 20 52 26 12 6 34 38 49
70 28 64 46 85 84 104 14 7 43 24 65 38 39 24 123 66 253 127 39 18 80 29 110
30 45 1 219 39 242 53 34 21 554 34 591 14 25 -13 24 -22 -5 -55 -20 -24 -32
-28 -86 -31 -55 -3 -67 -8 -99 -38 -20 -19 -47 -43 -61 -54 -14 -11 -32 -26
-40 -34 -58 -52 -83 -61 -157 -59 -61 2 -79 -1 -103 -18 -15 -11 -33 -20 -39
-20 -6 0 -16 -9 -23 -20 -7 -11 -18 -20 -24 -20 -6 0 -21 -11 -34 -25 -13 -14
-33 -25 -44 -25 -14 0 -17 -3 -9 -8 7 -4 9 -13 4 -21 -5 -8 -3 -24 5 -40 18
-33 18 -68 0 -78 -7 -4 -23 -24 -34 -43 -21 -34 -21 -34 -2 -68 11 -18 20 -41
20 -51 0 -15 -42 -71 -97 -129 -22 -22 -15 -47 19 -66 41 -25 177 -25 214 -1
27 17 32 62 12 95 -10 15 -10 22 0 32 6 6 12 24 12 38 0 14 5 31 11 37 6 6 11
41 10 79 -1 91 21 124 121 179 10 5 18 15 18 22 0 7 10 13 23 14 23 1 33 2
102 14 45 9 95 36 143 79 18 17 42 37 53 46 11 8 34 27 51 43 21 18 43 27 65
27 41 0 123 20 123 29 0 12 79 43 102 39 22 -3 56 -50 57 -81 2 -38 53 -54
207 -61 140 -6 247 -25 268 -46 20 -20 84 -11 110 15 14 14 32 25 41 25 8 0
15 5 15 10 0 6 12 15 28 20 15 6 36 14 47 19 11 5 34 14 50 20 34 13 71 68
100 148 24 66 43 73 180 69 150 -5 155 -5 152 -14 -1 -5 15 -25 36 -45 l39
-36 51 24 c43 21 65 25 150 25 93 0 276 -25 287 -40 6 -7 54 -6 213 5 78 6
107 5 107 -4 0 -6 13 -11 28 -11 15 0 33 -5 40 -12 9 -9 12 -9 12 0 0 9 42 12
170 11 103 -1 175 3 183 9 19 16 127 20 127 5 0 -7 7 -13 15 -13 8 0 12 6 9
14 -8 21 5 25 110 31 53 2 107 10 119 17 43 24 170 30 682 33 530 3 613 8 735
47 40 13 78 12 95 -2 20 -17 324 -52 395 -45 36 3 102 7 146 9 88 3 86 2 142
73 26 35 32 51 32 92 0 46 -2 51 -22 51 -13 0 -32 7 -42 15 -11 8 -30 15 -42
15 -31 0 -150 56 -157 74 -3 8 -27 24 -54 36 -37 16 -44 23 -33 30 12 8 11 10
-6 10 -11 0 -24 3 -27 7 -11 10 44 33 67 27 12 -3 33 -1 47 5 27 10 109 -6
109 -21 0 -12 69 -8 115 6 45 13 74 57 75 114 l0 34 115 -6 c63 -4 125 -10
138 -15z m640 -3 c31 1 57 -2 57 -7 0 -5 21 -11 46 -15 44 -6 108 5 147 25 22
12 59 -10 128 -73 10 -10 25 -18 32 -18 7 0 17 -4 23 -8 5 -5 25 -15 44 -23
56 -22 78 -46 78 -86 0 -26 -5 -37 -19 -40 -10 -3 -19 -8 -19 -12 0 -3 -73 -7
-163 -9 -152 -2 -246 8 -271 30 -6 4 -18 8 -28 8 -10 0 -18 5 -18 10 0 6 -6
10 -12 10 -7 0 -26 15 -43 33 -16 18 -52 41 -80 51 -48 18 -93 56 -115 96 -14
26 30 41 100 32 30 -3 81 -5 113 -4z m-1463 -88 c0 -5 -2 -10 -4 -10 -3 0 -8
5 -11 10 -3 6 -1 10 4 10 6 0 11 -4 11 -10z m-6531 -261 c17 -6 31 -15 31 -19
0 -11 85 -100 96 -100 4 0 17 -8 28 -19 21 -18 76 -35 154 -47 39 -5 42 -8 42
-37 0 -31 -20 -51 -80 -78 -29 -14 -96 -84 -115 -121 -11 -21 -25 -38 -31 -38
-7 0 -14 -7 -18 -15 -3 -8 -12 -15 -21 -15 -8 0 -15 -4 -15 -8 0 -4 -27 -21
-60 -36 -87 -41 -130 -84 -137 -135 -3 -23 -10 -41 -14 -41 -5 0 -30 -16 -56
-35 -100 -73 -93 -61 -93 -152 0 -48 4 -83 11 -85 15 -5 14 -69 -1 -78 -8 -5
-36 -12 -62 -15 -26 -4 -50 -11 -54 -16 -3 -5 -15 -9 -27 -9 -34 0 -94 -24
-122 -48 -49 -43 -20 -75 53 -60 23 5 42 13 42 19 0 16 17 10 49 -18 30 -27
41 -53 21 -53 -5 0 -10 -6 -10 -13 0 -6 -18 -31 -39 -54 -28 -29 -51 -44 -78
-49 -21 -3 -63 -13 -93 -21 -91 -24 -210 -28 -248 -9 -51 27 -114 17 -232 -36
-24 -11 -55 -24 -67 -29 -13 -5 -23 -13 -23 -19 0 -5 -6 -10 -14 -10 -8 0 -17
-8 -21 -19 -3 -10 -14 -26 -25 -36 -11 -10 -20 -28 -20 -41 0 -27 -34 -90 -66
-121 -21 -21 -33 -23 -128 -23 -74 0 -106 -4 -109 -12 -4 -10 -7 -10 -15 0 -7
11 -17 8 -47 -12 -46 -31 -51 -32 -65 -5 -10 17 -8 21 9 26 12 3 21 12 21 19
0 8 6 23 12 34 10 16 10 24 0 40 -6 11 -12 27 -12 35 0 8 -4 15 -9 15 -5 0
-13 9 -16 21 -6 16 2 29 37 60 23 21 49 39 56 39 6 0 12 5 12 10 0 6 7 10 15
10 8 0 20 9 27 20 7 11 21 20 31 20 10 0 31 10 47 22 l29 21 62 -18 62 -19 17
22 c10 12 23 22 28 22 14 0 23 28 12 35 -6 4 -10 17 -10 30 0 15 -11 31 -30
45 -23 16 -32 33 -40 78 -13 62 -40 101 -88 126 -17 9 -33 20 -36 25 -8 13 4
41 18 41 6 1 32 20 58 43 50 45 104 68 134 56 11 -4 38 -8 61 -8 37 -1 42 2
52 30 9 25 8 37 -6 60 -10 16 -21 29 -27 29 -10 0 -56 47 -56 58 0 16 48 59
80 72 19 8 37 17 40 20 3 3 21 12 40 20 19 8 40 19 45 25 20 22 128 110 160
130 60 37 110 72 136 96 14 13 50 41 80 61 80 56 152 107 172 123 9 8 21 15
26 15 4 0 15 8 24 18 10 10 38 28 65 39 87 38 97 43 157 77 65 37 125 45 184
25z m6798 -939 c13 0 13 -3 3 -16 -8 -8 -22 -20 -32 -25 -16 -8 -18 -6 -18 22
0 24 3 30 16 25 9 -3 23 -6 31 -6z m-9571 -428 c-3 -3 -14 2 -23 10 -10 9 -26
18 -37 19 -15 3 -11 9 20 32 l39 27 3 -41 c2 -23 1 -44 -2 -47z m2964 -92 c0
-28 -2 -30 -40 -30 -38 0 -40 2 -40 30 0 28 2 30 40 30 38 0 40 -2 40 -30z
m3846 -50 c15 -15 224 -16 234 -1 3 6 18 0 34 -14 16 -14 33 -25 38 -25 13 0
9 -80 -5 -95 -23 -22 -117 -24 -139 -2 -18 18 -95 45 -143 51 -62 6 -98 18
-118 37 -18 17 -18 18 1 28 12 6 30 11 41 11 11 0 23 5 26 10 8 13 18 13 31 0z
m-5068 -176 c38 -11 26 -66 -23 -98 -23 -15 -27 -15 -58 0 -44 23 -67 48 -57
64 18 30 88 47 138 34z m343 -26 c1 -13 3 -35 5 -50 2 -22 -3 -30 -28 -43 -36
-17 -58 -19 -58 -5 0 15 -77 12 -84 -2 -4 -10 -7 -9 -15 2 -5 8 -10 20 -11 25
0 6 -7 20 -15 31 -18 28 -3 44 45 45 19 1 46 5 60 9 14 4 42 8 63 9 32 1 37
-2 38 -21z m-1016 -98 c3 -5 -1 -10 -9 -10 -9 0 -16 5 -16 10 0 6 4 10 9 10 6
0 13 -4 16 -10z"/>
<path d="M7595 7248 c4 -62 9 -116 12 -120 2 -5 38 -8 79 -8 l76 0 -6 88 c-4
48 -9 102 -12 120 l-5 32 -76 0 -75 0 7 -112z"/>
<path d="M8530 7365 c0 -11 3 -44 6 -72 l7 -53 87 0 c71 0 89 -3 94 -16 14
-36 7 -44 -39 -44 -43 0 -45 -1 -45 -30 0 -16 4 -30 9 -30 4 0 12 -37 17 -82
l9 -83 52 -3 51 -3 -5 41 -6 40 77 0 76 0 6 -40 7 -40 50 0 50 0 -7 53 c-4 28
-12 80 -17 115 l-11 62 -44 0 c-42 0 -44 1 -44 30 l0 30 86 0 86 0 -6 28 c-3
15 -8 47 -11 72 l-7 45 -94 0 -95 0 7 -53 c11 -93 15 -87 -45 -90 -74 -4 -96
2 -98 30 -1 13 -5 42 -8 65 l-6 42 -95 3 c-88 3 -94 2 -94 -17z"/>
<path d="M4018 5973 c-5 -20 -13 -22 -94 -25 -69 -2 -89 -6 -92 -18 -2 -13 12
-15 93 -12 91 3 95 4 101 27 3 13 4 30 2 37 -3 7 -7 3 -10 -9z"/>
<path d="M4571 5974 c0 -11 3 -14 6 -6 3 7 2 16 -1 19 -3 4 -6 -2 -5 -13z"/>
<path d="M8202 5965 c0 -16 2 -22 5 -12 2 9 2 23 0 30 -3 6 -5 -1 -5 -18z"/>
<path d="M8772 5970 c0 -14 4 -38 8 -55 7 -27 8 -27 8 -5 0 14 -4 39 -8 55 -7
27 -8 27 -8 5z"/>
<path d="M8996 5945 c3 -27 10 -57 15 -65 10 -16 8 -2 -11 75 -9 39 -9 39 -4
-10z"/>
<path d="M4782 5960 c0 -14 2 -19 5 -12 2 6 2 18 0 25 -3 6 -5 1 -5 -13z"/>
<path d="M5108 5968 c-6 -15 -20 -18 -77 -18 -80 0 -102 -14 -100 -63 1 -22 3
-26 6 -12 8 30 21 35 94 35 73 0 93 12 87 52 -3 20 -4 20 -10 6z"/>
<path d="M7833 5960 c4 -14 7 -28 7 -32 0 -5 25 -8 55 -8 42 0 55 3 55 15 0
11 -12 15 -44 15 -29 0 -51 6 -62 18 -17 16 -17 16 -11 -8z"/>
<path d="M4187 5953 c-4 -3 -7 -13 -7 -22 0 -13 12 -16 60 -17 63 0 80 15 41
36 -22 11 -84 14 -94 3z"/>
<path d="M5510 5941 c0 -19 6 -21 55 -21 42 0 55 3 55 15 0 11 -11 15 -39 15
-22 0 -46 3 -55 6 -12 4 -16 0 -16 -15z"/>
<path d="M5778 5953 c-34 -3 -48 -8 -48 -19 0 -10 14 -14 55 -14 48 0 55 2 55
20 0 11 -3 19 -7 18 -5 -1 -29 -3 -55 -5z"/>
<path d="M7148 5953 c-69 -3 -88 -7 -88 -18 0 -12 18 -15 90 -15 83 0 90 1 90
20 0 11 -1 19 -2 18 -2 -1 -42 -4 -90 -5z"/>
<path d="M7400 5940 c0 -17 7 -20 42 -20 24 0 49 -7 60 -17 17 -15 18 -15 18
7 0 32 -27 49 -77 50 -36 0 -43 -3 -43 -20z"/>
<path d="M8108 5952 c-34 -2 -48 -7 -48 -18 0 -10 14 -14 55 -14 41 0 55 4 55
14 0 20 -7 22 -62 18z"/>
<path d="M5301 5927 c-27 -70 -25 -109 3 -44 14 32 14 32 15 5 1 -15 5 -29 10
-32 5 -4 5 12 0 37 -14 63 -16 64 -28 34z"/>
<path d="M6166 5934 c-24 -23 -21 -48 3 -34 27 14 84 13 99 -2 9 -9 12 -6 12
14 0 14 -7 29 -16 32 -29 11 -83 6 -98 -10z"/>
<path d="M8502 5938 c-25 -25 -13 -35 41 -30 55 4 71 -4 80 -43 2 -11 3 -2 0
20 -2 21 -9 45 -15 52 -13 16 -90 17 -106 1z"/>
<path d="M4562 5915 c0 -16 2 -22 5 -12 2 9 2 23 0 30 -3 6 -5 -1 -5 -18z"/>
<path d="M6941 5924 c0 -11 3 -14 6 -6 3 7 2 16 -1 19 -3 4 -6 -2 -5 -13z"/>
<path d="M7682 5910 c0 -14 2 -19 5 -12 2 6 2 18 0 25 -3 6 -5 1 -5 -13z"/>
<path d="M4772 5895 c0 -16 2 -22 5 -12 2 9 2 23 0 30 -3 6 -5 -1 -5 -18z"/>
<path d="M8212 5895 c0 -16 2 -22 5 -12 2 9 2 23 0 30 -3 6 -5 -1 -5 -18z"/>
<path d="M4402 5890 c0 -14 2 -19 5 -12 2 6 2 18 0 25 -3 6 -5 1 -5 -13z"/>
<path d="M7952 5885 c0 -16 2 -22 5 -12 2 9 2 23 0 30 -3 6 -5 -1 -5 -18z"/>
<path d="M4165 5855 c-3 -26 -4 -49 -2 -51 3 -3 8 16 12 41 3 26 4 49 2 51 -3
3 -8 -16 -12 -41z"/>
<path d="M8382 5870 c0 -19 2 -27 5 -17 2 9 2 25 0 35 -3 9 -5 1 -5 -18z"/>
<path d="M8792 5860 c0 -14 4 -38 8 -55 7 -27 8 -27 8 -5 0 14 -4 39 -8 55 -7
27 -8 27 -8 5z"/>
<path d="M4552 5845 c0 -16 2 -22 5 -12 2 9 2 23 0 30 -3 6 -5 -1 -5 -18z"/>
<path d="M7291 5854 c0 -11 3 -14 6 -6 3 7 2 16 -1 19 -3 4 -6 -2 -5 -13z"/>
<path d="M8907 5848 c3 -13 22 -43 42 -66 20 -24 41 -51 46 -61 36 -61 51 -71
110 -71 48 0 56 2 53 18 -2 13 -15 18 -61 20 -31 2 -57 7 -57 13 0 8 -129 169
-136 169 -1 0 0 -10 3 -22z"/>
<path d="M3971 5848 c-1 -16 -12 -18 -81 -18 -44 0 -80 -4 -80 -9 0 -5 -2 -15
-5 -23 -4 -10 12 -12 80 -10 91 4 101 9 92 54 -3 14 -5 17 -6 6z"/>
<path d="M6550 5848 c0 -10 17 -44 38 -77 20 -32 45 -73 54 -90 16 -29 21 -31
73 -31 48 0 55 2 55 20 0 18 -7 20 -54 20 l-53 0 -37 63 c-51 86 -75 117 -76
95z"/>
<path d="M4392 5825 c0 -16 2 -22 5 -12 2 9 2 23 0 30 -3 6 -5 -1 -5 -18z"/>
<path d="M8222 5825 c0 -16 2 -22 5 -12 2 9 2 23 0 30 -3 6 -5 -1 -5 -18z"/>
<path d="M4760 5811 c0 -25 -10 -42 -46 -77 l-47 -44 -79 0 -80 0 -39 43 c-39
43 -52 35 -25 -17 28 -55 52 -66 141 -66 76 0 85 2 120 30 21 17 35 30 31 30
-4 0 -1 7 8 15 16 16 33 102 22 112 -3 4 -6 -8 -6 -26z"/>
<path d="M5721 5824 c0 -11 3 -14 6 -6 3 7 2 16 -1 19 -3 4 -6 -2 -5 -13z"/>
<path d="M7521 5824 c0 -11 3 -14 6 -6 3 7 2 16 -1 19 -3 4 -6 -2 -5 -13z"/>
<path d="M7060 5810 c0 -18 7 -20 80 -20 73 0 80 2 80 20 0 18 -7 20 -80 20
-73 0 -80 -2 -80 -20z"/>
<path d="M7692 5810 c0 -14 2 -19 5 -12 2 6 2 18 0 25 -3 6 -5 1 -5 -13z"/>
<path d="M7962 5805 c0 -16 2 -22 5 -12 2 9 2 23 0 30 -3 6 -5 -1 -5 -18z"/>
<path d="M8391 5815 c-1 -32 19 -95 31 -95 6 0 8 -3 5 -6 -4 -4 10 -20 31 -35
35 -27 43 -28 134 -29 93 0 99 1 127 28 17 15 33 41 36 57 l6 30 -34 -37 -34
-38 -99 0 c-83 0 -102 3 -115 18 -8 9 -27 26 -43 38 -16 11 -31 35 -36 54 -4
19 -8 26 -9 15z"/>
<path d="M8631 5814 c0 -11 3 -14 6 -6 3 7 2 16 -1 19 -3 4 -6 -2 -5 -13z"/>
<path d="M5981 5784 c0 -11 3 -14 6 -6 3 7 2 16 -1 19 -3 4 -6 -2 -5 -13z"/>
<path d="M4340 5738 l-45 -47 -132 -1 c-126 0 -133 -1 -133 -20 0 -19 7 -20
134 -20 l134 0 41 40 c34 34 62 85 50 93 -2 2 -24 -19 -49 -45z"/>
<path d="M8232 5755 c0 -16 2 -22 5 -12 2 9 2 23 0 30 -3 6 -5 -1 -5 -18z"/>
<path d="M4810 5757 c0 -25 17 -55 48 -84 23 -21 34 -23 128 -23 97 0 104 1
104 20 0 19 -7 20 -101 20 l-101 0 -39 43 c-28 31 -38 37 -39 24z"/>
<path d="M5229 5730 l-12 -40 -54 0 c-47 0 -53 -2 -53 -20 0 -19 5 -21 58 -18
57 3 57 3 66 41 9 37 10 37 62 37 52 0 52 0 61 -37 l9 -38 58 -3 c51 -3 57 -1
54 15 -2 14 -15 19 -58 23 -54 5 -55 6 -60 40 -5 35 -5 35 -62 38 l-57 3 -12
-41z"/>
<path d="M6040 5753 c0 -12 17 -40 38 -63 l39 -40 98 0 98 0 39 40 c21 23 38
51 38 63 0 19 -5 17 -41 -20 l-41 -43 -93 0 -93 0 -41 43 c-36 37 -41 39 -41
20z"/>
<path d="M8812 5750 c0 -14 2 -19 5 -12 2 6 2 18 0 25 -3 6 -5 1 -5 -13z"/>
<path d="M7603 5725 l-28 -35 -132 0 c-130 0 -133 1 -133 22 0 12 -3 19 -6 15
-4 -3 -3 -22 0 -42 l7 -35 133 0 134 0 31 35 c17 20 31 45 31 55 0 27 -5 25
-37 -15z"/>
<path d="M7972 5725 c-3 -65 5 -75 64 -75 47 0 54 2 54 20 0 18 -7 20 -54 20
-54 0 -55 0 -59 33 l-4 32 -1 -30z"/>
<path d="M3971 5708 c-1 -16 -15 -18 -146 -18 -138 0 -145 -1 -145 -20 0 -19
7 -20 145 -20 156 0 162 2 152 52 -3 14 -5 17 -6 6z"/>
<path d="M7701 5710 c0 -8 2 -25 5 -37 6 -20 13 -23 60 -23 47 0 54 2 54 20 0
18 -7 20 -54 20 -44 0 -55 4 -59 18 -3 12 -5 13 -6 2z"/>
<path d="M8823 5690 l2 -35 59 -3 c51 -3 58 -1 52 13 -3 9 -6 19 -6 21 0 2
-22 4 -49 4 -39 0 -51 4 -55 18 -2 9 -4 1 -3 -18z"/>
<path d="M6950 5688 c0 -35 11 -38 156 -38 136 0 144 1 144 19 0 19 -9 20
-150 23 -83 2 -150 0 -150 -4z"/>
<path d="M8242 5675 c3 -17 12 -20 61 -23 51 -3 57 -1 57 17 0 17 -8 20 -60
23 -56 3 -61 1 -58 -17z"/>
<path d="M5600 5670 c0 -18 7 -20 60 -20 53 0 60 2 60 20 0 18 -7 20 -60 20
-53 0 -60 -2 -60 -20z"/>
<path d="M5870 5670 c0 -18 7 -20 55 -20 48 0 55 2 55 20 0 18 -7 20 -55 20
-48 0 -55 -2 -55 -20z"/>
<path d="M6440 5670 c0 -18 7 -20 55 -20 48 0 55 2 55 20 0 18 -7 20 -55 20
-48 0 -55 -2 -55 -20z"/>
<path d="M980 4336 c-25 -13 -72 -34 -105 -46 -53 -20 -95 -49 -95 -64 0 -8
73 -26 107 -26 17 0 62 16 100 36 55 29 76 35 110 31 58 -6 73 12 41 52 -37
46 -90 52 -158 17z"/>
<path d="M10627 4695 c-5 -11 0 -15 16 -15 12 0 18 4 12 8 -5 4 -13 11 -16 15
-4 4 -9 1 -12 -8z"/>
<path d="M10374 4688 c-4 -7 -3 -8 4 -4 19 11 14 -5 -5 -19 -14 -11 -19 -10
-28 1 -15 21 -51 -6 -42 -31 6 -14 10 -15 22 -5 9 7 29 13 45 12 27 -1 30 3
30 29 0 29 -13 38 -26 17z"/>
<path d="M7187 4187 c-16 -33 -13 -77 4 -77 5 0 9 -7 9 -15 0 -10 -10 -15 -29
-15 -16 0 -31 -5 -33 -11 -3 -9 -10 -9 -27 1 -28 14 -101 -2 -101 -23 0 -23
41 -48 73 -46 56 4 72 0 98 -25 28 -26 82 -38 116 -25 19 7 22 13 17 41 -4 18
-13 38 -20 44 -8 6 -14 19 -14 28 0 9 -7 16 -15 16 -9 0 -15 9 -15 24 0 23
-35 116 -44 116 -2 0 -11 -15 -19 -33z"/>
<path d="M6770 4179 c-19 -4 -43 -6 -52 -3 -22 7 -45 -43 -28 -60 23 -23 190
-46 190 -26 0 6 9 10 19 10 32 0 32 15 3 53 -29 39 -57 45 -132 26z"/>
<path d="M5236 4122 c-7 -12 3 -42 13 -42 4 0 11 3 15 8 4 4 13 7 19 7 5 0 12
6 15 13 2 6 -3 12 -11 12 -9 0 -22 3 -30 6 -8 3 -18 1 -21 -4z"/>
<path d="M6224 4091 c-30 -24 -48 -84 -34 -111 9 -17 20 -20 70 -20 53 0 60
-2 60 -20 0 -13 7 -20 20 -20 11 0 20 -7 20 -15 0 -35 103 -47 141 -17 21 18
22 21 9 65 -7 26 -17 47 -21 47 -5 0 -9 9 -9 20 0 17 -7 20 -39 20 -22 0 -41
-5 -43 -11 -5 -15 -78 -3 -78 12 0 11 -32 42 -60 58 -10 6 -22 3 -36 -8z"/>
<path d="M4631 4046 c-21 -25 7 -56 50 -56 19 0 38 3 41 6 14 13 -6 41 -36 52
-41 15 -41 15 -55 -2z"/>
<path d="M7440 4000 c0 -33 4 -35 39 -16 l24 13 -24 17 c-33 23 -39 20 -39
-14z"/>
<path d="M5740 3979 l-25 -20 23 -16 c12 -8 22 -22 22 -29 0 -17 76 -20 82 -3
2 7 15 6 38 -4 19 -8 54 -23 78 -33 23 -9 42 -21 42 -26 0 -4 26 -8 58 -8 58
0 58 0 71 36 11 30 11 38 0 45 -8 5 -17 9 -21 9 -4 0 -13 6 -20 13 -54 52
-118 72 -147 45 -11 -10 -14 -10 -18 0 -3 8 -29 12 -81 12 -62 0 -82 -4 -102
-21z"/>
<path d="M6160 3769 l0 -79 44 -19 c24 -11 63 -23 86 -27 35 -6 45 -4 57 11
33 46 0 137 -62 168 -16 9 -51 17 -77 20 l-48 5 0 -79z"/>
<path d="M4387 3833 c-9 -8 -9 -56 -1 -77 14 -37 64 -10 64 34 0 39 -40 67
-63 43z"/>
<path d="M7920 9972 c0 -33 -23 -111 -89 -303 -67 -195 -73 -222 -53 -250 l15
-22 703 6 c782 6 748 8 786 -61 23 -42 42 -162 33 -217 -6 -44 -37 -97 -88
-154 -29 -33 -46 -85 -30 -94 4 -3 31 -1 58 4 81 15 189 1 230 -30 19 -14 34
-32 35 -38 0 -7 6 -13 13 -13 7 0 18 -14 24 -31 10 -25 15 -30 26 -21 10 8 13
6 14 -9 1 -13 -5 -19 -17 -19 -12 0 -17 -5 -14 -14 4 -10 30 -14 100 -15 79
-2 94 1 94 14 0 13 70 15 640 15 616 0 640 -1 640 -18 0 -17 12 -20 116 -25
72 -4 127 -12 146 -22 17 -8 43 -15 58 -15 15 0 35 -9 45 -20 10 -11 22 -20
27 -20 4 0 8 9 8 20 0 11 7 20 15 20 11 0 15 -11 15 -40 0 -36 3 -40 25 -40
18 0 25 5 25 20 0 24 15 27 24 4 9 -22 8 -24 -9 -24 -11 0 -15 -11 -15 -40 l0
-40 65 0 65 0 0 -40 c0 -28 4 -40 14 -40 18 0 70 -66 62 -78 -3 -5 3 -21 14
-35 11 -14 20 -30 20 -36 0 -6 4 -11 9 -11 10 0 29 -42 36 -79 2 -13 12 -32
22 -43 11 -12 16 -32 15 -58 -2 -21 2 -41 8 -45 5 -3 10 2 11 12 0 16 1 16 8
-2 5 -11 6 -23 4 -28 -2 -4 5 -23 17 -41 18 -30 19 -35 4 -38 -14 -3 -13 -6 5
-30 12 -14 21 -35 21 -46 0 -35 33 -82 58 -82 19 0 22 -5 22 -42 0 -36 7 -50
40 -86 22 -24 40 -47 40 -53 0 -9 16 -41 33 -63 26 -38 81 -118 104 -154 l28
-44 50 7 c28 3 82 8 120 9 62 3 105 7 235 20 19 2 61 7 93 11 l57 7 0 914 c0
503 -2 914 -4 914 -2 0 -28 -12 -56 -26 -43 -22 -73 -27 -178 -35 -448 -31
-697 -38 -732 -19 -30 16 -50 70 -57 150 -9 110 20 161 125 217 87 46 794 463
847 499 16 12 -364 14 -2403 14 l-2422 0 0 -28z"/>
<path d="M6565 8710 c-3 -5 1 -10 9 -10 9 0 16 5 16 10 0 6 -4 10 -9 10 -6 0
-13 -4 -16 -10z"/>
<path d="M11840 7986 c0 -8 5 -18 10 -21 6 -3 10 3 10 14 0 12 -4 21 -10 21
-5 0 -10 -6 -10 -14z"/>
<path d="M1498 7683 c7 -3 16 -2 19 1 4 3 -2 6 -13 5 -11 0 -14 -3 -6 -6z"/>
</g>
</svg>
