<?xml version="1.0" encoding="utf-8"?>
<!-- Generator: Adobe Illustrator 22.0.0, SVG Export Plug-In . SVG Version: 6.00 Build 0)  -->
<svg version="1.1" id="Layer_1" xmlns="http://www.w3.org/2000/svg" xmlns:xlink="http://www.w3.org/1999/xlink" x="0px" y="0px"
	 viewBox="0 0 48 48" style="enable-background:new 0 0 48 48;" xml:space="preserve">
<style type="text/css">
	.st0{fill:#5FAEDC;}
</style>
<g id="Expanded">
	<g>
		<g>
			<path class="st0" d="M6,45.4V36H3c-1.7,0-3-1.3-3-3V7c0-1.7,1.3-3,3-3h42c1.7,0,3,1.3,3,3v26c0,1.7-1.3,3-3,3H15.4L6,45.4z M3,6
				C2.4,6,2,6.4,2,7v26c0,0.6,0.4,1,1,1h5v6.6l6.6-6.6H45c0.6,0,1-0.4,1-1V7c0-0.6-0.4-1-1-1H3z"/>
		</g>
		<g>
			<circle class="st0" cx="16" cy="20" r="2"/>
		</g>
		<g>
			<circle class="st0" cx="32" cy="20" r="2"/>
		</g>
		<g>
			<circle class="st0" cx="24" cy="20" r="2"/>
		</g>
	</g>
</g>
</svg>
