<svg class="navbar-brand-image" role="img" xmlns="http://www.w3.org/2000/svg" xmlns:xlink="http://www.w3.org/1999/xlink" version="1.1" x="0px" y="0px" viewBox="0 0 1041.7 252.2" enable-background="new 0 0 1041.7 252.2" xml:space="preserve" focusable="false">
<g>
	<g>
		<path d="M1040.8,128.2l-3.2-11l-3-10.1c0,0-9.5-30.9-10.7-35c-1.5-5-3.1-10.1-4.5-15l-0.2-0.8l21-25.3l-9.9-31l-106,0.1L921,5.3    l-1.3-5.1L813,0.2l-2.6,5.9l-1-5.9L701.8,0.3l-1.9,7l-0.7-7L590.6,0.4l-1,11.5l-0.3-11.5L480,0.6l-0.4,10.5l-1.1-10.5L370.2,0.7    l-0.7,6.8l-1.9-6.8l-52.2,0l-4.2,29.1l-2.4-6l-1.1-0.1l-9.1-23L247,0.8l-1,5.6l-2.7-5.6l-51,0L191,6l-3-5.2l-50.6,0.1l-5.9,22.7    l-13.7,0l-2.6,9.9L91.3,0.9L42.1,1L0,131.7l44.7,41.4h48.8l7.7-29.1l3.8,4.2h13l21.7,24.9l50.1,0l1-4.7l3.5,4.7l50.5,0l0.9-5.1    l3.2,5.1l51,0l3.9-27.3l13.1,27.3l51.6,0l0.6-6.3l2.2,6.3l107.4,0l0.4-9.9l1.2,9.9l108.3,0l1-10.9l0.4,10.9l53.1,0l1.7-7.6    l0.5,7.6l52.5,0l2.2-6.6l0.6,6.6h51.9l2.7-5.8l0.8,5.8h51.4l3.1-5.3l0.9,5.3l51,0l29.5-42l-1.4-6.7l16.3,0L930,92.3l19.8,80.7    l50,0l41.8-41.6L1040.8,128.2z M534.8,96.3l0.5-17.8l51.1,0l0.4-5.9l0.8,23.8L534.8,96.3z"></path>
	</g>
	<g>
		<polygon fill="#A6A9AA" points="93.6,30.6 86.8,54.3 117,54.3 123.3,30.9 137.1,30.9 143,8.1 182.8,8.1 154.7,128.7 111.8,128.7     124.7,77.5 109.2,77.5 102.5,102.4 74.7,102.4 81.6,77.5 66,77.5 50.8,128.7 8.7,128.7 47.4,8.2 86.4,8.2 80,30.1   "></polygon>
		<polygon fill="#A6A9AA" points="237.7,8.3 214,129 171.1,129 197.9,8.4   "></polygon>
		<polygon fill="#A6A9AA" points="295.7,89.8 299.3,64.9 283.7,64.6 273.5,128.7 230.5,128.7 253,8 292.8,8 289.3,30.3 303,30.7     299.7,54 315.1,54.2 321.6,8 361.5,7.9 347.5,128.6 304.5,128.6 309.9,90.2   "></polygon>
		<polygon fill="#A6A9AA" points="467.5,103.7 466.4,128.6 364,128.6 376.7,7.9 471.7,7.8 470.8,29.2 414.9,29.2 413.1,53.9     469.7,54 468.7,77.3 411,77.4 409.1,103.5   "></polygon>
		<path fill="#A6A9AA" d="M1024.9,7.3l6.8,21.4l-27.7,0l0.2,0.7c1.1,4.7,2.4,9.5,3.7,14.3c1.3,4.9,2.8,9.8,4.2,14.9    c1.5,5,3,10.2,4.6,15.3c1.6,5.2,3.2,10.3,4.7,15.5c1,3.2,1.9,6.3,2.9,9.5c1,3.2,2,6.5,3,9.7c1,3.3,2,6.6,3,9.9    c1,3.3,1.9,6.6,2.9,9.9l-43.3,0l-27.2-99.7l-27.8,0l-5.5-21.4L1024.9,7.3z"></path>
		<polygon fill="#A6A9AA" points="925.2,53.1 931.1,77.1 873.2,77.1 883.9,128.4 840.7,128.5 818.6,7.5 914,7.4 919.3,28.8     863.1,28.8 868.2,53.1   "></polygon>
		<path fill="#A6A9AA" d="M759.1,89.5l5.3,39l-43.2,0L707.9,7.6l95.3-0.1l20.9,121l-43.2,0l-5.6-39L759.1,89.5z M787.1,42l-2.4-15.4    l-18.9,0l1.7,14.1l-14.8-0.1l-1.9-13.9l-18.3,0l1.9,15.3l16.8,0l0.8,5.6l-8.4,0l3.1,23.7l10.1,0l-0.8-8l15-0.1l1.3,8.1l10.3,0    l-3.6-23.5l-8.4,0l-0.7-5.7L787.1,42"></path>
		<path fill="#A6A9AA" d="M684.2,65.9l14.2,0l6.3,62.6l-43.1,0l-3.9-51l-16-0.4l3.3,51.4l-43.1,0L597.4,7.7l95.2-0.1l4.5,44.8    l-14.2,0L684.2,65.9z M656.1,53.9L654.2,29l-15.5,0l1.6,24.9L656.1,53.9"></path>
		<polygon fill="#A6A9AA" points="527.5,29.1 582.7,29.1 582.1,7.7 487,7.8 482.9,128.6 585.5,128.6 584.8,103.7 526.2,103.7   "></polygon>
	</g>
	<g>
		<path fill="#333333" d="M14.3,128.7c-3.1,0-3.8,1.8-1.6,3.9l30.5,29.3c2.2,2.1,6.6,3.9,9.7,3.9h26.9c3.1,0,3.9-1.9,1.8-4.1    l-27-28.8c-2.1-2.3-6.4-4.1-9.5-4.1L14.3,128.7z"></path>
		<path fill="#333333" d="M117.5,128.7c-3.1,0-4,1.9-2,4.3l23.8,28.4c2,2.4,6.1,4.3,9.2,4.3h28.2c3.1,0,4.1-2,2.3-4.5l-20.9-28.1    c-1.9-2.5-5.9-4.5-9-4.5L117.5,128.7z"></path>
		<path fill="#333333" d="M80.3,102.4c-3.1,0-4,1.9-1.9,4.2l26.5,29.9c2.1,2.3,5.8,4.1,8.3,4c2.5-0.1,3.1-2.3,1.4-4.8l-1.8-2.6    c-1.8-2.5-2.6-7-1.7-10l0.5-1.9c0.8-3-0.1-7.4-2-9.8l-3.6-4.5c-1.9-2.4-6-4.4-9.1-4.4L80.3,102.4z"></path>
		<path fill="#333333" d="M176.7,129c-3.1,0-4.1,2-2.3,4.5l20.4,27.7c1.8,2.5,5.9,4.5,9,4.5h27.8c3.1,0,4.3-2.1,2.6-4.8L217,133.7    c-1.6-2.6-5.5-4.8-8.6-4.8L176.7,129z"></path>
		<path fill="#333333" d="M236.1,128.7c-3.1,0-4.3,2.2-2.7,4.8l16.5,27.1c1.6,2.6,5.5,4.8,8.6,4.8h27.3c3.1,0,4.5-2.3,3.1-5.1    l-13-26.6c-1.4-2.8-5-5.1-8.1-5.1L236.1,128.7z"></path>
		<path fill="#333333" d="M310.1,128.6c-3.1,0-4.6,2.3-3.3,5.1l12.4,26.9c1.3,2.8,4.9,5.1,8,5.1h28.2c3.1,0,4.8-2.4,3.7-5.3    l-9.7-26.6c-1.1-2.9-4.5-5.3-7.6-5.3L310.1,128.6z"></path>
		<path fill="#333333" d="M369.6,128.6c-3.1,0-4.8,2.4-3.7,5.3l9.2,25.7c1,2.9,4.4,5.3,7.5,5.3h83.4c3.1,0,5.3-2.5,4.8-5.6    l-3.6-25.2c-0.4-3.1-3.3-5.6-6.4-5.6L369.6,128.6z"></path>
		<path fill="#333333" d="M488.5,128.6c-3.1,0-5.4,2.5-5,5.6l2.8,26c0.3,3.1,3.1,5.6,6.2,5.6h83c3.1,0,5.9-2.5,6.3-5.6l3.1-26    c0.4-3.1-1.9-5.6-5-5.6L488.5,128.6z"></path>
		<path fill="#333333" d="M607.7,128.5c-3.1,0-5.9,2.5-6.3,5.6l-3.2,25.6c-0.4,3.1,1.8,5.6,4.9,5.6h27.8c3.1,0,6.2-2.5,6.9-5.5    l6.2-25.9c0.7-3-1.2-5.5-4.3-5.5L607.7,128.5z"></path>
		<path fill="#333333" d="M667.3,128.5c-3.1,0-6.2,2.5-6.9,5.5l-6,25.4c-0.7,3,1.2,5.5,4.3,5.5h27.8c3.1,0,6.5-2.4,7.5-5.3l9-25.8    c1-2.9-0.7-5.3-3.8-5.3L667.3,128.5z"></path>
		<path fill="#333333" d="M726.9,128.5c-3.1,0-6.5,2.4-7.5,5.3l-9.3,26.2c-1,2.9,0.7,5.3,3.7,5.3h27.7c3.1,0,6.7-2.3,8-5.1    l12.4-26.7c1.3-2.8-0.1-5.1-3.2-5.1L726.9,128.5z"></path>
		<path fill="#333333" d="M786.6,128.5c-3.1,0-6.7,2.3-8.1,5.1l-13,26.7c-1.4,2.8,0.1,5.1,3.2,5.1h28.6c3.1,0,6.9-2.2,8.4-4.9    l15.6-27.1c1.6-2.7,0.3-4.9-2.8-4.9H786.6z"></path>
		<path fill="#333333" d="M846.3,128.5c-3.1,0-7,2.2-8.6,4.8l-16.6,27.3c-1.6,2.6-0.4,4.8,2.7,4.8h28.2c3.1,0,7.1-2.1,8.9-4.6    l19.7-27.7c1.8-2.5,0.7-4.6-2.4-4.6L846.3,128.5z"></path>
		<path fill="#333333" d="M995.5,128.4c-3.1,0-7.3,1.9-9.4,4.2l-24.8,28.1c-2.1,2.3-1.2,4.2,1.9,4.2h26.9c3.1,0,7.4-1.8,9.7-3.9    l29.4-28.7c2.2-2.2,1.5-3.9-1.6-3.9L995.5,128.4z"></path>
	</g>
	<g>
		<path fill="#E6E6E6" d="M14,128.1c-3.6,0-5.9,0.4-5.2,0.9c0.7,0.5,4.2,0.9,7.8,0.9H43c3.6,0,7.1-0.5,7.8-1s-1.7-1-5.2-1L14,128.1z    "></path>
		<path fill="#E6E6E6" d="M78.1,101.7c-2.4,0-3.9,0.4-3.5,0.9c0.5,0.5,2.8,0.9,5.2,0.9h17.6c2.4,0,4.7-0.5,5.2-1    c0.5-0.6-1.1-1-3.5-1L78.1,101.7z"></path>
		<path fill="#E6E6E6" d="M111.1,76.8c-1.3,0-2.2,0.4-1.9,0.9c0.3,0.5,1.6,0.9,2.9,0.9h9.8c1.3,0,2.6-0.5,2.9-1c0.3-0.6-0.6-1-1.9-1    L111.1,76.8z"></path>
		<path fill="#E6E6E6" d="M67.7,76.8c-1.3,0-2.2,0.4-1.9,0.9c0.3,0.5,1.6,0.9,2.9,0.9h9.8c1.3,0,2.6-0.5,2.9-1c0.3-0.6-0.6-1-1.9-1    L67.7,76.8z"></path>
		<path fill="#E6E6E6" d="M285.7,63.2c-1.3,0-2.2,0.4-1.9,0.9c0.3,0.5,1.6,0.9,2.9,0.9h9.8c1.3,0,2.6-0.5,2.9-1c0.3-0.6-0.6-1-1.9-1    L285.7,63.2z"></path>
		<path fill="#E6E6E6" d="M640.5,28.3c-1.3,0-2.2,0.4-1.9,0.9c0.3,0.5,1.6,0.9,2.9,0.9h9.8c1.3,0,2.6-0.5,2.9-1c0.3-0.6-0.6-1-1.9-1    L640.5,28.3z"></path>
		<path fill="#E6E6E6" d="M643.2,76.8c-1.3,0-2.2,0.4-1.9,0.9c0.3,0.5,1.6,0.9,2.9,0.9h9.8c1.3,0,2.6-0.5,2.9-1c0.3-0.6-0.6-1-1.9-1    L643.2,76.8z"></path>
		<path fill="#E6E6E6" d="M761.5,88.8c-1.3,0-2.2,0.4-1.9,0.9c0.3,0.5,1.6,0.9,2.9,0.9h9.8c1.3,0,2.6-0.5,2.9-1c0.3-0.6-0.6-1-1.9-1    L761.5,88.8z"></path>
		<path fill="#E6E6E6" d="M768.7,25.8c-1.6,0-2.6,0.4-2.3,0.9c0.3,0.5,1.8,0.9,3.4,0.9h11.5c1.5,0,3.1-0.5,3.4-1    c0.3-0.6-0.7-1-2.3-1L768.7,25.8z"></path>
		<path fill="#E6E6E6" d="M735.2,25.8c-1.6,0-2.6,0.4-2.3,0.9c0.3,0.5,1.8,0.9,3.4,0.9h11.5c1.5,0,3.1-0.5,3.4-1    c0.3-0.6-0.7-1-2.3-1L735.2,25.8z"></path>
		<path fill="#E6E6E6" d="M754.7,39.7c-1.3,0-2.1,0.4-1.8,0.9c0.2,0.5,1.5,0.9,2.8,0.9h9.4c1.3,0,2.5-0.5,2.7-1c0.2-0.6-0.6-1-1.9-1    L754.7,39.7z"></path>
		<path fill="#E6E6E6" d="M744.8,46.2c-0.7,0-1.2,0.4-1,0.9c0.1,0.5,0.8,0.9,1.5,0.9h5.2c0.7,0,1.4-0.5,1.5-1c0.1-0.6-0.3-1-1-1    L744.8,46.2z"></path>
		<path fill="#E6E6E6" d="M771.1,46.2c-0.7,0-1.2,0.4-1,0.9c0.1,0.5,0.8,0.9,1.5,0.9h5.2c0.7,0,1.4-0.5,1.5-1c0.1-0.6-0.3-1-1-1    L771.1,46.2z"></path>
		<path fill="#E6E6E6" d="M685.4,52.1c-1.2,0-1.9,0.4-1.7,0.9c0.2,0.5,1.4,0.9,2.5,0.9h8.6c1.2,0,2.3-0.5,2.5-1c0.2-0.6-0.5-1-1.7-1    L685.4,52.1z"></path>
		<path fill="#E6E6E6" d="M297.6,89.8c-1.1,0-1.8,0.4-1.6,0.9c0.2,0.5,1.3,0.9,2.4,0.9h8c1.1,0,2.1-0.5,2.4-1c0.2-0.6-0.5-1-1.6-1    L297.6,89.8z"></path>
		<path fill="#E6E6E6" d="M117,128.1c-3.6,0-5.9,0.4-5.2,0.9c0.7,0.5,4.2,0.9,7.8,0.9H146c3.6,0,7.1-0.5,7.8-1c0.7-0.6-1.7-1-5.2-1    L117,128.1z"></path>
		<path fill="#E6E6E6" d="M176.4,128.1c-3.6,0-5.9,0.4-5.2,0.9c0.7,0.5,4.2,0.9,7.8,0.9h26.5c3.6,0,7.1-0.5,7.8-1s-1.7-1-5.2-1    L176.4,128.1z"></path>
		<path fill="#E6E6E6" d="M235.8,128.1c-3.6,0-5.9,0.4-5.2,0.9c0.7,0.5,4.2,0.9,7.8,0.9h26.5c3.6,0,7.1-0.5,7.8-1    c0.7-0.6-1.7-1-5.2-1L235.8,128.1z"></path>
		<path fill="#E6E6E6" d="M310.8,128.1c-3.6,0-5.9,0.4-5.2,0.9c0.7,0.5,4.2,0.9,7.8,0.9h26.5c3.6,0,7.1-0.5,7.8-1s-1.7-1-5.2-1    L310.8,128.1z"></path>
		<path fill="#E6E6E6" d="M417.8,75.8c-4.9,0-8.2,0.4-7.2,0.9c1,0.5,5.8,0.9,10.7,0.9h36.6c4.9,0,9.8-0.5,10.7-1c1-0.6-2.3-1-7.2-1    L417.8,75.8z"></path>
		<path fill="#E6E6E6" d="M423.3,28.3c-4.6,0-7.7,0.4-6.7,0.9c0.9,0.5,5.4,0.9,10,0.9h34.2c4.6,0,9.1-0.5,10-1c0.9-0.6-2.2-1-6.8-1    L423.3,28.3z"></path>
		<path fill="#E6E6E6" d="M534.8,28.3c-4.6,0-7.7,0.4-6.7,0.9c0.9,0.5,5.4,0.9,10,0.9h34.2c4.6,0,9.1-0.5,10-1c0.9-0.6-2.2-1-6.8-1    L534.8,28.3z"></path>
		<path fill="#E6E6E6" d="M938.3,28.3c-2.3,0-3.9,0.4-3.4,0.9c0.5,0.5,2.7,0.9,5.1,0.9h17.2c2.3,0,4.6-0.5,5-1c0.5-0.6-1.1-1-3.4-1    L938.3,28.3z"></path>
		<path fill="#E6E6E6" d="M1007.1,28.3c-2.3,0-3.9,0.4-3.4,0.9c0.5,0.5,2.7,0.9,5.1,0.9h17.2c2.3,0,4.6-0.5,5-1c0.5-0.6-1.1-1-3.4-1    L1007.1,28.3z"></path>
		<path fill="#E6E6E6" d="M870.8,28.3c-4.6,0-7.7,0.4-6.7,0.9c0.9,0.5,5.4,0.9,10,0.9h34.2c4.6,0,9.1-0.5,10-1c0.9-0.6-2.2-1-6.8-1    L870.8,28.3z"></path>
		<path fill="#E6E6E6" d="M881.8,76.8c-4.6,0-7.7,0.4-6.7,0.9c0.9,0.5,5.4,0.9,10,0.9h34.2c4.6,0,9.1-0.5,10-1c0.9-0.6-2.2-1-6.8-1    L881.8,76.8z"></path>
		<path fill="#E6E6E6" d="M608.4,128.1c-3.6,0-5.9,0.4-5.2,0.9c0.7,0.5,4.2,0.9,7.8,0.9h26.5c3.6,0,7.1-0.5,7.8-1    c0.7-0.6-1.7-1-5.2-1L608.4,128.1z"></path>
		<path fill="#E6E6E6" d="M667.3,128.1c-3.6,0-5.9,0.4-5.2,0.9c0.7,0.5,4.2,0.9,7.8,0.9h26.5c3.6,0,7.1-0.5,7.8-1    c0.7-0.6-1.7-1-5.2-1L667.3,128.1z"></path>
		<path fill="#E6E6E6" d="M726.2,128.1c-3.6,0-5.9,0.4-5.2,0.9c0.7,0.5,4.2,0.9,7.8,0.9h26.5c3.6,0,7.1-0.5,7.8-1    c0.7-0.6-1.7-1-5.2-1L726.2,128.1z"></path>
		<path fill="#E6E6E6" d="M787,128.1c-3.6,0-5.9,0.4-5.2,0.9c0.7,0.5,4.2,0.9,7.8,0.9h26.5c3.6,0,7.1-0.5,7.8-1c0.7-0.6-1.7-1-5.2-1    L787,128.1z"></path>
		<path fill="#E6E6E6" d="M846.7,128.1c-3.6,0-5.9,0.4-5.2,0.9c0.7,0.5,4.2,0.9,7.8,0.9h26.5c3.6,0,7.1-0.5,7.8-1    c0.7-0.6-1.7-1-5.2-1L846.7,128.1z"></path>
		<path fill="#E6E6E6" d="M996.1,128.1c-3.6,0-5.9,0.4-5.2,0.9c0.7,0.5,4.2,0.9,7.8,0.9h26.5c3.6,0,7.1-0.5,7.8-1    c0.7-0.6-1.7-1-5.2-1L996.1,128.1z"></path>
		<path fill="#E6E6E6" d="M377,128.1c-8.7,0-14.4,0.4-12.7,0.9c1.7,0.5,10.2,0.9,18.9,0.9h64.5c8.7,0,17.2-0.5,18.9-1s-4.1-1-12.8-1    L377,128.1z"></path>
		<path fill="#E6E6E6" d="M495.8,128.1c-8.7,0-14.4,0.4-12.7,0.9c1.7,0.5,10.2,0.9,18.9,0.9h64.5c8.7,0,17.2-0.5,18.9-1    s-4.1-1-12.8-1L495.8,128.1z"></path>
	</g>
</g>
<g>
	<path d="M815.6,252.2c0,0,2.2,0,3.3-1.6l0,0l16.3-27.2l-11-12.8H528.7h-16.2H213.7l-9.2,12.4l15.7,27.6v0c1.2,1.6,3.3,1.6,3.3,1.6"></path>
	<path d="M831.2,225.2l0-0.1c6.8,0,4.7-6.8,4.4-9.6l-17.8-77.3H222.2l-17.8,77.3c-0.3,2.8-2.5,9.5,4.4,9.5l0,0.2H831.2z"></path>
	<path fill="#1F434D" d="M812,245c0,0,2.2,0,3.3-1.6l0,0l13-25.7l-616.8,0l12.1,25.8v0c1.2,1.6,3.3,1.6,3.3,1.6"></path>
	<path fill="#4CA1CC" d="M824,219.2l0,0.2c6.8,0,4.7-6.3,4.4-9.1l-16-66.1H227.6l-16,66.2c-0.3,2.8-2.5,9,4.4,9l0-0.2H824z"></path>
	<path fill="#78CDEF" d="M218.7,218c-2.8,0.1-4.9,0.6-4.7,1.1c0.2,0.6,2.7,1,5.5,1l599.9,0c2.8,0,5.3-0.5,5.5-1.2   c0.2-0.7-1.9-1.1-4.7-1.1L218.7,218z"></path>
</g>
<g>
	<g>
		<g>
			<g enable-background="new    ">
				<defs>
					<polygon id="SVGID_1_" enable-background="new    " points="247.9,199.8 254.9,166.3 788,166.3 795,199.8      "></polygon>
				</defs>
				<clipPath id="SVGID_2_">
					<use xlink:href="#SVGID_1_" overflow="visible"></use>
				</clipPath>
				<g clip-path="url(#SVGID_2_)">
					<g>
						<g>
							<g>
								<path fill="#231F20" d="M281.5,166.3h-24.9c-0.3,0-0.5,0-0.8,0.1c-0.2,0.1-0.4,0.1-0.6,0.3c-0.2,0.1-0.3,0.3-0.4,0.5          c-0.1,0.2-0.2,0.4-0.2,0.6l-6.4,30.6c-0.1,0.3-0.1,0.5,0,0.7c0,0.2,0.1,0.3,0.2,0.5c0.1,0.1,0.3,0.2,0.5,0.3          c0.2,0.1,0.5,0.1,0.7,0.1h25.5c0.3,0,0.6,0,0.8-0.1c0.2-0.1,0.4-0.2,0.6-0.3c0.2-0.1,0.3-0.3,0.4-0.5          c0.1-0.2,0.2-0.4,0.2-0.7l0.9-4.8c0-0.3,0.1-0.5,0-0.7c0-0.2-0.1-0.3-0.2-0.5c-0.1-0.1-0.3-0.2-0.5-0.3s-0.5-0.1-0.7-0.1          h-16.1c-0.1,0-0.2,0-0.2,0c-0.1,0-0.1,0-0.2-0.1c0,0-0.1-0.1-0.1-0.1c0-0.1,0-0.1,0-0.2l0.9-4.7c0-0.1,0-0.2,0.1-0.2          s0.1-0.1,0.1-0.1c0.1,0,0.1-0.1,0.2-0.1c0.1,0,0.2,0,0.3,0h13.5c0.3,0,0.6,0,0.8-0.1c0.2-0.1,0.4-0.2,0.6-0.3          c0.2-0.1,0.3-0.3,0.4-0.5c0.1-0.2,0.2-0.4,0.2-0.7l0.9-4.5c0-0.3,0.1-0.5,0-0.7c0-0.2-0.1-0.3-0.2-0.5          c-0.1-0.1-0.3-0.2-0.5-0.3s-0.5-0.1-0.7-0.1h-13.5c-0.1,0-0.2,0-0.2,0c-0.1,0-0.1,0-0.2-0.1c0,0-0.1-0.1-0.1-0.1          c0-0.1,0-0.1,0-0.2l0.8-4c0-0.1,0-0.2,0.1-0.2c0-0.1,0.1-0.1,0.1-0.1c0.1,0,0.1-0.1,0.2-0.1s0.2,0,0.3,0h15.8          c0.3,0,0.5,0,0.8-0.1c0.2-0.1,0.4-0.2,0.6-0.3c0.2-0.1,0.3-0.3,0.4-0.5c0.1-0.2,0.2-0.4,0.2-0.6l0.9-4.6          c0-0.2,0.1-0.5,0-0.6c0-0.2-0.1-0.3-0.2-0.5c-0.1-0.1-0.3-0.2-0.5-0.3C282,166.3,281.8,166.3,281.5,166.3"></path>
								<path fill="#231F20" d="M295.6,192.1c-0.1,0-0.2,0-0.2,0c-0.1,0-0.1,0-0.2-0.1c0,0-0.1-0.1-0.1-0.2s0-0.1,0-0.2l3-17.4          c0-0.1,0-0.2,0.1-0.2c0-0.1,0.1-0.1,0.1-0.1s0.1-0.1,0.2-0.1c0.1,0,0.2,0,0.3,0h7.4c0.3,0,0.5,0,0.7,0s0.4,0.1,0.6,0.1          c0.2,0.1,0.3,0.1,0.5,0.2c0.2,0.1,0.3,0.2,0.5,0.4l1,1c0.2,0.2,0.3,0.3,0.4,0.4c0.1,0.1,0.2,0.3,0.2,0.4          c0,0.2,0.1,0.3,0.1,0.5c0,0.2,0,0.4-0.1,0.6l-1.8,10.6c0,0.2-0.1,0.5-0.2,0.6c-0.1,0.2-0.1,0.4-0.2,0.5          c-0.1,0.2-0.2,0.3-0.4,0.4c-0.1,0.1-0.3,0.3-0.5,0.4l-1.3,1c-0.2,0.2-0.4,0.3-0.6,0.4c-0.2,0.1-0.4,0.2-0.6,0.3          s-0.4,0.1-0.6,0.1c-0.2,0-0.5,0-0.7,0H295.6 M310.5,166.3h-19.6c-0.3,0-0.5,0-0.8,0.1c-0.2,0.1-0.4,0.1-0.6,0.3          c-0.2,0.1-0.3,0.3-0.4,0.5c-0.1,0.2-0.2,0.4-0.2,0.6l-5.6,30.6c0,0.3-0.1,0.5,0,0.7c0,0.2,0.1,0.3,0.2,0.5          c0.1,0.1,0.3,0.2,0.5,0.3c0.2,0.1,0.5,0.1,0.8,0.1H305c0.7,0,1.3,0,1.8-0.1c0.5-0.1,1-0.2,1.5-0.4c0.5-0.2,0.9-0.4,1.4-0.7          c0.5-0.3,0.9-0.6,1.5-1l4.1-3.2c0.5-0.4,0.9-0.7,1.3-1.1c0.4-0.4,0.6-0.7,0.9-1.1c0.2-0.4,0.4-0.8,0.6-1.2          c0.1-0.4,0.3-0.9,0.3-1.5l2.1-13.3c0.1-0.5,0.1-1,0.1-1.4c0-0.4-0.1-0.8-0.2-1.2c-0.1-0.4-0.3-0.7-0.5-1.1          c-0.2-0.4-0.5-0.7-0.9-1.1l-3.1-3.1c-0.4-0.4-0.7-0.7-1.1-1c-0.4-0.3-0.7-0.5-1.2-0.6c-0.4-0.2-0.9-0.3-1.4-0.4          C311.8,166.3,311.2,166.3,310.5,166.3"></path>
								<path fill="#231F20" d="M357.3,166.3h-6.9c-0.3,0-0.5,0-0.8,0.1c-0.2,0.1-0.4,0.1-0.6,0.3c-0.2,0.1-0.3,0.3-0.4,0.5          c-0.1,0.2-0.2,0.4-0.2,0.6l-2.7,20.3c0,0.2-0.1,0.4-0.1,0.6c-0.1,0.2-0.1,0.4-0.2,0.5c-0.1,0.2-0.2,0.3-0.3,0.4          c-0.1,0.1-0.3,0.3-0.5,0.4l-1.3,1c-0.2,0.2-0.4,0.3-0.6,0.4c-0.2,0.1-0.4,0.2-0.6,0.3c-0.2,0.1-0.4,0.1-0.6,0.1          c-0.2,0-0.5,0-0.7,0h-2.4c-0.3,0-0.5,0-0.7,0c-0.2,0-0.4-0.1-0.6-0.1c-0.2-0.1-0.3-0.1-0.5-0.3c-0.2-0.1-0.3-0.2-0.5-0.4          l-1-1c-0.2-0.2-0.3-0.3-0.4-0.4c-0.1-0.1-0.2-0.3-0.2-0.4c-0.1-0.2-0.1-0.3-0.1-0.5c0-0.2,0-0.4,0-0.6l2.9-20.3          c0-0.2,0-0.5,0-0.6c0-0.2-0.1-0.3-0.2-0.5c-0.1-0.1-0.3-0.2-0.5-0.3c-0.2-0.1-0.5-0.1-0.7-0.1h-6.9c-0.3,0-0.5,0-0.8,0.1          c-0.2,0.1-0.4,0.1-0.6,0.3c-0.2,0.1-0.3,0.3-0.4,0.5c-0.1,0.2-0.2,0.4-0.2,0.6l-3.3,21.8c-0.1,0.5-0.1,1-0.1,1.5          c0,0.4,0.1,0.9,0.2,1.2c0.1,0.4,0.3,0.8,0.5,1.1c0.2,0.4,0.5,0.7,0.9,1.1l3.2,3.2c0.4,0.4,0.8,0.7,1.1,1          c0.4,0.3,0.8,0.5,1.2,0.7c0.4,0.2,0.9,0.3,1.4,0.4c0.5,0.1,1.1,0.1,1.8,0.1h8.9c0.7,0,1.3,0,1.8-0.1c0.5-0.1,1-0.2,1.5-0.4          c0.5-0.2,0.9-0.4,1.4-0.7c0.5-0.3,0.9-0.6,1.4-1l4-3.2c0.5-0.4,0.9-0.7,1.2-1.1c0.3-0.4,0.6-0.7,0.8-1.1          c0.2-0.4,0.4-0.8,0.5-1.2c0.1-0.4,0.2-0.9,0.3-1.5l2.8-21.8c0-0.2,0-0.5,0-0.6c0-0.2-0.1-0.3-0.3-0.5          c-0.1-0.1-0.3-0.2-0.5-0.3C357.8,166.3,357.6,166.3,357.3,166.3"></path>
								<path fill="#231F20" d="M389.9,166.3h-14.1c-0.7,0-1.2,0-1.8,0.1c-0.5,0.1-1,0.2-1.5,0.4c-0.5,0.2-0.9,0.4-1.3,0.6          c-0.4,0.3-0.9,0.6-1.4,1l-3.9,3.1c-0.5,0.4-0.9,0.7-1.2,1.1c-0.3,0.4-0.6,0.7-0.8,1.1c-0.2,0.4-0.4,0.8-0.5,1.2          c-0.1,0.4-0.2,0.9-0.3,1.4l-1.6,13.3c-0.1,0.5-0.1,1-0.1,1.5c0,0.4,0.1,0.9,0.2,1.2c0.1,0.4,0.3,0.8,0.6,1.1          c0.3,0.4,0.6,0.7,1,1.1l3.3,3.2c0.4,0.4,0.8,0.7,1.2,1c0.4,0.3,0.8,0.5,1.2,0.7c0.4,0.2,0.9,0.3,1.4,0.4          c0.5,0.1,1.1,0.1,1.8,0.1h14.5c0.3,0,0.6,0,0.8-0.1c0.2-0.1,0.4-0.2,0.6-0.3c0.2-0.1,0.3-0.3,0.4-0.5          c0.1-0.2,0.1-0.4,0.2-0.7l0.5-4.8c0-0.3,0-0.5,0-0.7c-0.1-0.2-0.1-0.3-0.3-0.5c-0.1-0.1-0.3-0.2-0.5-0.3          c-0.2-0.1-0.5-0.1-0.8-0.1H376c-0.3,0-0.5,0-0.7,0c-0.2,0-0.4-0.1-0.6-0.2c-0.2-0.1-0.3-0.2-0.5-0.3          c-0.2-0.1-0.3-0.2-0.5-0.4l-0.9-0.9c-0.2-0.2-0.3-0.3-0.4-0.4c-0.1-0.1-0.2-0.3-0.2-0.4c-0.1-0.2-0.1-0.3-0.1-0.5          c0-0.2,0-0.4,0-0.6l1.2-10.6c0-0.2,0.1-0.4,0.1-0.6c0.1-0.2,0.1-0.3,0.2-0.5c0.1-0.2,0.2-0.3,0.3-0.4          c0.1-0.1,0.3-0.3,0.5-0.4l1.1-0.8c0.2-0.2,0.4-0.3,0.6-0.4c0.2-0.1,0.4-0.2,0.5-0.3s0.4-0.1,0.6-0.1c0.2,0,0.4,0,0.7,0h11.2          c0.3,0,0.5,0,0.8-0.1c0.2-0.1,0.4-0.2,0.6-0.3c0.2-0.1,0.3-0.3,0.4-0.5c0.1-0.2,0.1-0.4,0.2-0.6l0.5-4.6c0-0.2,0-0.5,0-0.6          c-0.1-0.2-0.1-0.3-0.3-0.5c-0.1-0.1-0.3-0.2-0.5-0.3C390.5,166.3,390.2,166.3,389.9,166.3"></path>
								<path fill="#231F20" d="M407.3,185.1c-0.1,0-0.2,0-0.2,0s-0.1-0.1-0.1-0.1c0,0,0-0.1,0-0.1s0-0.1,0-0.2l4.1-11.1          c0,0,0-0.1,0.1-0.1c0,0,0.1-0.1,0.1-0.1c0,0,0.1,0,0.1,0c0,0,0.1,0,0.1,0s0.1,0,0.1,0c0,0,0.1,0,0.1,0c0,0,0.1,0,0.1,0.1          c0,0,0,0.1,0,0.1l2.2,11.1c0,0.1,0,0.1,0,0.2s0,0.1-0.1,0.1c0,0-0.1,0.1-0.1,0.1s-0.1,0-0.2,0H407.3 M417.5,166.3h-10.9          c-0.5,0-0.9,0-1.3,0.1c-0.4,0.1-0.6,0.2-0.9,0.3c-0.2,0.1-0.4,0.3-0.6,0.6c-0.2,0.2-0.3,0.5-0.5,0.9l-12,29.9          c-0.1,0.3-0.1,0.5-0.1,0.7c0,0.2,0,0.4,0.2,0.6c0.1,0.2,0.3,0.3,0.5,0.4c0.2,0.1,0.5,0.1,0.9,0.1h7c0.3,0,0.6,0,0.8-0.1          s0.4-0.2,0.6-0.3c0.2-0.1,0.3-0.3,0.5-0.5c0.1-0.2,0.3-0.5,0.4-0.9l1.9-5.1c0-0.1,0.1-0.2,0.1-0.2c0-0.1,0.1-0.1,0.1-0.1          c0.1,0,0.1-0.1,0.2-0.1s0.2,0,0.3,0h10.2c0.1,0,0.2,0,0.3,0s0.1,0,0.2,0.1c0,0,0.1,0.1,0.1,0.1c0,0.1,0.1,0.1,0.1,0.2l1,5.1          c0.1,0.3,0.2,0.6,0.3,0.9c0.1,0.2,0.2,0.4,0.4,0.5c0.2,0.1,0.3,0.2,0.6,0.3s0.5,0.1,0.8,0.1h7c0.4,0,0.6,0,0.9-0.1          c0.2-0.1,0.4-0.2,0.5-0.4c0.1-0.2,0.2-0.3,0.2-0.6c0-0.2,0-0.5,0-0.7l-6.8-29.9c-0.1-0.4-0.2-0.6-0.3-0.9          c-0.1-0.2-0.3-0.4-0.5-0.6c-0.2-0.1-0.5-0.2-0.8-0.3C418.4,166.3,417.9,166.3,417.5,166.3"></path>
								<path fill="#231F20" d="M461.7,166.3h-28.2c-0.3,0-0.5,0-0.8,0.1c-0.2,0.1-0.4,0.1-0.5,0.3c-0.1,0.1-0.3,0.3-0.3,0.5          c-0.1,0.2-0.1,0.4-0.1,0.6l-0.3,4.6c0,0.2,0,0.5,0.1,0.6c0.1,0.2,0.2,0.3,0.3,0.5c0.1,0.1,0.3,0.2,0.5,0.3          c0.2,0.1,0.5,0.1,0.8,0.1h8.5c0.1,0,0.2,0,0.2,0c0.1,0,0.1,0,0.2,0.1c0,0,0.1,0.1,0.1,0.1c0,0.1,0,0.1,0,0.2l-1.5,24          c0,0.3,0,0.5,0.1,0.7c0.1,0.2,0.2,0.3,0.3,0.5c0.1,0.1,0.3,0.2,0.5,0.3s0.5,0.1,0.8,0.1h7.1c0.3,0,0.6,0,0.8-0.1          s0.4-0.2,0.6-0.3c0.2-0.1,0.3-0.3,0.3-0.5c0.1-0.2,0.1-0.4,0.1-0.7l1.3-24c0-0.1,0-0.2,0-0.2c0-0.1,0.1-0.1,0.1-0.1          c0,0,0.1-0.1,0.2-0.1c0.1,0,0.2,0,0.3,0h8.5c0.3,0,0.5,0,0.8-0.1c0.2-0.1,0.4-0.2,0.5-0.3c0.1-0.1,0.3-0.3,0.3-0.5          c0.1-0.2,0.1-0.4,0.1-0.6l0.2-4.6c0-0.2,0-0.5-0.1-0.6c-0.1-0.2-0.2-0.3-0.3-0.5c-0.1-0.1-0.3-0.2-0.5-0.3          C462.2,166.3,461.9,166.3,461.7,166.3"></path>
								<path fill="#231F20" d="M477.1,166.3h-6.9c-0.3,0-0.5,0-0.8,0.1c-0.2,0.1-0.4,0.1-0.5,0.3c-0.1,0.1-0.3,0.3-0.3,0.5          c-0.1,0.2-0.1,0.4-0.1,0.6l-1.3,30.6c0,0.3,0,0.5,0.1,0.7c0.1,0.2,0.2,0.3,0.3,0.5c0.1,0.1,0.3,0.2,0.5,0.3          c0.2,0.1,0.5,0.1,0.8,0.1h7.1c0.3,0,0.6,0,0.8-0.1c0.2-0.1,0.4-0.2,0.5-0.3c0.1-0.1,0.3-0.3,0.3-0.5          c0.1-0.2,0.1-0.4,0.1-0.7l1-30.6c0-0.2,0-0.5-0.1-0.6c-0.1-0.2-0.2-0.3-0.3-0.5c-0.1-0.1-0.3-0.2-0.5-0.3          C477.7,166.3,477.4,166.3,477.1,166.3"></path>
								<path fill="#231F20" d="M499.2,192.1c-0.3,0-0.5,0-0.7,0c-0.2,0-0.4-0.1-0.6-0.1c-0.2-0.1-0.3-0.1-0.5-0.3          c-0.2-0.1-0.3-0.2-0.5-0.4l-1.1-1c-0.2-0.2-0.3-0.3-0.4-0.4c-0.1-0.1-0.2-0.3-0.3-0.4c-0.1-0.2-0.1-0.3-0.1-0.5          c0-0.2,0-0.4,0-0.6l0.2-10.6c0-0.2,0-0.4,0.1-0.6c0-0.2,0.1-0.3,0.2-0.5c0.1-0.2,0.2-0.3,0.3-0.4c0.1-0.1,0.3-0.3,0.5-0.4          l1.2-1c0.2-0.2,0.4-0.3,0.5-0.4c0.2-0.1,0.3-0.2,0.5-0.2c0.2-0.1,0.4-0.1,0.6-0.1c0.2,0,0.4,0,0.7,0h4.4c0.3,0,0.5,0,0.7,0          c0.2,0,0.4,0.1,0.6,0.1c0.2,0.1,0.3,0.1,0.5,0.2c0.2,0.1,0.3,0.2,0.5,0.4l1.2,1c0.2,0.2,0.3,0.3,0.4,0.4          c0.1,0.1,0.2,0.3,0.3,0.4c0.1,0.2,0.1,0.3,0.1,0.5c0,0.2,0,0.4,0,0.6l-0.1,10.6c0,0.2,0,0.5-0.1,0.6c0,0.2-0.1,0.4-0.2,0.5          c-0.1,0.2-0.2,0.3-0.3,0.4c-0.1,0.1-0.3,0.3-0.5,0.4l-1.2,1c-0.2,0.2-0.4,0.3-0.5,0.4c-0.2,0.1-0.3,0.2-0.5,0.3          s-0.4,0.1-0.6,0.1s-0.4,0-0.7,0H499.2 M507.2,166.3h-10.7c-0.7,0-1.2,0-1.8,0.1c-0.5,0.1-1,0.2-1.4,0.4          c-0.4,0.2-0.9,0.4-1.3,0.6c-0.4,0.3-0.8,0.6-1.3,1l-3.6,3.1c-0.4,0.4-0.8,0.7-1.1,1.1c-0.3,0.4-0.5,0.7-0.7,1.1          c-0.2,0.4-0.3,0.8-0.4,1.2c-0.1,0.4-0.1,0.9-0.2,1.4l-0.4,13.3c0,0.5,0,1,0.1,1.5c0.1,0.4,0.2,0.9,0.3,1.2          c0.2,0.4,0.4,0.8,0.7,1.1c0.3,0.4,0.6,0.7,1.1,1.1l3.6,3.2c0.4,0.4,0.9,0.7,1.3,1c0.4,0.3,0.8,0.5,1.3,0.7          c0.4,0.2,0.9,0.3,1.5,0.4c0.5,0.1,1.1,0.1,1.8,0.1h11c0.7,0,1.3,0,1.8-0.1c0.5-0.1,1-0.2,1.5-0.4c0.4-0.2,0.9-0.4,1.3-0.7          c0.4-0.3,0.8-0.6,1.3-1l3.7-3.2c0.4-0.4,0.8-0.7,1.1-1.1c0.3-0.4,0.5-0.7,0.7-1.1c0.2-0.4,0.3-0.8,0.4-1.2          c0.1-0.4,0.1-0.9,0.1-1.5l0-13.3c0-0.5,0-1-0.1-1.4c-0.1-0.4-0.2-0.8-0.4-1.2c-0.2-0.4-0.4-0.7-0.7-1.1          c-0.3-0.4-0.6-0.7-1.1-1.1l-3.5-3.1c-0.4-0.4-0.8-0.7-1.2-1c-0.4-0.3-0.8-0.5-1.3-0.6c-0.4-0.2-0.9-0.3-1.4-0.4          C508.4,166.3,507.9,166.3,507.2,166.3"></path>
								<path fill="#231F20" d="M554.7,166.3h-6.6c-0.3,0-0.6,0-0.8,0.1c-0.2,0.1-0.4,0.1-0.5,0.3c-0.1,0.1-0.2,0.3-0.3,0.5          c-0.1,0.2-0.1,0.4-0.1,0.6l0.3,15.7c0,0,0,0.1,0,0.1c0,0,0,0.1-0.1,0.1c0,0-0.1,0-0.1,0.1c0,0-0.1,0-0.1,0c0,0-0.1,0-0.1,0          c0,0-0.1,0-0.1,0s-0.1,0-0.1-0.1s0,0-0.1-0.1l-10.5-15.9c-0.2-0.2-0.3-0.5-0.5-0.6c-0.2-0.2-0.4-0.3-0.6-0.4          c-0.2-0.1-0.4-0.2-0.7-0.2c-0.3-0.1-0.6-0.1-0.9-0.1h-6.7c-0.3,0-0.5,0-0.7,0.1c-0.2,0.1-0.4,0.1-0.5,0.3          c-0.1,0.1-0.2,0.3-0.3,0.5c-0.1,0.2-0.1,0.4-0.1,0.6l0.1,30.6c0,0.3,0,0.5,0.1,0.7c0.1,0.2,0.2,0.3,0.3,0.5          c0.1,0.1,0.3,0.2,0.5,0.3c0.2,0.1,0.5,0.1,0.8,0.1h6.7c0.3,0,0.6,0,0.8-0.1c0.2-0.1,0.4-0.2,0.5-0.3          c0.1-0.1,0.2-0.3,0.3-0.5c0.1-0.2,0.1-0.4,0.1-0.7l-0.2-16.1c0,0,0-0.1,0-0.1s0-0.1,0.1-0.1s0.1,0,0.1-0.1c0,0,0.1,0,0.1,0          c0,0,0.1,0,0.1,0c0,0,0.1,0,0.1,0c0,0,0.1,0,0.1,0.1c0,0,0,0,0.1,0.1l10.6,16.3c0.2,0.3,0.3,0.5,0.5,0.7          c0.2,0.2,0.4,0.3,0.6,0.4c0.2,0.1,0.5,0.2,0.7,0.2s0.6,0.1,0.9,0.1h6.8c0.3,0,0.5,0,0.8-0.1c0.2-0.1,0.4-0.2,0.5-0.3          c0.1-0.1,0.2-0.3,0.3-0.5c0.1-0.2,0.1-0.4,0.1-0.7l-0.8-30.6c0-0.2,0-0.5-0.1-0.6c-0.1-0.2-0.2-0.3-0.3-0.5          c-0.1-0.1-0.3-0.2-0.5-0.3C555.2,166.3,555,166.3,554.7,166.3"></path>
								<path fill="#231F20" d="M601.2,166.3h-24.9c-0.3,0-0.5,0-0.7,0.1c-0.2,0.1-0.4,0.1-0.5,0.3c-0.1,0.1-0.2,0.3-0.3,0.5          c-0.1,0.2-0.1,0.4-0.1,0.6l1.3,30.6c0,0.3,0.1,0.5,0.1,0.7c0.1,0.2,0.2,0.3,0.3,0.5c0.1,0.1,0.3,0.2,0.6,0.3          c0.2,0.1,0.5,0.1,0.8,0.1h25.5c0.3,0,0.5,0,0.8-0.1s0.4-0.2,0.5-0.3c0.1-0.1,0.2-0.3,0.3-0.5c0.1-0.2,0.1-0.4,0.1-0.7          l-0.3-4.8c0-0.3-0.1-0.5-0.1-0.7c-0.1-0.2-0.2-0.3-0.4-0.5c-0.2-0.1-0.3-0.2-0.6-0.3s-0.5-0.1-0.8-0.1h-16.1          c-0.1,0-0.2,0-0.3,0c-0.1,0-0.1,0-0.2-0.1c0,0-0.1-0.1-0.1-0.1c0-0.1,0-0.1,0-0.2l-0.2-4.7c0-0.1,0-0.2,0-0.2          c0-0.1,0-0.1,0.1-0.1c0,0,0.1-0.1,0.2-0.1c0.1,0,0.2,0,0.2,0H600c0.3,0,0.5,0,0.8-0.1c0.2-0.1,0.4-0.2,0.5-0.3          c0.1-0.1,0.2-0.3,0.3-0.5c0.1-0.2,0.1-0.4,0.1-0.7l-0.3-4.5c0-0.3-0.1-0.5-0.1-0.7c-0.1-0.2-0.2-0.3-0.3-0.5          c-0.1-0.1-0.3-0.2-0.5-0.3c-0.2-0.1-0.5-0.1-0.8-0.1h-13.5c-0.1,0-0.2,0-0.2,0c-0.1,0-0.1,0-0.2-0.1c0,0-0.1-0.1-0.1-0.1          c0-0.1,0-0.1,0-0.2l-0.2-4c0-0.1,0-0.2,0-0.2c0-0.1,0-0.1,0.1-0.1c0,0,0.1-0.1,0.2-0.1s0.1,0,0.2,0h15.8          c0.3,0,0.5,0,0.7-0.1c0.2-0.1,0.4-0.2,0.5-0.3c0.1-0.1,0.2-0.3,0.3-0.5c0.1-0.2,0.1-0.4,0.1-0.6l-0.3-4.6          c0-0.2-0.1-0.5-0.1-0.6c-0.1-0.2-0.2-0.3-0.3-0.5c-0.1-0.1-0.3-0.2-0.5-0.3C601.7,166.3,601.5,166.3,601.2,166.3"></path>
								<path fill="#231F20" d="M621.7,192.1c-0.1,0-0.2,0-0.3,0c-0.1,0-0.1,0-0.2-0.1c0,0-0.1-0.1-0.1-0.2s0-0.1,0-0.2l-1.3-17.4          c0-0.1,0-0.2,0-0.2c0-0.1,0-0.1,0.1-0.1c0,0,0.1-0.1,0.2-0.1c0.1,0,0.2,0,0.2,0h7.4c0.3,0,0.5,0,0.7,0          c0.2,0,0.4,0.1,0.6,0.1c0.2,0.1,0.4,0.1,0.5,0.2c0.2,0.1,0.4,0.2,0.5,0.4l1.2,1c0.2,0.2,0.4,0.3,0.5,0.4          c0.1,0.1,0.2,0.3,0.3,0.4c0.1,0.2,0.2,0.3,0.2,0.5c0,0.2,0.1,0.4,0.1,0.6l0.9,10.6c0,0.2,0,0.5,0,0.6c0,0.2-0.1,0.4-0.1,0.5          c-0.1,0.2-0.1,0.3-0.3,0.4c-0.1,0.1-0.2,0.3-0.4,0.4l-1.1,1c-0.2,0.2-0.3,0.3-0.5,0.4c-0.2,0.1-0.3,0.2-0.5,0.3          c-0.2,0.1-0.4,0.1-0.6,0.1c-0.2,0-0.4,0-0.7,0H621.7 M630.2,166.3h-19.6c-0.3,0-0.5,0-0.7,0.1c-0.2,0.1-0.4,0.1-0.5,0.3          c-0.1,0.1-0.2,0.3-0.3,0.5c-0.1,0.2-0.1,0.4-0.1,0.6l2.1,30.6c0,0.3,0.1,0.5,0.2,0.7c0.1,0.2,0.2,0.3,0.4,0.5          c0.2,0.1,0.3,0.2,0.6,0.3c0.2,0.1,0.5,0.1,0.8,0.1h20.1c0.7,0,1.3,0,1.8-0.1c0.5-0.1,1-0.2,1.4-0.4c0.4-0.2,0.8-0.4,1.2-0.7          c0.4-0.3,0.8-0.6,1.2-1l3.3-3.2c0.4-0.4,0.7-0.7,1-1.1c0.3-0.4,0.5-0.7,0.6-1.1c0.1-0.4,0.2-0.8,0.3-1.2c0-0.4,0-0.9,0-1.5          l-1.3-13.3c-0.1-0.5-0.1-1-0.2-1.4c-0.1-0.4-0.3-0.8-0.5-1.2c-0.2-0.4-0.5-0.7-0.8-1.1c-0.3-0.4-0.7-0.7-1.2-1.1l-3.8-3.1          c-0.5-0.4-0.9-0.7-1.3-1c-0.4-0.3-0.9-0.5-1.3-0.6c-0.5-0.2-0.9-0.3-1.5-0.4C631.5,166.3,630.9,166.3,630.2,166.3"></path>
								<path fill="#231F20" d="M656.5,166.3h-6.9c-0.3,0-0.5,0-0.7,0.1c-0.2,0.1-0.4,0.1-0.5,0.3c-0.1,0.1-0.2,0.3-0.3,0.5          c-0.1,0.2-0.1,0.4,0,0.6l3,30.6c0,0.3,0.1,0.5,0.2,0.7c0.1,0.2,0.2,0.3,0.4,0.5c0.2,0.1,0.3,0.2,0.6,0.3          c0.2,0.1,0.5,0.1,0.8,0.1h7.1c0.3,0,0.5,0,0.8-0.1s0.4-0.2,0.5-0.3c0.1-0.1,0.2-0.3,0.3-0.5c0.1-0.2,0.1-0.4,0-0.7          l-3.3-30.6c0-0.2-0.1-0.5-0.2-0.6c-0.1-0.2-0.2-0.3-0.4-0.5c-0.2-0.1-0.3-0.2-0.6-0.3C657.1,166.3,656.8,166.3,656.5,166.3"></path>
								<path fill="#231F20" d="M693.3,166.3h-28.2c-0.3,0-0.5,0-0.7,0.1c-0.2,0.1-0.4,0.1-0.5,0.3c-0.1,0.1-0.2,0.3-0.3,0.5          c0,0.2-0.1,0.4,0,0.6l0.5,4.6c0,0.2,0.1,0.5,0.2,0.6c0.1,0.2,0.2,0.3,0.4,0.5c0.2,0.1,0.3,0.2,0.6,0.3          c0.2,0.1,0.5,0.1,0.8,0.1h8.5c0.1,0,0.2,0,0.3,0s0.1,0,0.2,0.1c0,0,0.1,0.1,0.1,0.1c0,0.1,0,0.1,0.1,0.2l2.9,24          c0,0.3,0.1,0.5,0.2,0.7c0.1,0.2,0.2,0.3,0.4,0.5c0.2,0.1,0.3,0.2,0.6,0.3c0.2,0.1,0.5,0.1,0.8,0.1h7.1c0.3,0,0.5,0,0.8-0.1          c0.2-0.1,0.4-0.2,0.5-0.3c0.1-0.1,0.2-0.3,0.3-0.5c0-0.2,0.1-0.4,0-0.7l-3.1-24c0-0.1,0-0.2,0-0.2c0-0.1,0-0.1,0.1-0.1          c0,0,0.1-0.1,0.2-0.1c0.1,0,0.1,0,0.2,0h8.5c0.3,0,0.5,0,0.7-0.1c0.2-0.1,0.4-0.2,0.5-0.3c0.1-0.1,0.2-0.3,0.3-0.5          c0-0.2,0-0.4,0-0.6l-0.6-4.6c0-0.2-0.1-0.5-0.2-0.6c-0.1-0.2-0.2-0.3-0.4-0.5c-0.2-0.1-0.3-0.2-0.6-0.3          C693.8,166.3,693.6,166.3,693.3,166.3"></path>
								<path fill="#231F20" d="M708.7,166.3h-6.9c-0.3,0-0.5,0-0.7,0.1c-0.2,0.1-0.4,0.1-0.5,0.3c-0.1,0.1-0.2,0.3-0.2,0.5          c0,0.2,0,0.4,0,0.6l4.3,30.6c0,0.3,0.1,0.5,0.2,0.7c0.1,0.2,0.2,0.3,0.4,0.5c0.2,0.1,0.4,0.2,0.6,0.3s0.5,0.1,0.8,0.1h7.1          c0.3,0,0.5,0,0.8-0.1c0.2-0.1,0.4-0.2,0.5-0.3c0.1-0.1,0.2-0.3,0.3-0.5c0-0.2,0-0.4,0-0.7l-4.5-30.6c0-0.2-0.1-0.5-0.2-0.6          c-0.1-0.2-0.2-0.3-0.4-0.5c-0.2-0.1-0.3-0.2-0.6-0.3C709.3,166.3,709,166.3,708.7,166.3"></path>
								<path fill="#231F20" d="M735.6,192.1c-0.3,0-0.5,0-0.7,0c-0.2,0-0.4-0.1-0.6-0.1s-0.4-0.1-0.6-0.3c-0.2-0.1-0.4-0.2-0.6-0.4          l-1.3-1c-0.2-0.2-0.4-0.3-0.5-0.4c-0.1-0.1-0.3-0.3-0.4-0.4c-0.1-0.2-0.2-0.3-0.2-0.5c-0.1-0.2-0.1-0.4-0.1-0.6l-1.7-10.6          c0-0.2-0.1-0.4-0.1-0.6c0-0.2,0-0.3,0.1-0.5c0-0.2,0.1-0.3,0.2-0.4c0.1-0.1,0.2-0.3,0.4-0.4l1-1c0.2-0.2,0.3-0.3,0.5-0.4          c0.2-0.1,0.3-0.2,0.5-0.2c0.2-0.1,0.3-0.1,0.6-0.1s0.4,0,0.7,0h4.4c0.3,0,0.5,0,0.7,0c0.2,0,0.4,0.1,0.6,0.1          s0.4,0.1,0.6,0.2c0.2,0.1,0.4,0.2,0.6,0.4l1.3,1c0.2,0.2,0.4,0.3,0.5,0.4c0.1,0.1,0.3,0.3,0.4,0.4c0.1,0.2,0.2,0.3,0.2,0.5          c0.1,0.2,0.1,0.4,0.2,0.6l1.8,10.6c0,0.2,0.1,0.5,0.1,0.6c0,0.2,0,0.4-0.1,0.5c0,0.2-0.1,0.3-0.2,0.4          c-0.1,0.1-0.2,0.3-0.4,0.4l-1,1c-0.2,0.2-0.3,0.3-0.5,0.4c-0.2,0.1-0.3,0.2-0.5,0.3c-0.2,0.1-0.4,0.1-0.6,0.1          c-0.2,0-0.4,0-0.7,0H735.6 M738.9,166.3h-10.7c-0.7,0-1.2,0-1.7,0.1c-0.5,0.1-1,0.2-1.4,0.4c-0.4,0.2-0.8,0.4-1.2,0.6          c-0.4,0.3-0.7,0.6-1.1,1l-3.1,3.1c-0.4,0.4-0.7,0.7-0.9,1.1c-0.2,0.4-0.4,0.7-0.5,1.1c-0.1,0.4-0.2,0.8-0.2,1.2          c0,0.4,0,0.9,0.1,1.4l2,13.3c0.1,0.5,0.2,1,0.3,1.5c0.1,0.4,0.3,0.9,0.6,1.2c0.2,0.4,0.5,0.8,0.9,1.1          c0.4,0.4,0.8,0.7,1.3,1.1l4.1,3.2c0.5,0.4,1,0.7,1.4,1c0.5,0.3,0.9,0.5,1.4,0.7c0.5,0.2,1,0.3,1.5,0.4          c0.5,0.1,1.1,0.1,1.8,0.1h11c0.7,0,1.3,0,1.8-0.1c0.5-0.1,1-0.2,1.4-0.4c0.4-0.2,0.8-0.4,1.2-0.7c0.4-0.3,0.7-0.6,1.1-1          l3.1-3.2c0.4-0.4,0.7-0.7,0.9-1.1c0.2-0.4,0.4-0.7,0.5-1.1c0.1-0.4,0.2-0.8,0.2-1.2c0-0.4-0.1-0.9-0.2-1.5l-2.4-13.3          c-0.1-0.5-0.2-1-0.4-1.4c-0.2-0.4-0.4-0.8-0.6-1.2c-0.2-0.4-0.5-0.7-0.9-1.1c-0.4-0.4-0.8-0.7-1.3-1.1l-4.1-3.1          c-0.5-0.4-1-0.7-1.4-1c-0.5-0.3-0.9-0.5-1.4-0.6c-0.5-0.2-0.9-0.3-1.5-0.4C740.1,166.3,739.5,166.3,738.9,166.3"></path>
								<path fill="#231F20" d="M786.3,166.3h-6.6c-0.3,0-0.5,0-0.8,0.1c-0.2,0.1-0.4,0.1-0.5,0.3c-0.1,0.1-0.2,0.3-0.2,0.5          c0,0.2,0,0.4,0,0.6l3.2,15.7c0,0,0,0.1,0,0.1c0,0,0,0.1-0.1,0.1c0,0-0.1,0-0.1,0.1s-0.1,0-0.1,0c0,0-0.1,0-0.1,0          c0,0-0.1,0-0.1,0c0,0-0.1,0-0.1-0.1s-0.1,0-0.1-0.1l-13.4-15.9c-0.2-0.2-0.4-0.5-0.6-0.6c-0.2-0.2-0.4-0.3-0.7-0.4          c-0.2-0.1-0.5-0.2-0.7-0.2c-0.3-0.1-0.6-0.1-0.9-0.1h-6.7c-0.3,0-0.5,0-0.7,0.1c-0.2,0.1-0.4,0.1-0.5,0.3          c-0.1,0.1-0.2,0.3-0.2,0.5c0,0.2,0,0.4,0,0.6l5.6,30.6c0,0.3,0.1,0.5,0.2,0.7c0.1,0.2,0.2,0.3,0.4,0.5          c0.2,0.1,0.4,0.2,0.6,0.3c0.2,0.1,0.5,0.1,0.8,0.1h6.7c0.3,0,0.6,0,0.8-0.1c0.2-0.1,0.4-0.2,0.5-0.3          c0.1-0.1,0.2-0.3,0.2-0.5c0-0.2,0-0.4,0-0.7l-3.1-16.1c0,0,0-0.1,0-0.1c0,0,0-0.1,0.1-0.1s0.1,0,0.1-0.1s0.1,0,0.1,0          c0,0,0.1,0,0.1,0c0,0,0.1,0,0.1,0s0.1,0,0.1,0.1c0,0,0.1,0,0.1,0.1l13.6,16.3c0.2,0.3,0.4,0.5,0.6,0.7          c0.2,0.2,0.4,0.3,0.7,0.4c0.2,0.1,0.5,0.2,0.8,0.2c0.3,0.1,0.6,0.1,0.9,0.1h6.8c0.3,0,0.5,0,0.7-0.1s0.4-0.2,0.5-0.3          c0.1-0.1,0.2-0.3,0.2-0.5c0-0.2,0-0.4,0-0.7l-6.4-30.6c-0.1-0.2-0.1-0.5-0.2-0.6c-0.1-0.2-0.2-0.3-0.4-0.5          c-0.2-0.1-0.4-0.2-0.6-0.3C786.9,166.3,786.6,166.3,786.3,166.3"></path>
							</g>
						</g>
					</g>
				</g>
			</g>
		</g>
	</g>
	<g>
		<g>
			<g enable-background="new    ">
				<defs>
					<polygon id="SVGID_3_" enable-background="new    " points="247.9,196.3 254.9,162.7 788,162.7 795,196.3      "></polygon>
				</defs>
				<clipPath id="SVGID_4_">
					<use xlink:href="#SVGID_3_" overflow="visible"></use>
				</clipPath>
				<g clip-path="url(#SVGID_4_)">
					<g>
						<g>
							<g>
								<path fill="#FFFFFF" d="M281.5,162.7h-24.9c-0.3,0-0.5,0-0.8,0.1c-0.2,0.1-0.4,0.1-0.6,0.3c-0.2,0.1-0.3,0.3-0.4,0.5          c-0.1,0.2-0.2,0.4-0.2,0.6l-6.4,30.6c-0.1,0.3-0.1,0.5,0,0.7c0,0.2,0.1,0.3,0.2,0.5c0.1,0.1,0.3,0.2,0.5,0.3          c0.2,0.1,0.5,0.1,0.7,0.1h25.5c0.3,0,0.6,0,0.8-0.1c0.2-0.1,0.4-0.2,0.6-0.3c0.2-0.1,0.3-0.3,0.4-0.5          c0.1-0.2,0.2-0.4,0.2-0.7l0.9-4.8c0-0.3,0.1-0.5,0-0.7c0-0.2-0.1-0.3-0.2-0.5c-0.1-0.1-0.3-0.2-0.5-0.3s-0.5-0.1-0.7-0.1          h-16.1c-0.1,0-0.2,0-0.2,0c-0.1,0-0.1,0-0.2-0.1c0,0-0.1-0.1-0.1-0.1c0-0.1,0-0.1,0-0.2l0.9-4.7c0-0.1,0-0.2,0.1-0.2          s0.1-0.1,0.1-0.1c0.1,0,0.1-0.1,0.2-0.1c0.1,0,0.2,0,0.3,0h13.5c0.3,0,0.6,0,0.8-0.1c0.2-0.1,0.4-0.2,0.6-0.3          c0.2-0.1,0.3-0.3,0.4-0.5c0.1-0.2,0.2-0.4,0.2-0.7l0.9-4.5c0-0.3,0.1-0.5,0-0.7c0-0.2-0.1-0.3-0.2-0.5          c-0.1-0.1-0.3-0.2-0.5-0.3c-0.2-0.1-0.5-0.1-0.7-0.1h-13.5c-0.1,0-0.2,0-0.2,0c-0.1,0-0.1,0-0.2-0.1c0,0-0.1-0.1-0.1-0.1          c0-0.1,0-0.1,0-0.2l0.8-4c0-0.1,0-0.2,0.1-0.2c0-0.1,0.1-0.1,0.1-0.1c0.1,0,0.1-0.1,0.2-0.1s0.2,0,0.3,0h15.8          c0.3,0,0.5,0,0.8-0.1c0.2-0.1,0.4-0.2,0.6-0.3c0.2-0.1,0.3-0.3,0.4-0.5c0.1-0.2,0.2-0.4,0.2-0.6l0.9-4.6          c0-0.2,0.1-0.5,0-0.6c0-0.2-0.1-0.3-0.2-0.5c-0.1-0.1-0.3-0.2-0.5-0.3S281.8,162.7,281.5,162.7"></path>
								<path fill="#FFFFFF" d="M295.6,188.5c-0.1,0-0.2,0-0.2,0c-0.1,0-0.1,0-0.2-0.1s-0.1-0.1-0.1-0.2c0-0.1,0-0.1,0-0.2l3-17.4          c0-0.1,0-0.2,0.1-0.2c0-0.1,0.1-0.1,0.1-0.1s0.1-0.1,0.2-0.1c0.1,0,0.2,0,0.3,0h7.4c0.3,0,0.5,0,0.7,0s0.4,0.1,0.6,0.1          c0.2,0.1,0.3,0.1,0.5,0.2c0.2,0.1,0.3,0.2,0.5,0.4l1,1c0.2,0.2,0.3,0.3,0.4,0.4c0.1,0.1,0.2,0.3,0.2,0.4          c0,0.2,0.1,0.3,0.1,0.5c0,0.2,0,0.4-0.1,0.6l-1.8,10.6c0,0.2-0.1,0.5-0.2,0.6c-0.1,0.2-0.1,0.4-0.2,0.5          c-0.1,0.2-0.2,0.3-0.4,0.4c-0.1,0.1-0.3,0.3-0.5,0.4l-1.3,1c-0.2,0.2-0.4,0.3-0.6,0.4c-0.2,0.1-0.4,0.2-0.6,0.3          s-0.4,0.1-0.6,0.1c-0.2,0-0.5,0-0.7,0H295.6 M310.5,162.7h-19.6c-0.3,0-0.5,0-0.8,0.1c-0.2,0.1-0.4,0.1-0.6,0.3          c-0.2,0.1-0.3,0.3-0.4,0.5c-0.1,0.2-0.2,0.4-0.2,0.6l-5.6,30.6c0,0.3-0.1,0.5,0,0.7c0,0.2,0.1,0.3,0.2,0.5          c0.1,0.1,0.3,0.2,0.5,0.3c0.2,0.1,0.5,0.1,0.8,0.1H305c0.7,0,1.3,0,1.8-0.1c0.5-0.1,1-0.2,1.5-0.4c0.5-0.2,0.9-0.4,1.4-0.7          c0.5-0.3,0.9-0.6,1.5-1l4.1-3.2c0.5-0.4,0.9-0.7,1.3-1.1c0.4-0.4,0.6-0.7,0.9-1.1c0.2-0.4,0.4-0.8,0.6-1.2          c0.1-0.4,0.3-0.9,0.3-1.5l2.1-13.3c0.1-0.5,0.1-1,0.1-1.4c0-0.4-0.1-0.8-0.2-1.2c-0.1-0.4-0.3-0.7-0.5-1.1          c-0.2-0.4-0.5-0.7-0.9-1.1l-3.1-3.1c-0.4-0.4-0.7-0.7-1.1-1c-0.4-0.3-0.7-0.5-1.2-0.6c-0.4-0.2-0.9-0.3-1.4-0.4          C311.8,162.7,311.2,162.7,310.5,162.7"></path>
								<path fill="#FFFFFF" d="M357.3,162.7h-6.9c-0.3,0-0.5,0-0.8,0.1s-0.4,0.1-0.6,0.3c-0.2,0.1-0.3,0.3-0.4,0.5          c-0.1,0.2-0.2,0.4-0.2,0.6l-2.7,20.3c0,0.2-0.1,0.4-0.1,0.6c-0.1,0.2-0.1,0.4-0.2,0.5c-0.1,0.2-0.2,0.3-0.3,0.4          c-0.1,0.1-0.3,0.3-0.5,0.4l-1.3,1c-0.2,0.2-0.4,0.3-0.6,0.4c-0.2,0.1-0.4,0.2-0.6,0.3c-0.2,0.1-0.4,0.1-0.6,0.1          s-0.5,0-0.7,0h-2.4c-0.3,0-0.5,0-0.7,0s-0.4-0.1-0.6-0.1c-0.2-0.1-0.3-0.1-0.5-0.3c-0.2-0.1-0.3-0.2-0.5-0.4l-1-1          c-0.2-0.2-0.3-0.3-0.4-0.4c-0.1-0.1-0.2-0.3-0.2-0.4c-0.1-0.2-0.1-0.3-0.1-0.5c0-0.2,0-0.4,0-0.6l2.9-20.3          c0-0.2,0-0.5,0-0.6c0-0.2-0.1-0.3-0.2-0.5c-0.1-0.1-0.3-0.2-0.5-0.3c-0.2-0.1-0.5-0.1-0.7-0.1h-6.9c-0.3,0-0.5,0-0.8,0.1          c-0.2,0.1-0.4,0.1-0.6,0.3c-0.2,0.1-0.3,0.3-0.4,0.5c-0.1,0.2-0.2,0.4-0.2,0.6l-3.3,21.8c-0.1,0.5-0.1,1-0.1,1.5          c0,0.4,0.1,0.9,0.2,1.2c0.1,0.4,0.3,0.8,0.5,1.1c0.2,0.4,0.5,0.7,0.9,1.1l3.2,3.2c0.4,0.4,0.8,0.7,1.1,1          c0.4,0.3,0.8,0.5,1.2,0.7c0.4,0.2,0.9,0.3,1.4,0.4c0.5,0.1,1.1,0.1,1.8,0.1h8.9c0.7,0,1.3,0,1.8-0.1c0.5-0.1,1-0.2,1.5-0.4          c0.5-0.2,0.9-0.4,1.4-0.7c0.5-0.3,0.9-0.6,1.4-1l4-3.2c0.5-0.4,0.9-0.7,1.2-1.1c0.3-0.4,0.6-0.7,0.8-1.1          c0.2-0.4,0.4-0.8,0.5-1.2c0.1-0.4,0.2-0.9,0.3-1.5l2.8-21.8c0-0.2,0-0.5,0-0.6c0-0.2-0.1-0.3-0.3-0.5          c-0.1-0.1-0.3-0.2-0.5-0.3S357.6,162.7,357.3,162.7"></path>
								<path fill="#FFFFFF" d="M389.9,162.7h-14.1c-0.7,0-1.2,0-1.8,0.1c-0.5,0.1-1,0.2-1.5,0.4c-0.5,0.2-0.9,0.4-1.3,0.6          c-0.4,0.3-0.9,0.6-1.4,1l-3.9,3.1c-0.5,0.4-0.9,0.7-1.2,1.1c-0.3,0.4-0.6,0.7-0.8,1.1c-0.2,0.4-0.4,0.8-0.5,1.2          c-0.1,0.4-0.2,0.9-0.3,1.4l-1.6,13.3c-0.1,0.5-0.1,1-0.1,1.5c0,0.4,0.1,0.9,0.2,1.2c0.1,0.4,0.3,0.8,0.6,1.1          c0.3,0.4,0.6,0.7,1,1.1l3.3,3.2c0.4,0.4,0.8,0.7,1.2,1c0.4,0.3,0.8,0.5,1.2,0.7c0.4,0.2,0.9,0.3,1.4,0.4          c0.5,0.1,1.1,0.1,1.8,0.1h14.5c0.3,0,0.6,0,0.8-0.1c0.2-0.1,0.4-0.2,0.6-0.3c0.2-0.1,0.3-0.3,0.4-0.5          c0.1-0.2,0.1-0.4,0.2-0.7l0.5-4.8c0-0.3,0-0.5,0-0.7c-0.1-0.2-0.1-0.3-0.3-0.5c-0.1-0.1-0.3-0.2-0.5-0.3          c-0.2-0.1-0.5-0.1-0.8-0.1H376c-0.3,0-0.5,0-0.7,0c-0.2,0-0.4-0.1-0.6-0.2c-0.2-0.1-0.3-0.2-0.5-0.3          c-0.2-0.1-0.3-0.2-0.5-0.4l-0.9-0.9c-0.2-0.2-0.3-0.3-0.4-0.4c-0.1-0.1-0.2-0.3-0.2-0.4c-0.1-0.2-0.1-0.3-0.1-0.5          c0-0.2,0-0.4,0-0.6l1.2-10.6c0-0.2,0.1-0.4,0.1-0.6c0.1-0.2,0.1-0.3,0.2-0.5c0.1-0.2,0.2-0.3,0.3-0.4          c0.1-0.1,0.3-0.3,0.5-0.4l1.1-0.8c0.2-0.2,0.4-0.3,0.6-0.4c0.2-0.1,0.4-0.2,0.5-0.3s0.4-0.1,0.6-0.1c0.2,0,0.4,0,0.7,0h11.2          c0.3,0,0.5,0,0.8-0.1c0.2-0.1,0.4-0.2,0.6-0.3c0.2-0.1,0.3-0.3,0.4-0.5c0.1-0.2,0.1-0.4,0.2-0.6l0.5-4.6c0-0.2,0-0.5,0-0.6          c-0.1-0.2-0.1-0.3-0.3-0.5c-0.1-0.1-0.3-0.2-0.5-0.3C390.5,162.7,390.2,162.7,389.9,162.7"></path>
								<path fill="#FFFFFF" d="M407.3,181.6c-0.1,0-0.2,0-0.2,0s-0.1-0.1-0.1-0.1c0,0,0-0.1,0-0.1c0-0.1,0-0.1,0-0.2l4.1-11.1          c0,0,0-0.1,0.1-0.1c0,0,0.1-0.1,0.1-0.1c0,0,0.1,0,0.1,0c0,0,0.1,0,0.1,0s0.1,0,0.1,0c0,0,0.1,0,0.1,0c0,0,0.1,0,0.1,0.1          c0,0,0,0.1,0,0.1l2.2,11.1c0,0.1,0,0.1,0,0.2c0,0.1,0,0.1-0.1,0.1c0,0-0.1,0.1-0.1,0.1c-0.1,0-0.1,0-0.2,0H407.3           M417.5,162.7h-10.9c-0.5,0-0.9,0-1.3,0.1c-0.4,0.1-0.6,0.2-0.9,0.3c-0.2,0.1-0.4,0.3-0.6,0.6c-0.2,0.2-0.3,0.5-0.5,0.9          l-12,29.9c-0.1,0.3-0.1,0.5-0.1,0.7c0,0.2,0,0.4,0.2,0.6c0.1,0.2,0.3,0.3,0.5,0.4c0.2,0.1,0.5,0.1,0.9,0.1h7          c0.3,0,0.6,0,0.8-0.1s0.4-0.2,0.6-0.3c0.2-0.1,0.3-0.3,0.5-0.5c0.1-0.2,0.3-0.5,0.4-0.9l1.9-5.1c0-0.1,0.1-0.2,0.1-0.2          c0-0.1,0.1-0.1,0.1-0.1c0.1,0,0.1-0.1,0.2-0.1s0.2,0,0.3,0h10.2c0.1,0,0.2,0,0.3,0s0.1,0,0.2,0.1c0,0,0.1,0.1,0.1,0.1          c0,0.1,0.1,0.1,0.1,0.2l1,5.1c0.1,0.3,0.2,0.6,0.3,0.9c0.1,0.2,0.2,0.4,0.4,0.5c0.2,0.1,0.3,0.2,0.6,0.3s0.5,0.1,0.8,0.1h7          c0.4,0,0.6,0,0.9-0.1c0.2-0.1,0.4-0.2,0.5-0.4c0.1-0.2,0.2-0.3,0.2-0.6c0-0.2,0-0.5,0-0.7l-6.8-29.9          c-0.1-0.4-0.2-0.6-0.3-0.9c-0.1-0.2-0.3-0.4-0.5-0.6c-0.2-0.1-0.5-0.2-0.8-0.3C418.4,162.7,417.9,162.7,417.5,162.7"></path>
								<path fill="#FFFFFF" d="M461.7,162.7h-28.2c-0.3,0-0.5,0-0.8,0.1s-0.4,0.1-0.5,0.3c-0.1,0.1-0.3,0.3-0.3,0.5          c-0.1,0.2-0.1,0.4-0.1,0.6l-0.3,4.6c0,0.2,0,0.5,0.1,0.6c0.1,0.2,0.2,0.3,0.3,0.5c0.1,0.1,0.3,0.2,0.5,0.3          c0.2,0.1,0.5,0.1,0.8,0.1h8.5c0.1,0,0.2,0,0.2,0c0.1,0,0.1,0,0.2,0.1c0,0,0.1,0.1,0.1,0.1c0,0.1,0,0.1,0,0.2l-1.5,24          c0,0.3,0,0.5,0.1,0.7c0.1,0.2,0.2,0.3,0.3,0.5c0.1,0.1,0.3,0.2,0.5,0.3s0.5,0.1,0.8,0.1h7.1c0.3,0,0.6,0,0.8-0.1          s0.4-0.2,0.6-0.3c0.2-0.1,0.3-0.3,0.3-0.5c0.1-0.2,0.1-0.4,0.1-0.7l1.3-24c0-0.1,0-0.2,0-0.2c0-0.1,0.1-0.1,0.1-0.1          c0,0,0.1-0.1,0.2-0.1c0.1,0,0.2,0,0.3,0h8.5c0.3,0,0.5,0,0.8-0.1c0.2-0.1,0.4-0.2,0.5-0.3c0.1-0.1,0.3-0.3,0.3-0.5          c0.1-0.2,0.1-0.4,0.1-0.6l0.2-4.6c0-0.2,0-0.5-0.1-0.6c-0.1-0.2-0.2-0.3-0.3-0.5c-0.1-0.1-0.3-0.2-0.5-0.3          C462.2,162.7,461.9,162.7,461.7,162.7"></path>
								<path fill="#FFFFFF" d="M477.1,162.7h-6.9c-0.3,0-0.5,0-0.8,0.1c-0.2,0.1-0.4,0.1-0.5,0.3c-0.1,0.1-0.3,0.3-0.3,0.5          c-0.1,0.2-0.1,0.4-0.1,0.6l-1.3,30.6c0,0.3,0,0.5,0.1,0.7c0.1,0.2,0.2,0.3,0.3,0.5c0.1,0.1,0.3,0.2,0.5,0.3          c0.2,0.1,0.5,0.1,0.8,0.1h7.1c0.3,0,0.6,0,0.8-0.1c0.2-0.1,0.4-0.2,0.5-0.3c0.1-0.1,0.3-0.3,0.3-0.5          c0.1-0.2,0.1-0.4,0.1-0.7l1-30.6c0-0.2,0-0.5-0.1-0.6c-0.1-0.2-0.2-0.3-0.3-0.5c-0.1-0.1-0.3-0.2-0.5-0.3          C477.7,162.7,477.4,162.7,477.1,162.7"></path>
								<path fill="#FFFFFF" d="M499.2,188.5c-0.3,0-0.5,0-0.7,0c-0.2,0-0.4-0.1-0.6-0.1c-0.2-0.1-0.3-0.1-0.5-0.3          c-0.2-0.1-0.3-0.2-0.5-0.4l-1.1-1c-0.2-0.2-0.3-0.3-0.4-0.4c-0.1-0.1-0.2-0.3-0.3-0.4c-0.1-0.2-0.1-0.3-0.1-0.5          c0-0.2,0-0.4,0-0.6l0.2-10.6c0-0.2,0-0.4,0.1-0.6c0-0.2,0.1-0.3,0.2-0.5c0.1-0.2,0.2-0.3,0.3-0.4c0.1-0.1,0.3-0.3,0.5-0.4          l1.2-1c0.2-0.2,0.4-0.3,0.5-0.4c0.2-0.1,0.3-0.2,0.5-0.2c0.2-0.1,0.4-0.1,0.6-0.1c0.2,0,0.4,0,0.7,0h4.4c0.3,0,0.5,0,0.7,0          c0.2,0,0.4,0.1,0.6,0.1c0.2,0.1,0.3,0.1,0.5,0.2c0.2,0.1,0.3,0.2,0.5,0.4l1.2,1c0.2,0.2,0.3,0.3,0.4,0.4          c0.1,0.1,0.2,0.3,0.3,0.4c0.1,0.2,0.1,0.3,0.1,0.5c0,0.2,0,0.4,0,0.6l-0.1,10.6c0,0.2,0,0.5-0.1,0.6c0,0.2-0.1,0.4-0.2,0.5          c-0.1,0.2-0.2,0.3-0.3,0.4c-0.1,0.1-0.3,0.3-0.5,0.4l-1.2,1c-0.2,0.2-0.4,0.3-0.5,0.4c-0.2,0.1-0.3,0.2-0.5,0.3          s-0.4,0.1-0.6,0.1s-0.4,0-0.7,0H499.2 M507.2,162.7h-10.7c-0.7,0-1.2,0-1.8,0.1c-0.5,0.1-1,0.2-1.4,0.4          c-0.4,0.2-0.9,0.4-1.3,0.6c-0.4,0.3-0.8,0.6-1.3,1l-3.6,3.1c-0.4,0.4-0.8,0.7-1.1,1.1c-0.3,0.4-0.5,0.7-0.7,1.1          c-0.2,0.4-0.3,0.8-0.4,1.2c-0.1,0.4-0.1,0.9-0.2,1.4l-0.4,13.3c0,0.5,0,1,0.1,1.5c0.1,0.4,0.2,0.9,0.3,1.2          c0.2,0.4,0.4,0.8,0.7,1.1c0.3,0.4,0.6,0.7,1.1,1.1l3.6,3.2c0.4,0.4,0.9,0.7,1.3,1c0.4,0.3,0.8,0.5,1.3,0.7          c0.4,0.2,0.9,0.3,1.5,0.4c0.5,0.1,1.1,0.1,1.8,0.1h11c0.7,0,1.3,0,1.8-0.1c0.5-0.1,1-0.2,1.5-0.4c0.4-0.2,0.9-0.4,1.3-0.7          c0.4-0.3,0.8-0.6,1.3-1l3.7-3.2c0.4-0.4,0.8-0.7,1.1-1.1c0.3-0.4,0.5-0.7,0.7-1.1c0.2-0.4,0.3-0.8,0.4-1.2          c0.1-0.4,0.1-0.9,0.1-1.5l0-13.3c0-0.5,0-1-0.1-1.4c-0.1-0.4-0.2-0.8-0.4-1.2c-0.2-0.4-0.4-0.7-0.7-1.1          c-0.3-0.4-0.6-0.7-1.1-1.1l-3.5-3.1c-0.4-0.4-0.8-0.7-1.2-1c-0.4-0.3-0.8-0.5-1.3-0.6c-0.4-0.2-0.9-0.3-1.4-0.4          C508.4,162.7,507.9,162.7,507.2,162.7"></path>
								<path fill="#FFFFFF" d="M554.7,162.7h-6.6c-0.3,0-0.6,0-0.8,0.1s-0.4,0.1-0.5,0.3c-0.1,0.1-0.2,0.3-0.3,0.5          c-0.1,0.2-0.1,0.4-0.1,0.6l0.3,15.7c0,0,0,0.1,0,0.1c0,0,0,0.1-0.1,0.1c0,0-0.1,0-0.1,0.1c0,0-0.1,0-0.1,0c0,0-0.1,0-0.1,0          c0,0-0.1,0-0.1,0s-0.1,0-0.1-0.1s0,0-0.1-0.1l-10.5-15.9c-0.2-0.2-0.3-0.5-0.5-0.6c-0.2-0.2-0.4-0.3-0.6-0.4          c-0.2-0.1-0.4-0.2-0.7-0.2c-0.3-0.1-0.6-0.1-0.9-0.1h-6.7c-0.3,0-0.5,0-0.7,0.1s-0.4,0.1-0.5,0.3c-0.1,0.1-0.2,0.3-0.3,0.5          c-0.1,0.2-0.1,0.4-0.1,0.6l0.1,30.6c0,0.3,0,0.5,0.1,0.7c0.1,0.2,0.2,0.3,0.3,0.5c0.1,0.1,0.3,0.2,0.5,0.3          c0.2,0.1,0.5,0.1,0.8,0.1h6.7c0.3,0,0.6,0,0.8-0.1c0.2-0.1,0.4-0.2,0.5-0.3c0.1-0.1,0.2-0.3,0.3-0.5          c0.1-0.2,0.1-0.4,0.1-0.7l-0.2-16.1c0,0,0-0.1,0-0.1s0-0.1,0.1-0.1s0.1,0,0.1-0.1c0,0,0.1,0,0.1,0c0,0,0.1,0,0.1,0          c0,0,0.1,0,0.1,0c0,0,0.1,0,0.1,0.1c0,0,0,0,0.1,0.1l10.6,16.3c0.2,0.3,0.3,0.5,0.5,0.7c0.2,0.2,0.4,0.3,0.6,0.4          c0.2,0.1,0.5,0.2,0.7,0.2s0.6,0.1,0.9,0.1h6.8c0.3,0,0.5,0,0.8-0.1c0.2-0.1,0.4-0.2,0.5-0.3c0.1-0.1,0.2-0.3,0.3-0.5          c0.1-0.2,0.1-0.4,0.1-0.7l-0.8-30.6c0-0.2,0-0.5-0.1-0.6c-0.1-0.2-0.2-0.3-0.3-0.5c-0.1-0.1-0.3-0.2-0.5-0.3          S555,162.7,554.7,162.7"></path>
								<path fill="#FFFFFF" d="M601.2,162.7h-24.9c-0.3,0-0.5,0-0.7,0.1c-0.2,0.1-0.4,0.1-0.5,0.3c-0.1,0.1-0.2,0.3-0.3,0.5          c-0.1,0.2-0.1,0.4-0.1,0.6l1.3,30.6c0,0.3,0.1,0.5,0.1,0.7c0.1,0.2,0.2,0.3,0.3,0.5c0.1,0.1,0.3,0.2,0.6,0.3          c0.2,0.1,0.5,0.1,0.8,0.1h25.5c0.3,0,0.5,0,0.8-0.1s0.4-0.2,0.5-0.3c0.1-0.1,0.2-0.3,0.3-0.5c0.1-0.2,0.1-0.4,0.1-0.7          l-0.3-4.8c0-0.3-0.1-0.5-0.1-0.7c-0.1-0.2-0.2-0.3-0.4-0.5c-0.2-0.1-0.3-0.2-0.6-0.3s-0.5-0.1-0.8-0.1h-16.1          c-0.1,0-0.2,0-0.3,0c-0.1,0-0.1,0-0.2-0.1c0,0-0.1-0.1-0.1-0.1c0-0.1,0-0.1,0-0.2l-0.2-4.7c0-0.1,0-0.2,0-0.2          c0-0.1,0-0.1,0.1-0.1c0,0,0.1-0.1,0.2-0.1c0.1,0,0.2,0,0.2,0H600c0.3,0,0.5,0,0.8-0.1c0.2-0.1,0.4-0.2,0.5-0.3          c0.1-0.1,0.2-0.3,0.3-0.5c0.1-0.2,0.1-0.4,0.1-0.7l-0.3-4.5c0-0.3-0.1-0.5-0.1-0.7c-0.1-0.2-0.2-0.3-0.3-0.5          c-0.1-0.1-0.3-0.2-0.5-0.3c-0.2-0.1-0.5-0.1-0.8-0.1h-13.5c-0.1,0-0.2,0-0.2,0c-0.1,0-0.1,0-0.2-0.1c0,0-0.1-0.1-0.1-0.1          c0-0.1,0-0.1,0-0.2l-0.2-4c0-0.1,0-0.2,0-0.2c0-0.1,0-0.1,0.1-0.1c0,0,0.1-0.1,0.2-0.1s0.1,0,0.2,0h15.8          c0.3,0,0.5,0,0.7-0.1c0.2-0.1,0.4-0.2,0.5-0.3c0.1-0.1,0.2-0.3,0.3-0.5c0.1-0.2,0.1-0.4,0.1-0.6l-0.3-4.6          c0-0.2-0.1-0.5-0.1-0.6c-0.1-0.2-0.2-0.3-0.3-0.5c-0.1-0.1-0.3-0.2-0.5-0.3C601.7,162.7,601.5,162.7,601.2,162.7"></path>
								<path fill="#FFFFFF" d="M621.7,188.5c-0.1,0-0.2,0-0.3,0c-0.1,0-0.1,0-0.2-0.1s-0.1-0.1-0.1-0.2c0-0.1,0-0.1,0-0.2          l-1.3-17.4c0-0.1,0-0.2,0-0.2c0-0.1,0-0.1,0.1-0.1c0,0,0.1-0.1,0.2-0.1c0.1,0,0.2,0,0.2,0h7.4c0.3,0,0.5,0,0.7,0          c0.2,0,0.4,0.1,0.6,0.1c0.2,0.1,0.4,0.1,0.5,0.2c0.2,0.1,0.4,0.2,0.5,0.4l1.2,1c0.2,0.2,0.4,0.3,0.5,0.4          c0.1,0.1,0.2,0.3,0.3,0.4c0.1,0.2,0.2,0.3,0.2,0.5c0,0.2,0.1,0.4,0.1,0.6l0.9,10.6c0,0.2,0,0.5,0,0.6c0,0.2-0.1,0.4-0.1,0.5          c-0.1,0.2-0.1,0.3-0.3,0.4c-0.1,0.1-0.2,0.3-0.4,0.4l-1.1,1c-0.2,0.2-0.3,0.3-0.5,0.4c-0.2,0.1-0.3,0.2-0.5,0.3          c-0.2,0.1-0.4,0.1-0.6,0.1c-0.2,0-0.4,0-0.7,0H621.7 M630.2,162.7h-19.6c-0.3,0-0.5,0-0.7,0.1s-0.4,0.1-0.5,0.3          c-0.1,0.1-0.2,0.3-0.3,0.5c-0.1,0.2-0.1,0.4-0.1,0.6l2.1,30.6c0,0.3,0.1,0.5,0.2,0.7c0.1,0.2,0.2,0.3,0.4,0.5          c0.2,0.1,0.3,0.2,0.6,0.3c0.2,0.1,0.5,0.1,0.8,0.1h20.1c0.7,0,1.3,0,1.8-0.1c0.5-0.1,1-0.2,1.4-0.4c0.4-0.2,0.8-0.4,1.2-0.7          c0.4-0.3,0.8-0.6,1.2-1l3.3-3.2c0.4-0.4,0.7-0.7,1-1.1c0.3-0.4,0.5-0.7,0.6-1.1c0.1-0.4,0.2-0.8,0.3-1.2c0-0.4,0-0.9,0-1.5          l-1.3-13.3c-0.1-0.5-0.1-1-0.2-1.4c-0.1-0.4-0.3-0.8-0.5-1.2c-0.2-0.4-0.5-0.7-0.8-1.1c-0.3-0.4-0.7-0.7-1.2-1.1l-3.8-3.1          c-0.5-0.4-0.9-0.7-1.3-1c-0.4-0.3-0.9-0.5-1.3-0.6c-0.5-0.2-0.9-0.3-1.5-0.4C631.5,162.7,630.9,162.7,630.2,162.7"></path>
								<path fill="#FFFFFF" d="M656.5,162.7h-6.9c-0.3,0-0.5,0-0.7,0.1s-0.4,0.1-0.5,0.3c-0.1,0.1-0.2,0.3-0.3,0.5          c-0.1,0.2-0.1,0.4,0,0.6l3,30.6c0,0.3,0.1,0.5,0.2,0.7c0.1,0.2,0.2,0.3,0.4,0.5c0.2,0.1,0.3,0.2,0.6,0.3          c0.2,0.1,0.5,0.1,0.8,0.1h7.1c0.3,0,0.5,0,0.8-0.1s0.4-0.2,0.5-0.3c0.1-0.1,0.2-0.3,0.3-0.5c0.1-0.2,0.1-0.4,0-0.7          l-3.3-30.6c0-0.2-0.1-0.5-0.2-0.6c-0.1-0.2-0.2-0.3-0.4-0.5c-0.2-0.1-0.3-0.2-0.6-0.3S656.8,162.7,656.5,162.7"></path>
								<path fill="#FFFFFF" d="M693.3,162.7h-28.2c-0.3,0-0.5,0-0.7,0.1s-0.4,0.1-0.5,0.3c-0.1,0.1-0.2,0.3-0.3,0.5          c0,0.2-0.1,0.4,0,0.6l0.5,4.6c0,0.2,0.1,0.5,0.2,0.6c0.1,0.2,0.2,0.3,0.4,0.5c0.2,0.1,0.3,0.2,0.6,0.3          c0.2,0.1,0.5,0.1,0.8,0.1h8.5c0.1,0,0.2,0,0.3,0s0.1,0,0.2,0.1c0,0,0.1,0.1,0.1,0.1c0,0.1,0,0.1,0.1,0.2l2.9,24          c0,0.3,0.1,0.5,0.2,0.7c0.1,0.2,0.2,0.3,0.4,0.5c0.2,0.1,0.3,0.2,0.6,0.3c0.2,0.1,0.5,0.1,0.8,0.1h7.1c0.3,0,0.5,0,0.8-0.1          c0.2-0.1,0.4-0.2,0.5-0.3c0.1-0.1,0.2-0.3,0.3-0.5c0-0.2,0.1-0.4,0-0.7l-3.1-24c0-0.1,0-0.2,0-0.2c0-0.1,0-0.1,0.1-0.1          c0,0,0.1-0.1,0.2-0.1c0.1,0,0.1,0,0.2,0h8.5c0.3,0,0.5,0,0.7-0.1c0.2-0.1,0.4-0.2,0.5-0.3c0.1-0.1,0.2-0.3,0.3-0.5          c0-0.2,0-0.4,0-0.6l-0.6-4.6c0-0.2-0.1-0.5-0.2-0.6c-0.1-0.2-0.2-0.3-0.4-0.5c-0.2-0.1-0.3-0.2-0.6-0.3          C693.8,162.7,693.6,162.7,693.3,162.7"></path>
								<path fill="#FFFFFF" d="M708.7,162.7h-6.9c-0.3,0-0.5,0-0.7,0.1s-0.4,0.1-0.5,0.3c-0.1,0.1-0.2,0.3-0.2,0.5          c0,0.2,0,0.4,0,0.6l4.3,30.6c0,0.3,0.1,0.5,0.2,0.7c0.1,0.2,0.2,0.3,0.4,0.5c0.2,0.1,0.4,0.2,0.6,0.3s0.5,0.1,0.8,0.1h7.1          c0.3,0,0.5,0,0.8-0.1c0.2-0.1,0.4-0.2,0.5-0.3c0.1-0.1,0.2-0.3,0.3-0.5c0-0.2,0-0.4,0-0.7l-4.5-30.6c0-0.2-0.1-0.5-0.2-0.6          c-0.1-0.2-0.2-0.3-0.4-0.5c-0.2-0.1-0.3-0.2-0.6-0.3S709,162.7,708.7,162.7"></path>
								<path fill="#FFFFFF" d="M735.6,188.5c-0.3,0-0.5,0-0.7,0c-0.2,0-0.4-0.1-0.6-0.1s-0.4-0.1-0.6-0.3c-0.2-0.1-0.4-0.2-0.6-0.4          l-1.3-1c-0.2-0.2-0.4-0.3-0.5-0.4c-0.1-0.1-0.3-0.3-0.4-0.4c-0.1-0.2-0.2-0.3-0.2-0.5c-0.1-0.2-0.1-0.4-0.1-0.6l-1.7-10.6          c0-0.2-0.1-0.4-0.1-0.6c0-0.2,0-0.3,0.1-0.5c0-0.2,0.1-0.3,0.2-0.4c0.1-0.1,0.2-0.3,0.4-0.4l1-1c0.2-0.2,0.3-0.3,0.5-0.4          c0.2-0.1,0.3-0.2,0.5-0.2c0.2-0.1,0.3-0.1,0.6-0.1s0.4,0,0.7,0h4.4c0.3,0,0.5,0,0.7,0c0.2,0,0.4,0.1,0.6,0.1          s0.4,0.1,0.6,0.2c0.2,0.1,0.4,0.2,0.6,0.4l1.3,1c0.2,0.2,0.4,0.3,0.5,0.4c0.1,0.1,0.3,0.3,0.4,0.4c0.1,0.2,0.2,0.3,0.2,0.5          c0.1,0.2,0.1,0.4,0.2,0.6l1.8,10.6c0,0.2,0.1,0.5,0.1,0.6c0,0.2,0,0.4-0.1,0.5c0,0.2-0.1,0.3-0.2,0.4          c-0.1,0.1-0.2,0.3-0.4,0.4l-1,1c-0.2,0.2-0.3,0.3-0.5,0.4c-0.2,0.1-0.3,0.2-0.5,0.3c-0.2,0.1-0.4,0.1-0.6,0.1          c-0.2,0-0.4,0-0.7,0H735.6 M738.9,162.7h-10.7c-0.7,0-1.2,0-1.7,0.1c-0.5,0.1-1,0.2-1.4,0.4c-0.4,0.2-0.8,0.4-1.2,0.6          c-0.4,0.3-0.7,0.6-1.1,1l-3.1,3.1c-0.4,0.4-0.7,0.7-0.9,1.1c-0.2,0.4-0.4,0.7-0.5,1.1c-0.1,0.4-0.2,0.8-0.2,1.2          c0,0.4,0,0.9,0.1,1.4l2,13.3c0.1,0.5,0.2,1,0.3,1.5c0.1,0.4,0.3,0.9,0.6,1.2c0.2,0.4,0.5,0.8,0.9,1.1          c0.4,0.4,0.8,0.7,1.3,1.1l4.1,3.2c0.5,0.4,1,0.7,1.4,1c0.5,0.3,0.9,0.5,1.4,0.7c0.5,0.2,1,0.3,1.5,0.4          c0.5,0.1,1.1,0.1,1.8,0.1h11c0.7,0,1.3,0,1.8-0.1c0.5-0.1,1-0.2,1.4-0.4c0.4-0.2,0.8-0.4,1.2-0.7c0.4-0.3,0.7-0.6,1.1-1          l3.1-3.2c0.4-0.4,0.7-0.7,0.9-1.1c0.2-0.4,0.4-0.7,0.5-1.1c0.1-0.4,0.2-0.8,0.2-1.2c0-0.4-0.1-0.9-0.2-1.5l-2.4-13.3          c-0.1-0.5-0.2-1-0.4-1.4c-0.2-0.4-0.4-0.8-0.6-1.2c-0.2-0.4-0.5-0.7-0.9-1.1c-0.4-0.4-0.8-0.7-1.3-1.1l-4.1-3.1          c-0.5-0.4-1-0.7-1.4-1c-0.5-0.3-0.9-0.5-1.4-0.6c-0.5-0.2-0.9-0.3-1.5-0.4C740.1,162.7,739.5,162.7,738.9,162.7"></path>
								<path fill="#FFFFFF" d="M786.3,162.7h-6.6c-0.3,0-0.5,0-0.8,0.1s-0.4,0.1-0.5,0.3c-0.1,0.1-0.2,0.3-0.2,0.5          c0,0.2,0,0.4,0,0.6l3.2,15.7c0,0,0,0.1,0,0.1c0,0,0,0.1-0.1,0.1c0,0-0.1,0-0.1,0.1s-0.1,0-0.1,0c0,0-0.1,0-0.1,0          c0,0-0.1,0-0.1,0c0,0-0.1,0-0.1-0.1s-0.1,0-0.1-0.1l-13.4-15.9c-0.2-0.2-0.4-0.5-0.6-0.6c-0.2-0.2-0.4-0.3-0.7-0.4          c-0.2-0.1-0.5-0.2-0.7-0.2c-0.3-0.1-0.6-0.1-0.9-0.1h-6.7c-0.3,0-0.5,0-0.7,0.1s-0.4,0.1-0.5,0.3c-0.1,0.1-0.2,0.3-0.2,0.5          c0,0.2,0,0.4,0,0.6l5.6,30.6c0,0.3,0.1,0.5,0.2,0.7c0.1,0.2,0.2,0.3,0.4,0.5c0.2,0.1,0.4,0.2,0.6,0.3          c0.2,0.1,0.5,0.1,0.8,0.1h6.7c0.3,0,0.6,0,0.8-0.1c0.2-0.1,0.4-0.2,0.5-0.3c0.1-0.1,0.2-0.3,0.2-0.5c0-0.2,0-0.4,0-0.7          l-3.1-16.1c0,0,0-0.1,0-0.1c0,0,0-0.1,0.1-0.1c0,0,0.1,0,0.1-0.1c0,0,0.1,0,0.1,0c0,0,0.1,0,0.1,0c0,0,0.1,0,0.1,0          s0.1,0,0.1,0.1c0,0,0.1,0,0.1,0.1l13.6,16.3c0.2,0.3,0.4,0.5,0.6,0.7c0.2,0.2,0.4,0.3,0.7,0.4c0.2,0.1,0.5,0.2,0.8,0.2          c0.3,0.1,0.6,0.1,0.9,0.1h6.8c0.3,0,0.5,0,0.7-0.1s0.4-0.2,0.5-0.3c0.1-0.1,0.2-0.3,0.2-0.5c0-0.2,0-0.4,0-0.7l-6.4-30.6          c-0.1-0.2-0.1-0.5-0.2-0.6c-0.1-0.2-0.2-0.3-0.4-0.5c-0.2-0.1-0.4-0.2-0.6-0.3C786.9,162.7,786.6,162.7,786.3,162.7"></path>
							</g>
						</g>
					</g>
				</g>
			</g>
		</g>
	</g>
</g>
</svg>