<svg xmlns="http://www.w3.org/2000/svg" viewBox="0 0 110 110"><defs><style>.cls-1,.cls-2{fill:#652d89;}.cls-1{fill-rule:evenodd;}.cls-3{fill:#fff;}.cls-4{fill:none;}</style></defs><title>ჯეოლაბის ლოგოები ზომებით (თათუნას ფაილი)</title><g id="Layer_2" data-name="Layer 2"><path class="cls-1" d="M42.94,94.77a1.73,1.73,0,0,1,1.83-1.7c1.12,0,1.53.64,1.75,1.7Zm1.89-3.36a4,4,0,0,0-4.08,4.22,3.91,3.91,0,0,0,4.08,4.19,3.55,3.55,0,0,0,3.74-2.67H47.17a.93.93,0,0,0-.77.4,1.92,1.92,0,0,1-1.5.64,1.82,1.82,0,0,1-2-2H48.7c.16-2.31-1.06-4.75-3.88-4.75"/><path class="cls-1" d="M39.5,99.59h-.38c-.74,0-1.17-.23-1.36-1.22a3.73,3.73,0,0,1-3,1.46c-3.13,0-5.28-2.27-5.28-5.58s2.13-5.68,5.28-5.68a4.29,4.29,0,0,1,4.55,3.8H37.07a2.18,2.18,0,0,0-2.29-1.81c-2,0-2.92,1.63-2.92,3.7,0,1.68.72,3.6,2.92,3.6a2.33,2.33,0,0,0,2.57-2.32H35V93.77h2.37c1.74,0,2.15.49,2.15,1.67Z"/><path class="cls-1" d="M54.08,93.07c-1.48,0-1.94,1.25-1.94,2.57s.49,2.55,1.94,2.55S56,97,56,95.64s-.47-2.57-1.95-2.57m4.14,2.57a4.14,4.14,0,1,1-4.14-4.22,3.9,3.9,0,0,1,4.14,4.22"/><path class="cls-1" d="M71,95.55a4.36,4.36,0,0,1-1.82.46c-.68.14-1.3.52-1.3,1.33s.63,1,1.34,1A1.63,1.63,0,0,0,71,96.52Zm-3.71-1.47H65.93c.12-2.05,2-2.67,3.75-2.67,1.59,0,3.51.36,3.51,2.27v4.15a4.09,4.09,0,0,0,.28,1.78h-1a1.22,1.22,0,0,1-1.38-1,3.28,3.28,0,0,1-2.71,1.18c-1.51,0-2.72-.76-2.72-2.39,0-1.81,1.36-2.24,2.72-2.42S71,94.85,71,94s-.65-1.08-1.42-1.08a1.32,1.32,0,0,0-1.29.62,1.06,1.06,0,0,1-1,.59"/><path class="cls-1" d="M78.57,98.19c-1.45,0-1.93-1.18-1.93-2.55s.46-2.57,1.93-2.57,1.95,1.25,1.95,2.57-.5,2.55-1.95,2.55m0-6.77a4.59,4.59,0,0,0-1.95.41V90.34c0-1.49-.3-1.77-2.18-1.77v7.13h0a4.14,4.14,0,1,0,4.13-4.28"/><path class="cls-1" d="M62.93,97.65H61.64V90.33c0-1.49-.3-1.77-2.18-1.77v9.23c0,1.51.3,2,2.17,2H64.7c0-1.88-.28-2.17-1.77-2.18"/><path class="cls-2" d="M55.64,57.46l.93-.93a3.13,3.13,0,0,1,4.09-3.63L58.54,55l1.58,1.62,2.11-2a2.94,2.94,0,0,1,.12,1.38,2.9,2.9,0,0,1-.88,1.93,2.93,2.93,0,0,1-3,.68l-1,1-2.95,2.95L53.5,63.49a2.39,2.39,0,1,1-2-1.9l1.18-1.18Z"/><circle class="cls-3" cx="51.16" cy="63.93" r="0.83" transform="translate(-0.08 0.07) rotate(-0.07)"/><path class="cls-2" d="M52.69,60.41,49.44,56.9a.42.42,0,0,1-.13-.2l-.86-3.41a.41.41,0,0,1,.11-.4h0A.41.41,0,0,1,49,52.8l3.33,1.12a.41.41,0,0,1,.19.15l3.15,3.39,1.88,2,3.34,3.6a1.06,1.06,0,0,1,0,1.5L59.3,66a1.06,1.06,0,0,1-1.5-.08l-3.23-3.48Z"/><path class="cls-3" d="M52.72,55.39a.14.14,0,0,0-.2,0l-.11.11a.14.14,0,0,0,0,.2l6.06,6.54a.14.14,0,0,0,.2,0l.11-.1a.14.14,0,0,0,0-.2Z"/><polygon class="cls-3" points="51.88 54.35 50.21 53.79 49.48 54.47 49.91 56.17 51.88 54.35"/><path class="cls-3" d="M58.1,65a.69.69,0,0,0,1,.05l1-.91a.68.68,0,0,0,0-1l-.58-.63-2,1.83Z"/><path class="cls-2" d="M41.39,46.17h0"/><circle class="cls-2" cx="66.5" cy="54.66" r="0.89"/><circle class="cls-2" cx="64.11" cy="50.29" r="0.89"/><circle class="cls-2" cx="47.16" cy="49.93" r="0.89"/><circle class="cls-2" cx="44.29" cy="54.22" r="0.89"/><path class="cls-2" d="M45,60.93a1.35,1.35,0,0,1-.43,0l-.31.5-.46-.18.12-.58a1.42,1.42,0,0,1-.31-.3l-.58.14-.2-.45.5-.32a1.42,1.42,0,0,1,0-.43l-.51-.3.18-.46.58.12a1.39,1.39,0,0,1,.3-.31l-.15-.58.46-.2.33.5a1.54,1.54,0,0,1,.42,0l.31-.51.46.18-.12.59a1.43,1.43,0,0,1,.31.3l.58-.15.2.46-.5.33a1.48,1.48,0,0,1,0,.43l.51.31-.18.46L46,60.35a1.47,1.47,0,0,1-.3.31l.14.57-.45.2Z"/><circle class="cls-2" cx="46.28" cy="65.13" r="0.89"/><path class="cls-2" d="M49.42,70a.89.89,0,1,1,.89-.89A.89.89,0,0,1,49.42,70Z"/><path class="cls-4" d="M40.15,38.11a8.87,8.87,0,0,0,1.87.36.59.59,0,0,0-.06.26l0,1a.61.61,0,0,0,.63.59l1,0a.61.61,0,0,0,.59-.62l0-1a.57.57,0,0,0-.07-.25,8.89,8.89,0,0,0,1.83-.48.56.56,0,0,0,.07.24l.46.85a.62.62,0,0,0,.82.25l.88-.46a.61.61,0,0,0,.25-.82L48,37.14a.59.59,0,0,0-.16-.19,8.84,8.84,0,0,0,1.43-1.22.61.61,0,0,0,.16.17l.79.57a.61.61,0,0,0,.85-.13l.59-.8a.6.6,0,0,0-.14-.84l-.79-.56A.57.57,0,0,0,50.5,34a8.67,8.67,0,0,0,.74-1.72.59.59,0,0,0,.2.08l1,.17a.62.62,0,0,0,.71-.49l.17-1a.61.61,0,0,0-.49-.7l-1-.17a.56.56,0,0,0-.21,0,8.6,8.6,0,0,0-.09-1.87.68.68,0,0,0,.2,0l.94-.27a.61.61,0,0,0,.42-.75l-.28-.95a.61.61,0,0,0-.75-.42l-.94.27a.57.57,0,0,0-.18.09A8.66,8.66,0,0,0,50,24.71a.64.64,0,0,0,.17-.1l.72-.65a.6.6,0,0,0,0-.85l-.67-.73a.61.61,0,0,0-.86,0l-.72.64a.57.57,0,0,0-.11.15,9,9,0,0,0-1.39-1l-.16-.08a.6.6,0,0,0,.11-.16l.37-.9a.61.61,0,0,0-.33-.78l-.92-.37a.61.61,0,0,0-.8.33l-.36.9a.6.6,0,0,0,0,.19A8.59,8.59,0,0,0,43.83,21a.57.57,0,0,0,0-.19v-1a.61.61,0,0,0-.61-.6h-1a.61.61,0,0,0-.61.6v1a.6.6,0,0,0,0,.2,8.91,8.91,0,0,0-1.84.43.53.53,0,0,0-.05-.21l-.43-.87a.61.61,0,0,0-.82-.28l-.89.43a.61.61,0,0,0-.28.81l.43.87a.61.61,0,0,0,.14.17,8.59,8.59,0,0,0-1.46,1.18.65.65,0,0,0-.15-.17l-.77-.59a.61.61,0,0,0-.85.1l-.61.78a.6.6,0,0,0,.1.85l.77.59a.58.58,0,0,0,.21.11l-.07.11a8.62,8.62,0,0,0-.72,1.58.58.58,0,0,0-.22-.1l-1-.2a.61.61,0,0,0-.72.46l-.21,1a.6.6,0,0,0,.47.72l.95.2A.62.62,0,0,0,34,29a8.65,8.65,0,0,0,0,1.88.58.58,0,0,0-.27,0l-.94.23a.61.61,0,0,0-.45.73l.24,1a.61.61,0,0,0,.74.44l.95-.23a.62.62,0,0,0,.24-.12,8.84,8.84,0,0,0,.87,1.68.58.58,0,0,0-.25.12l-.75.62a.6.6,0,0,0-.08.85l.64.76a.62.62,0,0,0,.86.07l.75-.62a.59.59,0,0,0,.16-.22,8.82,8.82,0,0,0,1.52,1.14.58.58,0,0,0-.17.22l-.4.88a.61.61,0,0,0,.31.8l.91.4a.62.62,0,0,0,.81-.31l.4-.88A.57.57,0,0,0,40.15,38.11Zm6.91-11.83a5.51,5.51,0,0,1,0,7l-2-2a2.66,2.66,0,0,0,.41-1.88,2.69,2.69,0,0,0-.4-1Zm-4.28-2a5.5,5.5,0,0,1,3.49,1.25l-2,2a2.66,2.66,0,0,0-2.93,0l-2-2A5.5,5.5,0,0,1,42.78,24.25Zm1.28,6.45a1.58,1.58,0,1,1-1.52-2.48l.25,0a1.59,1.59,0,0,1,1.56,1.33A1.56,1.56,0,0,1,44.06,30.7Zm-5.55,2.57a5.51,5.51,0,0,1,0-7l2,2a2.64,2.64,0,0,0,0,2.92Zm.78.78,2-2a2.67,2.67,0,0,0,1.46.44A2.68,2.68,0,0,0,44.25,32l2,2a5.51,5.51,0,0,1-7,0Z"/><path class="cls-4" d="M55,25.33c1.5-4.57,5-8.38,9.45-11,.25-.15.52-.28.77-.42a18.54,18.54,0,0,0-20.41,0c.24.14.51.26.74.4C50,16.95,53.49,20.76,55,25.33Z"/><path class="cls-4" d="M55,44.92a16.41,16.41,0,0,0,1.95-1.77,3.59,3.59,0,0,0-.56-.29h0a3.62,3.62,0,0,0-2.75,0h0a3.61,3.61,0,0,0-.57.3A16.39,16.39,0,0,0,55,44.92Z"/><path class="cls-4" d="M53.89,39.1a7.24,7.24,0,0,1,2.13,0l.83-1.36a8.82,8.82,0,0,1,1.39.42h0l.26.12L55,34l-3.51,4.25A8.76,8.76,0,0,1,53,37.75Z"/><path class="cls-4" d="M77.22,30.41l-1-.17a.58.58,0,0,0-.21,0A8.61,8.61,0,0,0,76,28.38a.64.64,0,0,0,.2,0l.94-.27a.61.61,0,0,0,.42-.75l-.28-.95a.62.62,0,0,0-.75-.42l-.94.27a.62.62,0,0,0-.18.09,8.65,8.65,0,0,0-.91-1.64.69.69,0,0,0,.17-.1l.72-.65a.6.6,0,0,0,0-.85l-.67-.73a.61.61,0,0,0-.86,0l-.72.64a.61.61,0,0,0-.11.15,9,9,0,0,0-1.39-1l-.16-.08a.62.62,0,0,0,.11-.16L72,21a.61.61,0,0,0-.33-.79l-.92-.37a.62.62,0,0,0-.8.33l-.36.9a.58.58,0,0,0,0,.19A8.54,8.54,0,0,0,68.26,21a.58.58,0,0,0,0-.19v-1a.61.61,0,0,0-.61-.6h-1a.61.61,0,0,0-.61.6v1a.57.57,0,0,0,0,.2,9,9,0,0,0-1.84.43.54.54,0,0,0-.05-.21l-.43-.87a.62.62,0,0,0-.82-.28l-.89.43a.61.61,0,0,0-.28.81l.43.87a.6.6,0,0,0,.14.17,8.64,8.64,0,0,0-1.46,1.18.67.67,0,0,0-.15-.17L60,22.81a.61.61,0,0,0-.85.1l-.61.78a.6.6,0,0,0,.1.85l.77.59a.6.6,0,0,0,.21.11l-.07.11a8.69,8.69,0,0,0-.72,1.58.58.58,0,0,0-.22-.1l-1-.2a.61.61,0,0,0-.72.46l-.21,1a.61.61,0,0,0,.47.72l.95.2a.6.6,0,0,0,.26,0,8.65,8.65,0,0,0,0,1.88.59.59,0,0,0-.27,0l-.94.23a.6.6,0,0,0-.45.73l.24,1a.61.61,0,0,0,.74.44l.95-.23a.62.62,0,0,0,.24-.12,8.81,8.81,0,0,0,.87,1.68.59.59,0,0,0-.25.12l-.75.62a.6.6,0,0,0-.08.85l.64.76a.62.62,0,0,0,.86.08l.75-.62a.61.61,0,0,0,.16-.22,8.76,8.76,0,0,0,1.52,1.14.59.59,0,0,0-.17.22l-.4.88a.61.61,0,0,0,.31.8l.91.4a.61.61,0,0,0,.81-.31l.4-.88a.57.57,0,0,0,0-.27,8.8,8.8,0,0,0,1.87.36.58.58,0,0,0-.06.26l0,1a.61.61,0,0,0,.63.58l1,0a.61.61,0,0,0,.59-.62l0-1a.6.6,0,0,0-.07-.25,8.84,8.84,0,0,0,1.83-.48.55.55,0,0,0,.07.24l.46.85a.62.62,0,0,0,.82.25l.88-.46a.61.61,0,0,0,.25-.82l-.46-.85a.59.59,0,0,0-.16-.19,8.75,8.75,0,0,0,1.43-1.22.63.63,0,0,0,.16.17l.79.56a.62.62,0,0,0,.85-.13l.59-.8a.6.6,0,0,0-.13-.84l-.79-.56a.57.57,0,0,0-.21-.1,8.61,8.61,0,0,0,.74-1.72.61.61,0,0,0,.2.08l1,.17a.62.62,0,0,0,.71-.49l.17-1A.61.61,0,0,0,77.22,30.41Zm-10-6.15a5.51,5.51,0,0,1,4.2,1.94H63A5.52,5.52,0,0,1,67.22,24.25Zm0,11A5.51,5.51,0,0,1,63,33.36h8.4A5.51,5.51,0,0,1,67.22,35.3Zm4.93-3H62.28a5.47,5.47,0,0,1-.57-1.92h11A5.47,5.47,0,0,1,72.15,32.25Zm-10.43-3a5.48,5.48,0,0,1,.56-1.92h9.87a5.48,5.48,0,0,1,.56,1.92Z"/><polygon class="cls-4" points="51.41 77.91 51.41 77.91 51.41 77.91 51.41 77.91"/><path class="cls-4" d="M58.1,48.37Z"/><path class="cls-4" d="M55,47.32a16.57,16.57,0,0,0-3.45.36v0h0a3.84,3.84,0,0,0,2.08,2.08h0a3.62,3.62,0,0,0,2.75,0h0a3.91,3.91,0,0,0,2.08-2.08h0v0h0A16.57,16.57,0,0,0,55,47.32Z"/><path class="cls-4" d="M63.18,49.55h0c-.08.21-.18.42-.28.62l0,.11c-.08.15-.17.3-.25.45l-.14.24h0l-1.56-.35a7.21,7.21,0,0,1-1.5,1.52l.37,1.55h0A8.75,8.75,0,0,1,57,54.89l-.85-1.35a7.24,7.24,0,0,1-2.13,0l-.83,1.36a8.82,8.82,0,0,1-1.39-.42h0c-.21-.08-.42-.18-.62-.28l-.11,0-.45-.25-.24-.14h0l.35-1.56a7.21,7.21,0,0,1-1.52-1.5l-1.55.37h0a8.74,8.74,0,0,1-.79-1.55c-4.21,2.52-6.77,6.83-6.77,11,0,7.1,5.57,14,9.91,18.39l.18.16c.19-.26.08-.09,0,0h0a6,6,0,0,1,1.22-1.2c-.41.31,0,0,0,0l-.56-2.49,2-.79,1.35,2.18a6,6,0,0,1,1.82,0l1.36-2.16,2,.83L58.71,78c.45.33,0,0,0,0a6.61,6.61,0,0,1,1.11,1.11L60,79a47.37,47.37,0,0,0,5.81-7,6.62,6.62,0,0,1-.87-.9l-1.21.31a6.77,6.77,0,0,1-1-2.18l1-.68a5.55,5.55,0,0,1,0-1.67l-1.07-.64A6.86,6.86,0,0,1,63.61,64l1.22.26A5.72,5.72,0,0,1,66,63.1l-.31-1.21a6.82,6.82,0,0,1,2.18-1l.68,1a10.13,10.13,0,0,1,1.34,0c0-.45.07-.91.07-1.37C69.95,56.38,67.39,52.07,63.18,49.55Z"/><path class="cls-4" d="M55,79.21a3.66,3.66,0,0,0-3,1.58h0c1.75,1.59,3,2.51,3,2.53s1.26-.95,3-2.53h0A3.66,3.66,0,0,0,55,79.21Z"/><path class="cls-4" d="M51.41,77.91l0,0,0,0Z"/><polygon class="cls-4" points="55.01 83.33 55 83.33 54.99 83.33 55.01 83.33"/><path class="cls-4" d="M66.53,67.61a2.94,2.94,0,0,0,.78,2,22.85,22.85,0,0,0,2.05-4.94A3,3,0,0,0,66.53,67.61Z"/><path class="cls-2" d="M40.13,30.2a2.67,2.67,0,0,1,.41-1.88l-2-2a5.51,5.51,0,0,0,0,7l2-2A2.68,2.68,0,0,1,40.13,30.2Z"/><path class="cls-2" d="M46.28,34.05l-2-2a2.66,2.66,0,0,1-2.93,0l-2,2a5.51,5.51,0,0,0,7,0Z"/><path class="cls-2" d="M67.22,24.25A5.52,5.52,0,0,0,63,26.19h8.4A5.51,5.51,0,0,0,67.22,24.25Z"/><path class="cls-2" d="M42.36,27.12a2.65,2.65,0,0,1,1.88.4l2-2a5.51,5.51,0,0,0-7,0l2,2A2.66,2.66,0,0,1,42.36,27.12Z"/><path class="cls-2" d="M45.44,29.36A2.66,2.66,0,0,1,45,31.24l2,2a5.51,5.51,0,0,0,0-7l-2,2A2.69,2.69,0,0,1,45.44,29.36Z"/><path class="cls-2" d="M42.79,28.2l-.25,0a1.58,1.58,0,1,0,1.52,2.48,1.56,1.56,0,0,0,.28-1.17A1.59,1.59,0,0,0,42.79,28.2Z"/><path class="cls-2" d="M62.28,27.3a5.48,5.48,0,0,0-.56,1.92h11a5.48,5.48,0,0,0-.56-1.92Z"/><path class="cls-2" d="M67.22,35.3a5.51,5.51,0,0,0,4.2-1.94H63A5.51,5.51,0,0,0,67.22,35.3Z"/><path class="cls-2" d="M73,72.25l.58-.67a5.67,5.67,0,0,1-.61.55Z"/><path class="cls-2" d="M73.64,71.53l.51-.61h0A5.74,5.74,0,0,1,73.64,71.53Z"/><path class="cls-2" d="M62.28,32.25h9.86a5.47,5.47,0,0,0,.57-1.92h-11A5.47,5.47,0,0,0,62.28,32.25Z"/><path class="cls-2" d="M68.54,62l-.68-1a6.82,6.82,0,0,0-2.18,1L66,63.1a5.72,5.72,0,0,0-1.16,1.2L63.61,64a6.86,6.86,0,0,0-.86,2.21l1.07.64a5.55,5.55,0,0,0,0,1.67l-1,.68a6.77,6.77,0,0,0,1,2.18L65,71.11a6.62,6.62,0,0,0,.87.9c.52-.78,1-1.58,1.47-2.4a2.94,2.94,0,0,1,2.05-4.94,16.29,16.29,0,0,0,.51-2.73A10.13,10.13,0,0,0,68.54,62Z"/><path class="cls-2" d="M50.12,79.18l0,0h0Z"/><path class="cls-2" d="M51.41,77.91s-.44.33,0,0l0,0Z"/><path class="cls-2" d="M50.15,79.12h0C50.23,79,50.34,78.86,50.15,79.12Z"/><path class="cls-2" d="M58.74,78s.43.3,0,0l.59-2.49-2-.83L56,76.82a6,6,0,0,0-1.82,0l-1.35-2.18-2,.79.56,2.49h0l0,0a6,6,0,0,0-1.22,1.2L52,80.79a3.67,3.67,0,0,1,6,0l1.83-1.65A6.61,6.61,0,0,0,58.74,78Z"/><path class="cls-2" d="M61.08,82.08c.08.53,0,0,0,0Z"/><path class="cls-2" d="M78.37,36.48a12.9,12.9,0,0,0,1.84-6.63s0-.06,0-.1c0-12.88,2.72-20,2.72-20H82.3a36.94,36.94,0,0,0-15.51,3.34,20.15,20.15,0,0,0-23.57,0A36.94,36.94,0,0,0,27.7,9.72h-.63s2.71,7.16,2.73,20c0,0,0,.06,0,.1a12.9,12.9,0,0,0,1.84,6.63c-11.46,14.55-.4,34.29,17.26,46q1.32.88,2.7,1.7,1.68,1,3.42,1.9h0c1.17-.6,2.31-1.25,3.43-1.92q1.36-.81,2.67-1.68a62.64,62.64,0,0,0,10-8.21q1-1,1.91-2l0-.12a5.67,5.67,0,0,0,.61-.55l0,0a5.74,5.74,0,0,0,.5-.61h0q.89-1.07,1.71-2.18C83.61,58.31,86,46.23,78.37,36.48ZM55,10.82a18.49,18.49,0,0,1,10.21,3.05c-.25.14-.53.27-.77.42-4.43,2.66-7.95,6.47-9.45,11-1.5-4.57-5-8.38-9.45-11-.24-.14-.5-.27-.74-.4A18.55,18.55,0,0,1,55,10.82ZM58.1,48.37a3.8,3.8,0,0,1-1.72,1.41h0a3.62,3.62,0,0,1-2.75,0h0a3.84,3.84,0,0,1-2.08-2.08h0v0a16.64,16.64,0,0,1,6.91,0h0v0h0a3.81,3.81,0,0,1-.36.67Zm-1.16-5.22A16.41,16.41,0,0,1,55,44.92a16.39,16.39,0,0,1-1.94-1.77C52,42,50.9,40.48,50.9,39l.59-.72L55,34l3.51,4.25.59.71C59.1,40.48,58,42,56.94,43.15Zm-18-3.59-.91-.4a.61.61,0,0,1-.31-.8l.4-.88a.58.58,0,0,1,.17-.22,8.82,8.82,0,0,1-1.52-1.14.59.59,0,0,1-.16.22l-.75.62A.62.62,0,0,1,35,36.9l-.64-.76a.6.6,0,0,1,.08-.85l.75-.62a.58.58,0,0,1,.25-.12,8.84,8.84,0,0,1-.87-1.68.62.62,0,0,1-.24.12l-.95.23a.61.61,0,0,1-.74-.44l-.24-1a.61.61,0,0,1,.45-.73l.94-.23a.58.58,0,0,1,.27,0A8.65,8.65,0,0,1,34,29a.62.62,0,0,1-.26,0l-.95-.2a.6.6,0,0,1-.47-.72l.21-1a.61.61,0,0,1,.72-.46l1,.2a.58.58,0,0,1,.22.1,8.62,8.62,0,0,1,.72-1.58l.07-.11a.58.58,0,0,1-.21-.11l-.77-.59a.6.6,0,0,1-.1-.85l.61-.78a.61.61,0,0,1,.85-.1l.77.59a.65.65,0,0,1,.15.17,8.59,8.59,0,0,1,1.46-1.18.61.61,0,0,1-.14-.17l-.43-.87a.61.61,0,0,1,.28-.81l.89-.43a.61.61,0,0,1,.82.28l.43.87a.53.53,0,0,1,.05.21A8.91,8.91,0,0,1,41.69,21a.6.6,0,0,1,0-.2v-1a.61.61,0,0,1,.61-.6h1a.61.61,0,0,1,.61.6v1a.57.57,0,0,1,0,.19,8.59,8.59,0,0,1,1.24.25.6.6,0,0,1,0-.19l.36-.9a.61.61,0,0,1,.8-.33l.92.37a.61.61,0,0,1,.33.78l-.37.9a.6.6,0,0,1-.11.16l.16.08a9,9,0,0,1,1.39,1,.57.57,0,0,1,.11-.15l.72-.64a.61.61,0,0,1,.86,0l.67.73a.6.6,0,0,1,0,.85l-.72.65a.64.64,0,0,1-.17.1,8.66,8.66,0,0,1,.91,1.64.57.57,0,0,1,.18-.09l.94-.27a.61.61,0,0,1,.75.42l.28.95a.61.61,0,0,1-.42.75l-.94.27a.68.68,0,0,1-.2,0,8.6,8.6,0,0,1,.09,1.87.56.56,0,0,1,.21,0l1,.17a.61.61,0,0,1,.49.7l-.17,1a.62.62,0,0,1-.71.49l-1-.17a.59.59,0,0,1-.2-.08A8.67,8.67,0,0,1,50.5,34a.57.57,0,0,1,.21.09l.79.56a.6.6,0,0,1,.14.84l-.59.8a.61.61,0,0,1-.85.13l-.79-.57a.61.61,0,0,1-.16-.17A8.84,8.84,0,0,1,47.81,37a.59.59,0,0,1,.16.19l.46.85a.61.61,0,0,1-.25.82l-.88.46a.62.62,0,0,1-.82-.25L46,38.17a.56.56,0,0,1-.07-.24,8.89,8.89,0,0,1-1.83.48.57.57,0,0,1,.07.25l0,1a.61.61,0,0,1-.59.62l-1,0A.61.61,0,0,1,42,39.7l0-1a.59.59,0,0,1,.06-.26,8.87,8.87,0,0,1-1.87-.36.57.57,0,0,1,0,.27l-.4.88A.62.62,0,0,1,38.91,39.56ZM61.08,82.08h0S61.16,82.6,61.08,82.08Zm8.8-20.14a16.29,16.29,0,0,1-.51,2.73,22.85,22.85,0,0,1-2.05,4.94c-.45.82-.95,1.62-1.47,2.4A47.37,47.37,0,0,1,60,79l-.19.17L58,80.78h0c-1.75,1.59-3,2.51-3,2.53h0s-1.26-.95-3-2.53h0l-1.83-1.66,0,0,0-.05h0L50,79c-4.34-4.34-9.91-11.29-9.91-18.39,0-4.19,2.56-8.51,6.77-11a8.74,8.74,0,0,0,.79,1.55h0l1.55-.37a7.21,7.21,0,0,0,1.52,1.5l-.35,1.56h0l.24.14.45.25.11,0c.2.1.41.19.62.28h0a8.82,8.82,0,0,0,1.39.42L54,53.56a7.24,7.24,0,0,0,2.13,0L57,54.89a8.75,8.75,0,0,0,2.8-1.18h0l-.37-1.55a7.21,7.21,0,0,0,1.5-1.52l1.56.35h0l.14-.24c.09-.15.18-.3.25-.45l0-.11c.1-.21.2-.41.28-.62h0c4.21,2.52,6.76,6.83,6.76,11C69.95,61,69.92,61.48,69.88,61.94Zm7.66-29.86a.62.62,0,0,1-.71.49l-1-.17a.61.61,0,0,1-.2-.08A8.61,8.61,0,0,1,74.93,34a.57.57,0,0,1,.21.1l.79.56a.6.6,0,0,1,.13.84l-.59.8a.62.62,0,0,1-.85.13l-.79-.56a.63.63,0,0,1-.16-.17A8.75,8.75,0,0,1,72.24,37a.59.59,0,0,1,.16.19l.46.85a.61.61,0,0,1-.25.82l-.88.46A.62.62,0,0,1,70.9,39l-.46-.85a.55.55,0,0,1-.07-.24,8.84,8.84,0,0,1-1.83.48.6.6,0,0,1,.07.25l0,1a.61.61,0,0,1-.59.62l-1,0a.61.61,0,0,1-.63-.58l0-1a.58.58,0,0,1,.06-.26,8.8,8.8,0,0,1-1.87-.36.57.57,0,0,1,0,.27l-.4.88a.61.61,0,0,1-.81.31l-.91-.4a.61.61,0,0,1-.31-.8l.4-.88a.59.59,0,0,1,.17-.22,8.76,8.76,0,0,1-1.52-1.14.61.61,0,0,1-.16.22l-.75.62a.62.62,0,0,1-.86-.08l-.64-.76a.6.6,0,0,1,.08-.85l.75-.62a.59.59,0,0,1,.25-.12A8.81,8.81,0,0,1,59,32.87a.62.62,0,0,1-.24.12l-.95.23a.61.61,0,0,1-.74-.44l-.24-1a.6.6,0,0,1,.45-.73l.94-.23a.59.59,0,0,1,.27,0,8.65,8.65,0,0,1,0-1.88.6.6,0,0,1-.26,0l-.95-.2a.61.61,0,0,1-.47-.72l.21-1a.61.61,0,0,1,.72-.46l1,.2a.58.58,0,0,1,.22.1,8.69,8.69,0,0,1,.72-1.58l.07-.11a.6.6,0,0,1-.21-.11l-.77-.59a.6.6,0,0,1-.1-.85l.61-.78a.61.61,0,0,1,.85-.1l.77.59a.67.67,0,0,1,.15.17,8.64,8.64,0,0,1,1.46-1.18.6.6,0,0,1-.14-.17l-.43-.87a.61.61,0,0,1,.28-.81l.89-.43a.62.62,0,0,1,.82.28l.43.87a.54.54,0,0,1,.05.21A9,9,0,0,1,66.13,21a.57.57,0,0,1,0-.2v-1a.61.61,0,0,1,.61-.6h1a.61.61,0,0,1,.61.6v1a.58.58,0,0,1,0,.19,8.54,8.54,0,0,1,1.24.25.58.58,0,0,1,0-.19l.36-.9a.62.62,0,0,1,.8-.33l.92.37A.61.61,0,0,1,72,21l-.37.9a.62.62,0,0,1-.11.16l.16.08a9,9,0,0,1,1.39,1,.61.61,0,0,1,.11-.15l.72-.64a.61.61,0,0,1,.86,0l.67.73a.6.6,0,0,1,0,.85l-.72.65a.69.69,0,0,1-.17.1,8.65,8.65,0,0,1,.91,1.64.62.62,0,0,1,.18-.09l.94-.27a.62.62,0,0,1,.75.42l.28.95a.61.61,0,0,1-.42.75l-.94.27a.64.64,0,0,1-.2,0A8.61,8.61,0,0,1,76,30.24a.58.58,0,0,1,.21,0l1,.17a.61.61,0,0,1,.49.7Z"/></g></svg>