<?xml version="1.0" encoding="utf-8"?>
<!-- Generator: Adobe Illustrator 22.0.0, SVG Export Plug-In . SVG Version: 6.00 Build 0)  -->
<svg version="1.1"
	 id="svg3282" inkscape:version="0.92.2 (5c3e80d, 2017-08-06)" sodipodi:docname="Microsoft Studios (Horizontal).svg" xmlns:cc="http://creativecommons.org/ns#" xmlns:dc="http://purl.org/dc/elements/1.1/" xmlns:inkscape="http://www.inkscape.org/namespaces/inkscape" xmlns:rdf="http://www.w3.org/1999/02/22-rdf-syntax-ns#" xmlns:sodipodi="http://sodipodi.sourceforge.net/DTD/sodipodi-0.dtd" xmlns:svg="http://www.w3.org/2000/svg"
	 xmlns="http://www.w3.org/2000/svg" xmlns:xlink="http://www.w3.org/1999/xlink" x="0px" y="0px" viewBox="0 0 1000 285.5"
	 style="enable-background:new 0 0 1000 285.5;" xml:space="preserve">
<style type="text/css">
	.st0{fill:#FFFFFF;}
</style>
<sodipodi:namedview  bordercolor="#666666" borderopacity="1" gridtolerance="10" guidetolerance="10" id="namedview953" inkscape:current-layer="svg3282" inkscape:cx="489.37376" inkscape:cy="167.79391" inkscape:pageopacity="0" inkscape:pageshadow="2" inkscape:window-height="706" inkscape:window-maximized="1" inkscape:window-width="1360" inkscape:window-x="-8" inkscape:window-y="-8" inkscape:zoom="0.49091761" objecttolerance="10" pagecolor="#ffffff" showgrid="false">
	</sodipodi:namedview>
<g id="g1974" transform="translate(0,-316.29097)">
	<path id="path1730" inkscape:connector-curvature="0" class="st0" d="M480.8,316.3h9c0.8,0.2,2.4,0.7,3.2,0.9
		c0.1,3.3,0.1,6.7,0.1,10c-5.4-2-12.9-2.8-16.5,2.8c-3.4,6.1-1.8,13.5-2.1,20.2c5.3,0,10.5,0,15.8,0c0,3.1,0,6.2,0,9.2
		c-5.3,0-10.5,0-15.8,0c0,19.5,0,39.1,0,58.6c-3.9,0-7.7,0-11.6,0c0-19.5,0-39.1,0-58.6c-3.7,0-7.5,0-11.2,0c0-3.1,0-6.2,0-9.2
		c3.7,0,7.4,0,11.2,0c0.1-6.7-0.4-13.5,1.6-20C466.8,323,473.4,317.7,480.8,316.3L480.8,316.3z"/>
	<path id="path1732" inkscape:connector-curvature="0" class="st0" d="M804.8,317.5c7.1,0,14.1,0,21.2,0c0,33.5,0,67.1,0,100.7
		c-7.1,0-14.2,0-21.2,0c0-3,0-5.9,0.1-8.9c-9.5,14.4-33.3,14-43,0.1c-6.8-9.4-7.4-21.8-5.8-32.9c1.6-11.3,8.8-22.4,19.8-26.4
		c9.9-3.4,23-2.4,29,7.3C804.6,344.1,804.8,330.8,804.8,317.5 M785.9,366c-5.8,2.7-8.2,9.3-8.8,15.3c-0.5,5.8-0.2,12.2,3.4,17.1
		c4,5.6,12.9,6.9,18.2,2.5c4.5-3.5,6.3-9.4,6.4-15c0.1-5.2,0.4-11-2.8-15.5C798.9,365.1,791.5,363.4,785.9,366L785.9,366z"/>
	<path id="path1734" inkscape:connector-curvature="0" class="st0" d="M842.9,318.5c7.3-3.1,16.3,3.7,14.8,11.7
		c-0.5,8.2-11.5,12.7-17.7,7.3C833.5,332.7,835.2,321.1,842.9,318.5z"/>
	<path id="path1736" inkscape:connector-curvature="0" class="st0" d="M133.1,319.5c4.5-2.3,10.9,0.8,10.8,6.2
		c0.4,5.8-7,10-11.6,6.3C127.7,329.4,128.1,321.5,133.1,319.5z"/>
	<path id="path1738" inkscape:connector-curvature="0" class="st0" d="M574.8,327.6c13.8-8.8,31.6-7.1,46.7-2.7
		c0.2,6.8,0,13.7,0.2,20.5c-8-5.1-17.8-8.1-27.3-6.2c-4.5,0.9-8.6,4.8-8,9.7c0.2,4.9,4.5,8.1,8.4,10.2c8.5,4.7,17.9,8.2,24.7,15.4
		c7,7.4,7.7,19.1,4.1,28.3c-4.2,9.9-14.8,15.3-25,16.5c-11.7,1.2-24.1,0.9-34.8-4.6c0-7.3,0-14.5,0-21.8c8.4,6.8,19.4,11.5,30.3,9.4
		c4.8-0.8,9.6-5,8.6-10.3c-1.2-6.1-7.4-9.1-12.4-11.7c-8.3-3.9-17-8.1-22.4-15.9C559.6,352.9,562.8,335.1,574.8,327.6L574.8,327.6z"
		/>
	<path id="path1740" inkscape:connector-curvature="0" class="st0" d="M15.8,322.9c5,0,10,0,15,0c11.1,25.9,23.3,51.4,33.6,77.6
		c1.8-5.1,3.8-10.1,6.1-15.1c9.4-20.8,18.8-41.7,28.2-62.5c4.8,0,9.5,0,14.3,0c0,31.8,0,63.5,0,95.3c-3.9,0-7.7,0-11.6,0
		c0-26.4-0.2-52.7,0.2-79c-0.8,2.4-1.5,4.8-2.4,7.1c-10.5,24-21.3,47.9-31.9,71.9c-2,0-4,0-5.9,0.1c-11.7-26.6-24.2-52.9-35.3-79.7
		c0.4,4,0.9,7.9,0.8,11.9c-0.1,22.6,0,45.2,0,67.8c-3.7,0-7.5,0-11.2,0C15.8,386.4,15.8,354.6,15.8,322.9L15.8,322.9z"/>
	<path id="path1742" inkscape:connector-curvature="0" class="st0" d="M508.1,333.6c3.7-1.3,7.5-2.5,11.2-3.6c0,6.8,0,13.5,0,20.3
		c5.7,0,11.3,0,17,0c0,3.1,0,6.2,0,9.3c-5.7,0-11.3,0-17,0c0,12.8,0,25.7,0,38.5c0,3.5,0.2,7.6,3.2,10c4,3.2,9.7,2.1,13.9-0.1
		c-0.1,3.3-0.2,6.7-0.2,10c-6.8,2.1-14.8,2.9-21.2-1c-5.2-3.4-7-9.9-6.9-15.8c0-13.9,0-27.8,0-41.7c-4,0-8,0-12,0c0-3.1,0-6.2,0-9.3
		c4,0,8,0,12,0C508.1,344.7,508.1,339.1,508.1,333.6L508.1,333.6z"/>
	<path id="path1744" inkscape:connector-curvature="0" class="st0" d="M637.7,335.4c7.1-1.9,14.2-4,21.2-6c0,6.9,0,13.9,0,20.8
		c5,0,10,0,15,0c0,5.3,0,10.5,0,15.8c-5,0-10,0-15,0c0,9.2-0.1,18.3,0,27.5c-0.1,3.6,1.2,7.9,4.9,9.3c3.4,1.7,6.9-0.2,10.2-1.2
		c-0.1,5.4-0.1,10.8-0.1,16.2c-7.8,2.3-16.5,2.9-24.4,0.4c-7.8-2.6-11.7-10.9-11.8-18.6c-0.1-11.2,0-22.4-0.1-33.6
		c-3.7,0-7.4,0-11.2,0c0-5.3,0-10.5,0-15.8c3.7,0,7.5,0,11.2,0C637.7,345.3,637.7,340.4,637.7,335.4L637.7,335.4z"/>
	<path id="path1746" inkscape:connector-curvature="0" class="st0" d="M164.2,356.9c10.6-9.7,27-10.7,39.9-5.3c0,3.9,0,7.8,0,11.7
		c-8.2-5.3-19.3-7.4-28-2.1c-13.4,8.5-15.4,29.2-6.1,41.4c8.3,10.2,24.4,9.4,34.2,1.7c0,3.7,0,7.3,0,10.9
		c-8.2,4.7-18.1,5.5-27.2,3.8c-11.7-2.4-20.9-12.5-23.1-24.1C151.1,381.6,153.9,366.3,164.2,356.9L164.2,356.9z"/>
	<path id="path1748" inkscape:connector-curvature="0" class="st0" d="M238.3,351c4.4-2.8,9.7-1.8,14.5-1.7c0.3,4,0.3,8,0.3,12.1
		c-4.4-2.1-9.8-3.1-14.3-0.6c-7,4.1-9.9,12.6-10,20.3c0,12.4,0,24.7,0,37.1c-3.7,0-7.5,0-11.2,0c0-22.6,0-45.3,0-67.9
		c3.7,0,7.5,0,11.2,0c0,4.3,0,8.5-0.2,12.8C230.8,358.4,233.6,353.6,238.3,351L238.3,351z"/>
	<path id="path1750" inkscape:connector-curvature="0" class="st0" d="M281.3,349.2c10.9-2.1,23.5-0.4,31.6,7.8
		c8.1,8.4,10.1,20.9,9,32.1c-0.8,9.9-5.6,19.7-14,25.3c-8.5,5.8-19.6,6.4-29.5,4.4c-11.7-2.6-20.6-13-22.7-24.6
		c-1.7-9.9-1-20.6,3.7-29.6C263.9,356.4,272.2,350.7,281.3,349.2 M283,358.8c-8.4,1.8-14.3,9.4-15.7,17.6c-1.6,9.1-1.1,19.7,5.3,27
		c6,7.1,16.6,8.3,25,5.4c7-2.5,11.2-9.6,12.3-16.7c1.4-8.5,0.9-17.9-3.7-25.4C301.4,359.1,291.4,356.6,283,358.8L283,358.8z"/>
	<path id="path1752" inkscape:connector-curvature="0" class="st0" d="M338.4,353.7c8.9-6.9,21.3-6.2,31.4-2.6
		c0.2,3.9,0.3,7.8,0.3,11.8c-6.6-3.9-15.2-6.9-22.5-3.1c-5.6,2.5-6.3,11.1-1.5,14.8c7,5.2,16.4,6.6,22.6,13c7.5,7.9,5.6,22.4-3.8,28
		c-10,6.2-23.1,5.1-33.6,0.5c-0.2-4.2-0.2-8.3-0.2-12.5c7.1,5.3,16.7,8.5,25.4,5.3c5.9-1.9,7-10.9,2.2-14.5c-7.2-5.6-17-7-23.2-13.9
		C328.9,372.8,330.1,359.6,338.4,353.7L338.4,353.7z"/>
	<path id="path1754" inkscape:connector-curvature="0" class="st0" d="M405,349.6c11.3-2.7,24.5-1.5,33.2,6.9
		c8.4,8.3,10.6,21,9.5,32.4c-0.8,10.5-6.1,21-15.4,26.3c-7.7,4.8-17.3,5.1-26,4c-11.5-1.8-21.1-11-24-22.2
		c-2.5-9.8-2.1-20.6,1.8-30.1C387.9,358.3,395.8,351.8,405,349.6 M410.8,358.4c-8.6,1-15.6,8.1-17.4,16.5
		c-2.2,9.6-1.7,21.2,5.3,28.8c5.9,6.8,16,7.9,24.2,5.3c7.3-2.5,11.8-9.9,12.8-17.3c1.2-8.6,0.9-18.1-4.2-25.4
		C427.2,359.5,418.5,357,410.8,358.4L410.8,358.4z"/>
	<path id="path1756" inkscape:connector-curvature="0" class="st0" d="M895.3,348.9c12.1-1.6,25.9,0.4,34.6,9.7
		c9.1,9.2,10.6,23.6,7.8,35.7c-2.3,10.9-10.8,20.1-21.5,23.5c-8.2,2.6-17.2,2.5-25.6,1c-11.9-2.4-21.9-12-24.4-23.9
		c-1.9-10.3-1.6-21.7,4-30.8C875.5,355.3,885.3,350,895.3,348.9 M895.6,366.2c-9.9,5.3-10,18.7-7.2,28.1c3.4,11.2,21.5,12.6,26.5,2
		c3-7.3,3.1-15.9,0.6-23.4C912.6,365.2,902.5,363,895.6,366.2z"/>
	<path id="path1758" inkscape:connector-curvature="0" class="st0" d="M952.9,354.1c10.8-7.7,25.2-6.6,37.4-3.2
		c0,5.5,0,11.1,0.1,16.6c-6.5-3.2-14.2-6.1-21.5-3.8c-4,1.3-4.4,7.2-0.9,9.3c7.3,4.6,16.9,5.5,22.8,12.5c7.6,9.4,3.7,25-7.1,30.2
		c-12,5.9-26.5,4.8-38.9,0.6c0-5.8,0-11.6,0-17.5c7.7,4.2,16.9,8.1,25.7,5.3c3.9-1.1,5.1-6.9,1.5-9.1c-7.3-4.8-17-5.7-23.1-12.5
		C942.1,374.3,943.8,360.3,952.9,354.1L952.9,354.1z"/>
	<path id="path1760" inkscape:connector-curvature="0" class="st0" d="M130.8,350.3c3.7,0,7.5,0,11.2,0c0,22.6,0,45.3,0,67.9
		c-3.7,0-7.5,0-11.2,0C130.8,395.5,130.8,372.9,130.8,350.3L130.8,350.3z"/>
	<path id="path1762" inkscape:connector-curvature="0" class="st0" d="M682.5,350.3c7.2,0,14.4,0,21.6,0c0.1,14.2-0.2,28.5,0.1,42.7
		c0,6.2,5.8,11.4,12,10.5c6.6-0.3,11.1-6.8,11-13.1c0.1-13.4,0-26.8,0-40.2c7.1,0,14.1,0,21.2,0c0,22.6,0,45.3,0,67.9
		c-7.1,0-14.2,0-21.2,0c0-3.3,0-6.5,0-9.8c-7.6,12.7-27,15.6-37.7,5.6c-7.7-8.4-6.9-20.7-7.1-31.3
		C682.5,371.8,682.5,361,682.5,350.3L682.5,350.3z"/>
	<path id="path1764" inkscape:connector-curvature="0" class="st0" d="M836,350.3c7.1,0,14.2,0,21.2,0c0,22.6,0,45.2,0,67.8
		c-7.1,0-14.2,0-21.2,0C836,395.5,836,372.9,836,350.3L836,350.3z"/>
	<path id="path1766" inkscape:connector-curvature="0" class="st0" d="M390.5,442c47.3-1.4,94.6-1.1,141.9-1.1
		c56.9,1.1,113.9,4.4,170.5,10.9c67.1,7.8,134.1,19.5,198.4,40.4c22,7.4,43.8,15.6,64.3,26.6c16.1,8.9,30.9,23.1,34.4,41.9v10.8
		c-1.4,9-5.5,18-13.3,23.1c-6.3,4.5-14.1,6.3-21.6,7.2h-13.6c-27.3-2.4-52.1-14.4-77.3-23.9c-84.1-29.5-172.6-46.6-261.6-50.6
		c-3.2-0.3-6.7-0.5-9.3-2.5c-4.4-3.4-4.9-11.1-0.4-14.6c3.7-3.1,8.7-4.1,13.4-5c16.1-2.6,32.5-2.7,48.8-3.1c3.5-0.3,7.6,0,10.3-2.8
		c0.9-2.2-0.8-4.4-2.8-5.1c-3.8-1.5-8-2-12.1-2.5c-206.2-26-415.6-20.2-621.2,8.8c-10.9,1.4-22.3,4.5-33.1,1.1
		c-2.8-0.6-4.6-2.9-6.1-5.1v-5.7c3.8-6.7,11.8-8.5,18.6-10.7c40.3-11.3,81.9-17.3,123.4-22.3C224.5,448.1,307.5,444.1,390.5,442z"/>
	<path id="path1768" inkscape:connector-curvature="0" class="st0" d="M554.7,507.1c8.9-1.9,18.9-1,26.6,4c4.2,2.7,5.1,8.6,2.4,12.7
		c-3.2,5-9.3,6.8-14.7,8.3c-8.5,2.3-18.3,2-25.8-2.9c-3.8-2.4-5.9-7.4-4-11.7C541.8,511.2,548.5,508.3,554.7,507.1L554.7,507.1z"/>
</g>
</svg>
