<?xml version="1.0" encoding="utf-8"?>
<!-- Generator: Adobe Illustrator 22.0.0, SVG Export Plug-In . SVG Version: 6.00 Build 0)  -->
<svg version="1.1" id="Layer_1" xmlns="http://www.w3.org/2000/svg" xmlns:xlink="http://www.w3.org/1999/xlink" x="0px" y="0px"
	 viewBox="0 0 371.9 57.7" style="enable-background:new 0 0 371.9 57.7;" xml:space="preserve">
<style type="text/css">
	.st0{fill:#DB1F29;}
	.st1{fill:#FFFFFF;}
</style>
<g>
	<g>
		<path class="st0" d="M57.4,0.3H45.4H16.5C7.4,0.3,0,7.7,0,16.8v35.3v5.6l0,0h6.4h34.5c9.1,0,16.5-7.4,16.5-16.5V7.4L57.4,0.3
			L57.4,0.3z"/>
		<g>
			<path class="st1" d="M13.8,48.1c-4.9,0-4.9-4.9-4.9-4.9s0-19.6,0-24.5c0-4.9,4.9-4.9,4.9-4.9s4.9,0,9.8,0c4.9,0,9.8,4.9,9.8,4.9
				s4.9,0,0,0c0-14.3,4.5,5.3,9.8,0c3.5-3.5,4.9,17.1,4.9,17.1l-4.9-2.4c0,0,0-4.9-7.3-9.8c-9.1-6.1-19.6-2.1-19.6,7.3
				C16.2,50.2,48,43.2,48,43.2s0,4.9-4.9,4.9C38.2,48.1,13.8,48.1,13.8,48.1z"/>
			<path class="st1" d="M38.2,13.9c0-1.4,1.1-7.3,2.4-7.3c1.4,0,2.4,6,2.4,7.3c0,1.4-1.1,2.4-2.4,2.4C39.3,16.3,38.2,15.2,38.2,13.9
				z"/>
		</g>
	</g>
	<g>
		<g>
			<polygon class="st1" points="105.7,56.7 105.7,21.4 93.3,39.8 87.8,39.8 75.5,21.4 75.5,56.7 65.6,56.7 65.6,1 73.5,1 90.6,26.2 
				107.7,1 115.5,1 115.5,56.7 			"/>
		</g>
		<g>
			<path class="st1" d="M149.7,57.7c-7.7,0-14.9-3-20.3-8.5c-5.4-5.5-8.3-12.8-8.3-20.3c0-7.6,3-14.8,8.3-20.3
				c5.3-5.4,12.7-8.5,20.3-8.5c7.6,0,14.9,3,20.3,8.5c5.4,5.5,8.3,12.8,8.3,20.3c0,7.6-3,14.8-8.3,20.3
				C164.7,54.7,157.4,57.7,149.7,57.7z M149.7,10c-4.9,0-9.6,2-13.1,5.6c-3.6,3.5-5.5,8.2-5.5,13.3c0,5.1,2,9.8,5.5,13.2
				c3.5,3.6,8.2,5.6,13.1,5.6c4.9,0,9.8-2,13.2-5.6c3.5-3.5,5.4-8.2,5.4-13.3c0-5-1.9-9.8-5.4-13.3C159.5,12,154.7,10,149.7,10z"/>
		</g>
		<g>
			<path class="st1" d="M180.2,56.7v-9.4h1.1c16.3,0,19.5-5.7,19.5-14.8V10.2h-20.6V1.1h30.4v31.4c0,17-8.8,24.2-29.4,24.2
				L180.2,56.7L180.2,56.7z"/>
		</g>
		<g>
			<path class="st1" d="M253.2,56.7l-5.1-13.5h-20.3l-5.2,13.5H212l22.3-56.4h7.1l22.3,56.4H253.2z M244.5,33.7L238,16.7l-6.5,17.1
				H244.5z"/>
		</g>
		<g>
			<polygon class="st1" points="301.6,56.7 277.3,21.6 277.3,56.7 267.5,56.7 267.5,1 275.1,1 299.5,36.4 299.5,1 309.3,1 
				309.3,56.7 			"/>
		</g>
		<g>
			<path class="st1" d="M343.2,57.7c-7.7,0-14.9-3-20.3-8.5c-5.4-5.5-8.3-12.8-8.3-20.3c0-7.6,3-14.8,8.3-20.3
				c5.3-5.4,12.7-8.5,20.3-8.5c7.6,0,14.9,3,20.3,8.5c1.9,2,3.6,4.2,4.9,6.7l0.8,1.6h-11.8l-0.5-0.6c-0.2-0.2-0.4-0.4-0.5-0.6
				C353,12,348.2,10,343.2,10c-4.9,0-9.6,2-13.1,5.6c-3.6,3.5-5.5,8.2-5.5,13.3c0,5.1,2,9.8,5.5,13.2c3.5,3.6,8.2,5.6,13.1,5.6
				c4.9,0,9.8-2,13.2-5.6c2.4-2.4,4-5.3,4.9-8.6h-21v-10h31.1l0.1,0.9c0.2,1.5,0.3,3,0.3,4.5c0,7.6-3,14.8-8.3,20.3
				C358.2,54.7,350.9,57.7,343.2,57.7z"/>
		</g>
	</g>
</g>
</svg>
